<svg width="307" height="29" viewBox="0 0 307 29" fill="none" xmlns="http://www.w3.org/2000/svg">
<path d="M34.296 0.476562H8.11119C6.39353 0.476562 5.0003 1.86974 5.0003 3.5874V9.61831C5.0003 10.0954 5.38843 10.4835 5.86556 10.4835H9.13542C9.61255 10.4835 10.0007 10.0954 10.0007 9.61831V5.47048H32.413V18.5247H10.0007V14.3769C10.0007 13.8997 9.61255 13.5117 9.13542 13.5117H5.86556C5.38843 13.5117 5.0003 13.8997 5.0003 14.3769V18.5247H0.865184C0.388055 18.5247 0 18.9127 0 19.3899V22.6598C0 23.1369 0.388055 23.525 0.865184 23.525H5.0003V27.6601C5.0003 28.1372 5.38843 28.5253 5.86556 28.5253H9.13542C9.61255 28.5253 10.0007 28.1372 10.0007 27.6601V23.525H34.296C36.0137 23.525 37.4069 22.1318 37.4069 20.4141V3.5874C37.4069 1.86974 36.0137 0.476562 34.296 0.476562Z" fill="#E09D00"/>
<path d="M83.9698 14.4414L81.7115 16.897V23.106H79.5039V5.80859H81.7115V14.2696L89.2692 5.80859H91.623V5.92947L85.5158 12.8255L92.0683 22.9788V23.0997H89.5937L83.9762 14.4414H83.9698Z" fill="#004F9D"/>
<path d="M64.7413 23.5193L53.5765 10.2998V23.1059H51.4453V5.46484H52.2088L63.3481 18.589V5.8084H65.4793V23.5193H64.7413Z" fill="#004F9D"/>
<path d="M71.3906 5.80859H73.5981V23.106H71.3906V5.80859Z" fill="#004F9D"/>
<path d="M112.297 5.80859H121.47V7.72343H114.504V13.1945H120.567V15.0839H114.504V21.1912H121.47V23.106H112.297V5.80859Z" fill="#004F9D"/>
<path d="M126.613 5.80859H128.821V23.106H126.613V5.80859Z" fill="#004F9D"/>
<path d="M100.364 14.4414L98.106 16.897V23.106H95.8984V5.80859H98.106V14.2696L105.664 5.80859H108.018V5.92947L101.91 12.8255L108.463 22.9788V23.0997H105.988L100.371 14.4414H100.364Z" fill="#004F9D"/>
<path d="M147.407 5.46875C144.766 5.46875 142.546 6.35305 140.727 8.11524C138.914 9.87743 138.004 12.0022 138.004 14.4896C138.004 16.9771 138.914 19.1019 140.727 20.8704C142.54 22.639 144.766 23.5232 147.407 23.5232C150.047 23.5232 152.267 22.639 154.086 20.8704C155.899 19.1019 156.809 16.9771 156.809 14.4896C156.809 12.0022 155.899 9.87743 154.086 8.11524C152.273 6.35305 150.047 5.46875 147.407 5.46875ZM151.351 18.5357C150.269 19.6299 148.959 20.177 147.407 20.177C145.854 20.177 144.544 19.6299 143.462 18.5357C142.381 17.4415 141.846 16.0928 141.846 14.496C141.846 12.8992 142.387 11.5505 143.462 10.45C144.544 9.3494 145.854 8.80227 147.407 8.80227C148.959 8.80227 150.269 9.3494 151.351 10.45C152.432 11.5505 152.967 12.8992 152.967 14.496C152.967 16.0928 152.426 17.4415 151.351 18.5357Z" fill="#004F9D"/>
<path d="M197.344 5.80859H194.628C194.35 5.80859 194.125 6.03359 194.125 6.31115V22.6034C194.125 22.881 194.35 23.106 194.628 23.106H197.344C197.622 23.106 197.847 22.881 197.847 22.6034V6.31115C197.847 6.03359 197.622 5.80859 197.344 5.80859Z" fill="#004F9D"/>
<path d="M189.677 5.80961H177.94C177.667 5.80961 177.438 6.03226 177.438 6.31217V22.6045C177.438 22.878 177.66 23.1071 177.94 23.1071H180.656C180.93 23.1071 181.159 22.8844 181.159 22.6045V16.9998H187.133C187.406 16.9998 187.635 16.7772 187.635 16.4973V14.1562C187.635 13.8826 187.413 13.6536 187.133 13.6536H181.159V9.1495H189.677C189.951 9.1495 190.18 8.92682 190.18 8.6469V6.29943C190.18 6.02588 189.957 5.79688 189.677 5.79688V5.80961Z" fill="#004F9D"/>
<path d="M172.998 5.80961H161.26C160.987 5.80961 160.758 6.03226 160.758 6.31217V22.6045C160.758 22.878 160.98 23.1071 161.26 23.1071H163.977C164.25 23.1071 164.479 22.8844 164.479 22.6045V16.9998H170.453C170.727 16.9998 170.956 16.7772 170.956 16.4973V14.1562C170.956 13.8826 170.733 13.6536 170.453 13.6536H164.479V9.1495H172.998C173.271 9.1495 173.5 8.92682 173.5 8.6469V6.29943C173.5 6.02588 173.278 5.79688 172.998 5.79688V5.80961Z" fill="#004F9D"/>
<path d="M216.833 18.1006C216.629 17.8907 216.292 17.8907 216.101 18.107C215.942 18.2851 215.764 18.4696 215.637 18.5778C215.344 18.8195 215.013 19.0612 214.631 19.2966C214.25 19.532 213.779 19.7419 213.2 19.9137C212.628 20.0855 212.023 20.1745 211.393 20.1745C209.778 20.1745 208.422 19.6338 207.335 18.5459C206.247 17.4581 205.706 16.1094 205.706 14.4872C205.706 12.8649 206.247 11.5163 207.335 10.4284C208.448 9.31511 209.841 8.77436 211.508 8.79981C212.055 8.80617 212.602 8.90799 213.124 9.0734C213.684 9.25153 214.135 9.44873 214.485 9.66503C214.829 9.88133 215.153 10.1231 215.446 10.4093C215.579 10.5366 215.732 10.7083 215.872 10.8674C216.063 11.09 216.4 11.0964 216.604 10.8928L218.239 9.25787C218.423 9.07338 218.436 8.76801 218.258 8.5708C218.003 8.28452 217.653 7.90283 217.412 7.70562C217.004 7.36845 216.54 7.03126 216.012 6.69409C215.484 6.35692 214.81 6.07065 213.989 5.82891C213.168 5.59353 212.303 5.47266 211.393 5.47266C208.753 5.47266 206.527 6.35695 204.707 8.11914C202.894 9.88133 201.984 12.0061 201.984 14.4935C201.984 16.981 202.894 19.1058 204.707 20.8743C206.52 22.6429 208.753 23.5272 211.393 23.5272C212.297 23.5272 213.168 23.3999 214.008 23.1518C214.848 22.9037 215.528 22.6238 216.05 22.3248C216.572 22.0258 217.055 21.6695 217.513 21.2751C217.787 21.0334 218.137 20.6771 218.379 20.4099C218.557 20.2191 218.557 19.9201 218.379 19.7292L216.839 18.107L216.833 18.1006Z" fill="#004F9D"/>
<path d="M288.719 13.669C287.879 13.3445 287.039 13.0646 286.206 12.8229C285.372 12.5811 284.666 12.2821 284.081 11.9323C283.496 11.5824 283.203 11.118 283.203 10.539C283.203 10.0237 283.419 9.58478 283.846 9.22217C284.272 8.85955 284.844 8.6814 285.557 8.6814C286.142 8.6814 286.715 8.82137 287.275 9.09492C287.631 9.27305 288.108 9.6166 288.426 9.87107C288.63 10.0301 288.922 10.011 289.1 9.82017L290.659 8.1661C290.85 7.96889 290.837 7.65081 290.646 7.45996C290.462 7.28184 290.252 7.08465 290.093 6.97014C289.775 6.74112 289.406 6.51206 288.98 6.29576C288.56 6.0731 288.013 5.88227 287.357 5.71687C286.696 5.55146 286.015 5.46875 285.303 5.46875C283.509 5.46875 282.045 5.96497 280.926 6.95104C279.8 7.94346 279.24 9.13947 279.24 10.539C279.24 11.6714 279.532 12.6129 280.124 13.3509C280.709 14.0889 281.422 14.6232 282.255 14.9477C283.089 15.2721 283.928 15.5521 284.768 15.7874C285.608 16.0228 286.32 16.3218 286.906 16.6781C287.491 17.0343 287.784 17.4987 287.784 18.0776C287.784 18.7202 287.529 19.2546 287.027 19.6744C286.524 20.0943 285.824 20.3042 284.933 20.3042C284.164 20.3042 283.419 20.1325 282.713 19.7826C282.23 19.5472 281.594 19.0701 281.206 18.752C281.008 18.5866 280.716 18.6056 280.538 18.7838L278.992 20.3233C278.794 20.5205 278.794 20.8386 278.992 21.0358C279.221 21.2649 279.513 21.5448 279.711 21.6911C280.08 21.971 280.512 22.2509 280.996 22.5245C281.485 22.798 282.103 23.0334 282.853 23.2306C283.604 23.4278 284.386 23.5296 285.188 23.5296C287.236 23.5296 288.84 23.0207 290.004 22.0092C291.168 20.9976 291.747 19.6871 291.747 18.084C291.747 16.9516 291.454 16.0101 290.863 15.2721C290.277 14.5278 289.558 13.9998 288.719 13.6754V13.669Z" fill="#E09D00"/>
<path d="M306.117 15.258C305.531 14.5136 304.812 13.9856 303.973 13.6612C303.133 13.3367 302.293 13.0568 301.46 12.8151C300.626 12.5733 299.92 12.2743 299.335 11.9244C298.75 11.5745 298.457 11.1101 298.457 10.5312C298.457 10.0159 298.673 9.57697 299.1 9.21435C299.532 8.85174 300.098 8.67362 300.811 8.67362C301.396 8.67362 301.969 8.81356 302.529 9.08711C302.885 9.26524 303.362 9.60879 303.68 9.86326C303.884 10.0223 304.176 10.0032 304.354 9.81235L305.913 8.15833C306.104 7.96112 306.091 7.643 305.9 7.45215C305.716 7.27402 305.506 7.07684 305.347 6.96233C305.029 6.73331 304.66 6.50429 304.234 6.28799C303.814 6.06533 303.266 5.87446 302.611 5.70905C301.95 5.54365 301.269 5.46094 300.556 5.46094C298.762 5.46094 297.299 5.95716 296.18 6.94322C295.054 7.93565 294.494 9.13166 294.494 10.5312C294.494 11.6636 294.786 12.6051 295.378 13.3431C295.963 14.081 296.676 14.6154 297.509 14.9399C298.343 15.2643 299.182 15.5442 300.022 15.7796C300.862 16.015 301.574 16.314 302.16 16.6703C302.745 17.0265 303.038 17.4909 303.038 18.0698C303.038 18.7124 302.783 19.2467 302.28 19.6666C301.778 20.0865 301.078 20.2964 300.187 20.2964C299.418 20.2964 298.673 20.1246 297.967 19.7748C297.484 19.5394 296.847 19.0622 296.459 18.7442C296.262 18.5788 295.97 18.5979 295.791 18.776L294.246 20.3155C294.048 20.5127 294.048 20.8308 294.246 21.028C294.475 21.257 294.767 21.5369 294.964 21.6833C295.333 21.9632 295.766 22.2431 296.25 22.5166C296.739 22.7902 297.356 23.0256 298.107 23.2228C298.858 23.42 299.64 23.5218 300.442 23.5218C302.49 23.5218 304.094 23.0129 305.258 22.0013C306.422 20.9898 307.001 19.6793 307.001 18.0762C307.001 16.9438 306.708 16.0023 306.117 15.2643V15.258Z" fill="#E09D00"/>
<path d="M252.052 5.80859H245.315C245.041 5.80859 244.812 6.03124 244.812 6.31115V22.6034C244.812 22.877 245.035 23.106 245.315 23.106H248.031C248.305 23.106 248.534 22.8834 248.534 22.6034V19.6516H252.052C255.876 19.6516 258.986 16.5726 258.986 12.7492C258.986 8.92581 255.876 5.81492 252.052 5.81492V5.80859ZM252.052 15.8919H248.534V9.56834H252.052C253.802 9.56834 255.233 10.9934 255.233 12.7492C255.233 14.505 253.808 15.8982 252.052 15.8982V15.8919Z" fill="#E09D00"/>
<path d="M276.899 22.419L270.48 6.12668C270.404 5.93583 270.219 5.80859 270.016 5.80859H266.746C266.542 5.80859 266.358 5.93583 266.282 6.12668L259.863 22.419C259.735 22.7498 259.977 23.106 260.327 23.106H263.202C263.412 23.106 263.603 22.9724 263.673 22.7752L264.837 19.6516H271.803C271.842 19.6516 271.88 19.6389 271.918 19.6262L273.089 22.7752C273.159 22.9724 273.349 23.106 273.559 23.106H276.435C276.791 23.106 277.033 22.7498 276.899 22.419ZM268.381 10.1154L270.525 15.8919H266.231L268.381 10.1154Z" fill="#E09D00"/>
<path d="M235.142 19.7622H226.604V16.0915H232.591C232.871 16.0915 233.093 15.8689 233.093 15.589V13.2542C233.093 12.9743 232.871 12.7516 232.591 12.7516H226.604V9.15727H235.142C235.422 9.15727 235.644 8.93463 235.644 8.65471V6.30725C235.644 6.02733 235.422 5.80469 235.142 5.80469H223.385C223.105 5.80469 222.883 6.02733 222.883 6.30725V22.5995C222.883 22.8795 223.105 23.1021 223.385 23.1021H235.142C235.422 23.1021 235.644 22.8795 235.644 22.5995V20.2648C235.644 19.9849 235.422 19.7622 235.142 19.7622Z" fill="#004F9D"/>
</svg>
