<?xml version="1.0" encoding="UTF-8"?>
<svg id="Layer_1" xmlns="http://www.w3.org/2000/svg" version="1.1" viewBox="0 0 512 512">
  <!-- Generator: Adobe Illustrator 29.1.0, SVG Export Plug-In . SVG Version: 2.1.0 Build 142)  -->
  <defs>
    <style>
      .st0 {
        fill: #fff;
      }
    </style>
  </defs>
  <path class="st0" d="M256,80c-114.9,0-208,93.1-208,208v104c0,13.3-10.7,24-24,24S0,405.3,0,392v-104C0,146.6,114.6,32,256,32s256,114.6,256,256v104c0,13.3-10.7,24-24,24s-24-10.7-24-24v-104c0-114.9-93.1-208-208-208ZM80,352c0-35.3,28.7-64,64-64h16c17.7,0,32,14.3,32,32v128c0,17.7-14.3,32-32,32h-16c-35.3,0-64-28.7-64-64v-64ZM368,288c35.3,0,64,28.7,64,64v64c0,35.3-28.7,64-64,64h-16c-17.7,0-32-14.3-32-32v-128c0-17.7,14.3-32,32-32h16Z"/>
</svg>