<svg width="160" height="169" viewBox="0 0 160 169" fill="none" xmlns="http://www.w3.org/2000/svg">
<ellipse cx="46" cy="155.43" rx="22.5" ry="13" fill="#BDEAFF"/>
<path d="M115.699 37.9184C115.699 37.9184 115.599 35.837 116.514 35.6205C117.414 35.3874 120.561 38.8842 119.512 39.9166C118.463 40.949 115.699 37.9184 115.699 37.9184Z" fill="#E2652B"/>
<path d="M87.5063 115.263L82.8438 118.394C82.8438 118.394 78.5976 121.092 77.6651 121.092C76.7327 121.092 76.0499 122.807 78.1813 123.24C80.2961 123.656 85.8078 121.974 88.0225 121.458C90.2205 120.942 92.3019 120.475 92.3019 120.475C92.3019 120.475 92.7682 115.846 91.2529 114.314C89.7209 112.782 87.5229 115.247 87.5229 115.247L87.5063 115.263Z" fill="#CB5729"/>
<path d="M87.4984 114.818L82.836 117.949C82.836 117.949 78.5898 120.646 77.6573 120.646C76.7248 120.646 76.0421 122.361 78.1735 122.794C80.2883 123.211 85.8 121.529 88.0146 121.013C90.2127 120.496 92.2941 120.03 92.2941 120.03C92.2941 120.03 92.7604 115.401 91.2451 113.869C89.7131 112.337 87.5151 114.801 87.5151 114.801L87.4984 114.818Z" fill="#96B3EB"/>
<path d="M99.0611 115.455C99.0611 115.455 98.062 113.54 97.5624 115.522C96.5134 119.585 93.8491 128.327 96.4967 128.493C100.227 128.743 101.775 125.413 102.125 119.918C102.291 117.27 102.158 114.09 101.592 114.239L99.0777 115.455H99.0611Z" fill="#CB5729"/>
<path d="M97.5483 114.704C96.6491 118.801 93.835 128.192 96.4826 128.042C101.162 127.793 101.944 123.946 102.111 119.101C102.411 110.275 98.7972 109.11 97.5483 114.704Z" fill="#96B3EB"/>
<path d="M79.398 40.0512L68.5078 56.2865C68.5078 56.2865 68.7243 57.2856 71.0222 58.1182C73.3201 58.9508 85.2427 43.8477 85.2427 43.8477C85.2427 43.8477 84.6599 39.0854 79.3813 40.0512H79.398Z" fill="#4D78CE"/>
<path d="M79.4073 86.593C79.4073 86.593 82.9707 99.9476 84.5193 103.478C89.3816 114.601 82.9707 117.115 82.8375 117.965C82.8375 117.965 82.6377 120.579 91.4464 114.668C92.229 114.135 90.1476 112.52 90.2641 111.054C90.7304 104.643 91.3965 89.4738 89.6813 85.5606C87.5832 80.7483 79.3906 86.593 79.3906 86.593H79.4073Z" fill="#F4C5B5"/>
<path d="M92.36 79.0882C92.36 79.0882 91.5773 78.0724 91.6273 78.189C92.693 80.437 94.8244 98.7205 95.9234 102.334C97.4054 107.163 97.6052 112.391 97.6052 115.056C97.6052 117.27 95.274 122.249 100.22 121.067C101.951 120.651 102.018 114.723 100.936 112.342C100.386 111.126 102.484 100.436 102.484 94.6575C102.484 86.5814 104.116 86.8479 102.134 82.5351L92.36 79.1048V79.0882Z" fill="#F9D7CB"/>
<path d="M87.2269 18.9724C87.5932 19.0223 88.0095 19.0889 88.4924 19.1722C94.8367 20.3378 110.489 25.3 108.924 31.5277C108.125 34.7415 94.5036 52.975 94.5036 52.975C94.5036 52.975 91.3398 62.9327 85.8947 60.8346C80.4496 58.7365 77.519 42.6177 78.7845 35.7073C80.0334 28.7968 82.0649 18.3396 87.2269 18.9557V18.9724Z" fill="#FFF6EE"/>
<path d="M108.498 44.0987C108.498 44.0987 112.878 38.8201 114.326 37.9875C114.843 37.6878 117.157 35.623 118.04 35.24C119.605 34.5573 121.12 35.7396 120.021 36.9052C114.66 42.5834 113.277 49.677 109.764 47.6455C106.25 45.614 108.515 45.5474 108.515 44.082L108.498 44.0987Z" fill="#F9D7CB"/>
<path d="M79.996 50.7969C79.996 50.7969 80.5788 51.363 78.9469 53.1781C76.9487 55.4094 74.0513 59.3059 74.8006 65.034C75.5666 70.8122 76.8987 78.1888 76.8987 78.1888C76.8987 78.1888 76.8987 87.98 80.1292 91.2104C82.2939 93.3751 87.5225 95.5232 91.4523 95.7397C103.042 96.3558 103.525 87.3639 103.525 87.3639C103.525 87.3639 102.659 72.2442 102.975 68.8306C103.608 61.8702 99.6282 53.8108 99.6282 53.8108C99.6282 53.8108 94.333 57.1911 92.5846 57.1745C89.0545 57.1412 79.996 50.7969 79.996 50.7969Z" fill="#376ABC"/>
<path d="M89.2411 14.9979C89.2411 14.9979 87.9922 21.6918 88.6083 24.2062C89.2411 26.7206 89.7239 26.9205 90.2901 26.6041C90.8563 26.2877 96.3513 25.6549 97.3504 23.2071C98.0331 21.5253 96.0016 19.2107 96.0016 16.9961C96.0016 14.7814 89.2577 14.9812 89.2577 14.9812L89.2411 14.9979Z" fill="#F4C5B5"/>
<path d="M88.4023 3.26974C88.4023 3.26974 86.7205 6.20043 87.3533 9.34759C87.986 12.4948 87.4532 16.3579 89.2349 18.1397C91.0166 19.9214 91.5328 20.6541 93.2147 20.6541C94.8965 20.6541 97.6107 18.6725 98.4433 16.3246C99.2759 13.9601 100.125 7.68242 99.2759 5.16802C98.4433 2.65363 94.0472 -2.37517 88.3857 3.28639L88.4023 3.26974Z" fill="#F9D7CB"/>
<path d="M96.3284 1.51902C96.3284 1.51902 98.5097 5.79849 90.2838 8.84574C86.9701 10.078 88.269 15.3565 88.269 16.4056C88.269 17.4546 83.9728 9.41189 88.4022 3.26744C92.6816 -2.66055 96.3284 1.50236 96.3284 1.50236V1.51902Z" fill="#AB6D55"/>
<path d="M95.6328 2.07217C95.6328 2.07217 98.7134 6.30169 98.9798 8.13337C99.2462 9.9817 98.8632 13.2288 98.8632 13.2288C98.8632 13.2288 104.342 6.61807 99.3128 2.42185C96.199 -0.175801 95.6328 2.05552 95.6328 2.05552V2.07217Z" fill="#AB6D55"/>
<path d="M116.509 37.3711C116.509 37.3711 119.34 38.6866 121.305 39.8355C123.269 40.9678 124.985 40.6015 126.849 40.6015C128.714 40.6015 130.729 41.0011 130.729 41.0011C130.729 41.0011 131.212 40.7513 130.729 40.2684C130.246 39.7856 127.183 39.336 127.183 39.336L131.795 39.4192C131.795 39.4192 132.245 38.52 131.512 38.3702C130.779 38.2203 130.33 38.3702 130.33 38.3702C130.33 38.3702 132.361 37.7707 132.528 37.7707C132.694 37.7707 133.494 37.088 132.078 37.088C130.663 37.088 127.183 36.8549 127.183 36.8549L131.629 35.606C131.629 35.606 131.912 34.5902 130.613 35.0398C129.314 35.4894 125.767 35.8391 125.767 35.8391L123.153 35.2064C123.153 35.2064 123.203 34.7068 124.352 34.3238C125.501 33.9408 125.601 33.358 125.984 32.9584C126.383 32.5587 125.817 31.8594 125.817 31.8594C125.817 31.8594 124.285 33.1082 123.269 33.1082C122.254 33.1082 120.638 33.5245 119.656 34.5236C118.674 35.5061 116.492 37.3544 116.492 37.3544L116.509 37.3711Z" fill="#F9D7CB"/>
<path d="M90.6366 30.3436L89.6875 26.7302C89.6875 26.7302 94.8828 25.8476 95.8986 24.0659C96.9143 22.2842 96.931 20.3359 96.931 20.3359L99.3122 22.4174C99.3122 22.4174 97.597 27.6294 95.8153 28.1289C94.0336 28.6451 90.6366 30.3269 90.6366 30.3269V30.3436Z" fill="#F9F9F9"/>
<path d="M86.2341 27.7941L89.681 26.7118C89.681 26.7118 88.3822 22.066 88.4821 20.8504C88.582 19.6348 88.582 19.1852 88.582 19.1852L87.2166 18.9688C87.2166 18.9688 85.9844 21.8495 85.9844 23.881C85.9844 25.9125 86.2508 27.7941 86.2508 27.7941H86.2341Z" fill="#F9F9F9"/>
<path d="M86.3969 60.6168C86.3969 60.6168 86.297 53.0403 87.2128 47.895C88.1287 42.7496 91.4424 33.2249 91.4424 33.2249L99.3019 22.418C99.3019 22.418 104.381 23.2672 105.779 25.1655C107.162 27.0638 106.662 34.4238 105.247 41.0345C103.831 47.6452 98.3861 51.0421 100.101 54.3392C101.816 57.6362 103.565 65.0628 103.565 68.4098C103.565 71.7568 101.417 74.2212 96.1881 74.2212C90.9595 74.2212 85.2812 70.791 85.2812 70.791L86.4302 60.6501L86.3969 60.6168Z" fill="#597ED9"/>
<path d="M88.9567 18.3418C88.9567 18.3418 82.9455 33.2284 82.9455 37.8575C82.9455 42.4867 79.4153 66.9313 79.4153 66.9313C79.4153 66.9313 73.7205 65.0996 74.0702 62.1356C74.3699 59.5879 74.4198 56.1244 76.9009 52.0114C79.3987 47.8985 76.9009 44.5515 76.9009 39.1397C76.9009 33.7279 80.2812 22.1051 84.5773 18.9746C85.693 18.1586 88.9567 18.3418 88.9567 18.3418Z" fill="#597ED9"/>
<path d="M101.565 29.1977C102.281 27.749 102.448 24.1189 105.795 25.168C109.142 26.217 113.338 40.0712 113.338 40.0712C113.338 40.0712 113.021 49.546 109.774 47.6643C106.544 45.7994 98.7675 34.8592 101.565 29.1977Z" fill="#4D78CE"/>
<path d="M109.034 40.1709L116.527 35.625C116.527 35.625 117.726 39.2884 119.525 39.1551C121.323 39.0219 114.246 48.913 110.782 48.0138C107.319 47.1146 109.034 40.1875 109.034 40.1875V40.1709Z" fill="#597ED9"/>
<path d="M88.4375 42.3239C88.4375 42.3239 91.9343 31.3505 93.433 29.702C95.964 26.9045 98.262 23.5908 97.7791 22.4252C97.2962 21.2596 96.9298 20.3438 96.9298 20.3438C96.9298 20.3438 99.4775 21.4594 100.01 22.4252C100.86 23.9572 100.676 27.4207 98.645 29.4522C96.6135 31.4837 97.4793 30.9841 97.4793 30.9841L95.0315 29.8185L96.347 32.0665L88.4375 42.3406V42.3239Z" fill="#96B3EB"/>
<path d="M82.7207 41.0223C82.7207 41.0223 83.9696 33.6955 84.6357 31.7639C85.3184 29.8323 88.7153 18.376 88.7153 18.376C88.7153 18.376 87.7828 18.2595 87.5164 18.376C86.2509 18.8756 84.1694 21.4732 83.8697 22.4224C83.5866 23.3715 83.1037 24.4539 83.1037 24.4539L85.4183 24.9867L82.3211 25.736C82.3211 25.736 81.4718 37.5587 82.7207 41.0389V41.0223Z" fill="#96B3EB"/>
<path d="M90.4934 58.4656C90.4934 58.4656 94.1401 59.8144 95.9218 59.0151L97.6869 58.1992L98.3197 61.1466C98.3197 61.1466 95.9218 62.2789 93.7571 62.2789C91.5924 62.2789 90.0938 61.1466 90.0938 61.1466V58.1992L90.4934 58.4656Z" fill="#96B3EB"/>
<path d="M76.9456 51.2773C77.5284 51.1774 78.4776 53.0424 78.4776 53.0424L77.3286 56.1562L75.5469 54.258C75.5469 54.258 75.9299 51.4438 76.9456 51.2773Z" fill="#96B3EB"/>
<path d="M109.508 106.113L32.9766 61.9359L56.8051 49.1641L133.336 93.3575L109.508 106.113Z" fill="white"/>
<path d="M109.289 106.252L110.79 160.432L34.7105 116.499L33.2096 62.3364L109.289 106.252Z" fill="#F8F8F8" stroke="#E8E8E8" stroke-width="0.444326"/>
<path d="M134.626 147.916L111.235 160.453L109.734 106.25L133.124 93.7288L134.626 147.916Z" fill="#E0DADA" stroke="#E8E8E8" stroke-width="0.444326"/>
<path d="M39.5688 85.3315L33.0747 87.2964L28.6953 91.8589C28.6953 91.8589 29.4779 93.4908 30.1107 92.6748C30.7435 91.8589 34.1404 88.9282 34.1404 88.9282H37.2876C37.2876 88.9282 39.1692 90.1938 37.9203 91.4426C36.6715 92.6915 36.6715 94.1568 36.6715 94.1568C36.6715 94.1568 38.986 93.2077 39.8852 92.2919C40.4514 91.7257 41.4838 89.8441 42.1998 88.4953C42.6494 87.6294 42.4829 86.5803 41.8002 85.881C41.2173 85.2982 40.3681 85.0817 39.5688 85.3148V85.3315Z" fill="#F9D7CB"/>
<path d="M37.8678 151.452C37.668 152.102 37.235 152.818 36.3858 153.301C35.7863 153.65 35.0037 153.85 34.1878 153.967C32.2728 154.233 30.1414 154.033 29.7418 154.033C29.6918 154.033 29.6419 154 29.6252 153.917C29.4754 153.484 29.6585 152.035 29.8584 150.786C29.8917 150.603 29.925 150.436 29.9583 150.27C30.0915 149.454 30.2247 148.821 30.2247 148.821C30.2247 148.821 31.9898 148.055 33.5883 147.506C34.9038 147.04 36.1194 146.74 36.1194 147.139C36.1194 148.039 36.3858 148.655 36.3858 148.655L36.7854 148.938L37.1185 149.171L38.001 149.787C38.001 149.787 38.1342 150.57 37.8511 151.452H37.8678Z" fill="#F9D7CB"/>
<path d="M39.8805 136.461C38.4152 140.59 37.4827 148.217 37.4827 148.217C37.4827 148.217 37.2329 148.516 36.7833 148.916C36.1672 149.465 35.1848 150.198 33.9359 150.614C33.836 150.648 33.7194 150.681 33.6195 150.714C32.1042 151.147 30.7388 150.648 29.9562 150.248C29.5232 150.032 29.2734 149.832 29.2734 149.832C29.2734 149.832 29.5898 142.155 29.9062 139.957C30.2226 137.759 31.9377 133.114 33.4031 130.233C34.8684 127.369 34.7019 125.371 34.7019 123.123C34.7019 120.875 32.8702 117.111 30.8387 110.884C28.8072 104.656 33.0367 99.9934 33.1866 99.9102L36.9165 101.525L42.3783 103.89C42.3783 103.89 43.7937 119.359 44.1101 123.589C44.4264 127.818 41.3459 132.314 39.8805 136.461Z" fill="#3F2001"/>
<path d="M43.294 152.651C42.628 153.301 38.7981 154.533 37.4326 154.533C36.0672 154.533 33.4029 157.464 31.6212 157.93C31.1383 158.063 30.6554 158.013 30.1892 157.88C28.9736 157.53 28.0078 156.515 28.0078 156.348C28.0078 156.248 28.141 155.765 28.2742 155.266C28.4408 154.7 28.6239 154.117 28.6239 154.117L29.5897 153.9L34.1023 152.885L35.9007 152.485C35.9007 152.485 36.7333 152.019 37.8156 151.436C39.5807 150.503 42.0451 149.321 42.8777 149.438C44.2432 149.687 43.8935 152.002 43.2441 152.651H43.294Z" fill="#3E3E3E"/>
<path d="M43.2952 151.198C42.7624 152.663 40.3645 153.446 37.7835 153.762C36.2349 153.945 35.1026 154.811 34.0203 155.561C33.9703 155.594 33.9204 155.627 33.8537 155.677C33.2043 156.127 32.5549 156.526 31.8389 156.693C31.5725 156.759 31.3061 156.776 31.0396 156.776C29.7741 156.743 28.6584 155.994 28.2921 155.294C28.1755 155.078 28.1256 154.861 28.1755 154.678C28.392 153.779 29.0747 151.364 29.541 150.915C29.6742 150.782 29.7741 150.765 29.8574 150.782C30.1071 150.848 30.2237 151.314 30.2237 151.314C30.9064 151.714 32.2052 151.947 34.0369 151.781C35.8686 151.614 36.6512 150.265 37.0009 149.433C37.0342 149.333 37.0842 149.25 37.1341 149.183C37.4172 148.733 37.6503 149.133 38.2831 149.233C39.0158 149.333 40.5644 148.667 41.9964 149.016C42.4294 149.133 42.7624 149.283 42.9955 149.483C43.5117 149.916 43.545 150.532 43.3119 151.215L43.2952 151.198Z" fill="#3F2001"/>
<path d="M46.6193 156.533C46.6193 156.533 45.5703 161.745 46.1364 161.745C46.7026 161.745 50.7656 162.178 52.7804 161.029C54.7953 159.864 54.4123 156.533 54.4123 156.533L52.7804 156.367C52.7804 156.367 52.5307 155.751 52.5307 154.851C52.5307 153.952 46.6193 156.517 46.6193 156.517V156.533Z" fill="#F9D7CB"/>
<path d="M31.0569 67.4251C31.0569 67.4251 29.908 65.0272 28.3427 70.1393C26.7775 75.268 27.8265 85.6586 26.7775 88.7225C25.7284 91.7864 26.0448 94.0843 26.0448 94.4007C26.0448 94.7171 30.4408 105.774 30.4408 105.774C30.4408 105.774 34.7203 102.244 34.7203 101.927C34.7203 101.611 31.7896 93.9844 32.6222 92.4192C33.4548 90.8539 36.7185 77.466 36.7185 75.1681C36.7185 72.8702 31.3567 67.2252 31.3567 67.2252L31.0569 67.4417V67.4251Z" fill="#55608F"/>
<g style="mix-blend-mode:multiply" opacity="0.26">
<path d="M34.7288 67.9368C34.7288 67.9368 33.5798 65.539 32.0146 70.651C30.4493 75.7797 31.4984 86.1703 30.4493 89.2342C29.4003 92.2981 29.7167 94.5961 29.7167 94.9125C29.7167 95.2288 34.1127 106.286 34.1127 106.286C34.1127 106.286 38.3922 102.755 38.3922 102.439C38.3922 102.123 35.4615 94.4962 36.2941 92.9309C37.1266 91.3656 40.3737 77.9777 40.3737 75.6798C40.3737 73.3819 35.0119 67.737 35.0119 67.737L34.7122 67.9534L34.7288 67.9368Z" fill="#55608F"/>
</g>
<path d="M58.03 160.257C57.0975 161.539 50.2703 165.286 48.1722 165.802C48.1056 165.818 48.039 165.835 47.989 165.835C46.1573 166.151 44.4922 164.37 44.4922 164.37L44.5921 163.154V163.004L44.5421 163.071C44.7253 162.871 45.6411 162.538 46.7901 162.538C47.2064 162.538 48.0723 162.238 49.1047 161.805C49.3378 161.705 49.5709 161.606 49.8041 161.489C51.4692 160.74 53.3176 159.707 54.2334 158.941C54.4665 158.741 54.633 158.558 54.7329 158.408C55.4656 157.176 56.2982 155.861 57.8968 155.478C59.5453 155.111 58.9625 158.941 58.03 160.24V160.257Z" fill="#3E3E3E"/>
<path d="M53.3073 156.375C53.3073 156.375 53.2073 156.391 53.1574 156.408C53.0741 156.408 53.0075 156.408 52.9576 156.408C52.891 156.408 52.8577 156.375 52.841 156.375C52.7744 156.341 52.8743 156.308 53.0575 156.325C53.1407 156.325 53.224 156.341 53.3239 156.375H53.3073Z" fill="#C100FF"/>
<path d="M57.4482 159.719C56.4657 161.034 51.1872 163.482 48.7227 164.165C48.473 164.232 48.2398 164.282 48.0567 164.315C46.3582 164.581 44.9428 163.882 44.5765 163.166C44.5598 163.133 44.5432 163.099 44.5265 163.066C44.4932 162.966 44.4766 162.883 44.4766 162.8C44.4766 161.9 44.8762 158.387 45.9752 158.62C46.0751 158.653 46.1584 158.687 46.225 158.753C46.5747 159.103 46.5081 159.886 48.2731 159.802C48.8226 159.769 49.4221 159.736 50.0049 159.669C51.6368 159.469 53.2187 159.003 53.8015 157.787C54.1678 157.005 53.8514 156.622 53.4685 156.455C53.4018 156.422 53.3352 156.405 53.2853 156.389C54.3343 156.122 56.6822 154.807 57.7313 155.39C57.7979 155.423 57.8478 155.456 57.8978 155.506C58.8802 156.289 58.4972 158.337 57.4482 159.736V159.719Z" fill="#3F2001"/>
<path d="M56.6116 124.306C55.9788 134.913 55.1962 138.26 53.9473 141.724C52.6984 145.171 53.6309 155.045 53.4811 156.177C53.4311 156.527 53.2812 156.794 53.0315 157.043C53.0148 157.077 52.9815 157.093 52.9649 157.11C52.3821 157.609 51.3497 157.992 49.7344 158.625C49.6345 158.659 49.5513 158.692 49.4514 158.725C48.2192 159.191 47.1534 159.058 46.3542 158.758C45.3884 158.409 44.8056 157.826 44.8056 157.826L44.6557 157.909C44.6557 157.909 43.7565 151.931 43.9064 148.168C44.0562 144.405 46.3542 138.077 46.6206 136.195C46.887 134.314 47.4032 131.966 45.788 126.954C44.4892 122.924 38.3614 119.111 37.8452 112.683C37.5288 108.853 38.3614 104.008 38.3614 104.008L55.9788 106.772C55.9788 106.772 56.0787 107.371 56.2286 108.487C56.5616 111.168 57.0612 116.83 56.6116 124.323V124.306Z" fill="#3F2001"/>
<path d="M48.0886 71.4946C47.8055 71.3281 42.5436 76.9397 38.1642 74.109L37.7812 67.3151C38.031 67.3484 39.2299 67.3983 39.4298 64.068C39.4964 62.9357 40.1957 62.586 41.1282 62.6193C41.7943 62.6526 42.5603 62.8691 43.3096 63.1688C44.9581 63.8182 46.5234 64.8173 46.5234 64.8173C46.5234 64.8173 46.4734 65.4168 46.4401 66.1495C46.4068 67.1819 46.4401 68.4807 46.7232 68.7804C46.9896 69.0469 47.3892 69.7629 47.7056 70.3956C48.022 71.0284 48.2385 71.5779 48.0886 71.5113V71.4946Z" fill="#F9D7CB"/>
<path d="M54.8787 99.1459C56.2941 101.977 56.6605 113.683 56.6605 113.683C56.6605 113.683 53.2802 118.445 45.1209 117.679C41.0745 117.296 29.7348 114.632 29.6515 112.784C29.2185 104.391 32.0493 98.7629 32.0493 95.9321C32.0493 93.1014 33.0817 90.9866 31.0502 87.0735C29.0021 83.1437 28.1861 68.8399 29.5682 67.4745C30.9503 66.0924 38.7433 66.6918 38.7433 66.6918C38.7433 66.6918 37.228 67.2414 40.6249 68.8899C42.723 69.9056 47.2856 69.9889 47.2856 69.9889C47.2856 69.9889 50.6825 72.2535 53.6132 74.4182C55.1119 75.5339 56.4939 76.6162 57.2433 77.3489C59.4413 79.5469 56.1443 88.4888 55.0452 91.303C53.9462 94.1171 53.48 96.3151 54.8954 99.1459H54.8787Z" fill="#647ABE"/>
<path d="M72.8538 75.8605C72.271 75.3443 71.7881 74.7781 71.3884 74.1953C70.9722 74.3951 70.5892 74.4451 70.1895 74.4451V78.2084C70.1895 78.2084 69.0905 78.8411 68.4744 81.0391C68.0581 82.5045 65.6769 84.9689 63.9119 86.5675C63.0293 87.3668 62.3133 87.9496 62.0469 88.0994C62.0469 88.0994 62.1634 88.5657 62.3633 89.2484C62.9461 91.1966 64.2116 94.9266 65.4938 94.7601C65.6936 94.7268 65.8601 94.6935 66.01 94.6602C67.2422 94.3605 67.3421 93.6444 68.0415 92.4788C68.7242 91.3465 71.8713 82.4545 72.7039 80.09C72.8371 79.7237 72.9037 79.5238 72.9037 79.5238C73.0203 79.4572 73.9195 78.9077 74.8353 78.3749C74.9685 78.2916 75.0851 78.1584 75.2017 77.9919C74.3691 77.3258 73.6031 76.5432 72.8538 75.8605Z" fill="#F9D7CB"/>
<path d="M50.5611 58.7634C51.0607 61.1946 50.6777 63.4092 50.0616 64.0253C49.612 64.4749 50.5112 66.8395 47.8469 66.3732C47.314 66.2733 46.8644 66.2067 46.4648 66.1401C45.1993 65.9569 44.5166 65.8404 43.6007 65.3075C43.3676 65.1743 43.1345 65.0078 42.8514 64.808C42.4351 64.4916 41.8023 63.6923 41.1363 62.6266C39.1048 59.4295 36.607 53.8179 37.7893 51.8697C38.6718 50.421 42.4018 50.6374 45.5157 51.087C47.9801 51.4534 50.0449 51.9862 50.0449 51.9862L50.2614 51.853C50.2614 51.853 51.2105 53.6014 50.661 55.8161C50.1115 58.0474 50.0449 56.3156 50.5611 58.7468V58.7634Z" fill="#F9D7CB"/>
<path d="M49.9747 49.1189C47.6768 47.7868 45.3122 44.7229 40.3834 46.2549C40.3834 46.2549 37.7857 46.6712 36.4869 47.97C36.2537 48.2031 33.8726 50.3678 33.6561 54.1311C33.4396 57.8944 35.5377 61.4412 37.3195 63.2229C39.1012 65.0046 38.5683 65.3376 38.5683 65.3376C38.5683 65.3376 42.8311 65.9371 43.414 65.9371C43.9968 65.9371 46.1948 62.3903 46.1948 62.3903C46.1948 62.3903 44.7128 58.0109 45.179 57.9277C45.7452 57.8278 45.9284 59.1599 47.6768 59.3097C47.6768 59.3097 48.3262 55.6963 49.9581 54.7639C51.5733 53.8314 52.0062 50.7841 52.0062 48.8026C52.0062 46.821 52.256 50.4511 49.9581 49.1189H49.9747Z" fill="#3E3E3E"/>
<path d="M46.7093 57.7547C46.7093 57.7547 46.2597 56.3227 45.6103 56.6557C44.9609 56.9887 44.4613 57.7214 44.5113 58.8204C44.5612 59.9194 44.9442 61.3182 45.6769 61.4014C46.4095 61.4847 46.626 61.6179 47.0923 61.1017C47.5585 60.5855 47.4086 59.9028 47.4086 59.9028L46.7093 57.7547Z" fill="#D27E76"/>
<path d="M46.9905 57.8992C46.9905 57.8992 46.5409 56.4672 45.8915 56.8002C45.2421 57.1333 44.7426 57.8659 44.7925 58.9649C44.8425 60.0639 45.2255 61.4627 45.9581 61.5459C46.6908 61.6292 46.9073 61.7624 47.3735 61.2462C47.8398 60.73 47.6899 60.0473 47.6899 60.0473L46.9905 57.8992Z" fill="#F9D7CB"/>
<path d="M46.3734 58.1536C46.3734 58.1536 46.057 58.7697 45.9404 59.0361C45.8239 59.3025 45.674 59.7521 45.7906 60.0019C45.9071 60.2517 46.0403 60.4015 46.0403 60.4015C46.0403 60.4015 46.1569 59.2692 46.3068 58.8529C46.4566 58.4366 46.5399 58.0703 46.39 57.7206C46.2402 57.3876 46.1402 56.9546 45.8072 57.2877C45.4742 57.6207 45.1745 58.0037 45.1578 58.6864C45.1412 59.3691 45.2577 60.1185 45.5408 60.4681C45.8072 60.8178 46.2069 61.0176 46.2069 61.0176C46.2069 61.0176 45.4242 60.5514 45.3576 59.7688C45.291 58.9695 45.3743 57.7706 45.6407 57.5874C45.9071 57.4042 45.9404 57.3709 45.9238 57.6707C45.9238 57.9704 45.6907 58.3867 45.9238 58.2701C46.1569 58.1536 46.2235 57.7539 46.3234 57.9371C46.4233 58.1203 46.3734 58.1536 46.3734 58.1536Z" fill="#F9D7CB"/>
<path d="M46.3778 59.4552C46.3778 59.4552 46.5609 58.8391 46.6942 58.8724C46.8274 58.9057 46.844 58.9223 46.9106 59.1388C46.9606 59.3553 46.9772 59.4386 47.177 59.4052C47.3769 59.3719 47.5434 59.2221 47.3269 59.4885C47.1271 59.7549 47.1104 59.4386 46.7941 59.6051C46.4777 59.7716 46.5443 60.0547 46.3445 60.038C46.1446 60.038 46.3112 59.6051 46.3944 59.4885V59.4385L46.3778 59.4552Z" fill="#F9D7CB"/>
<path d="M66.0279 94.6652C65.7115 94.815 65.3119 94.9483 64.8457 95.0815C62.4978 95.7142 59.617 94.5819 57.7188 91.9177C55.8038 89.2534 56.0203 91.7511 52.0738 85.4901C51.3911 84.4078 51.0248 83.4253 50.8749 82.5095C50.1589 78.1301 54.6049 75.7656 54.6049 75.7656C59.4672 74.3502 62.298 82.5095 62.7642 84.3911C62.9474 85.1238 63.3803 85.8231 63.9132 86.5725C64.7624 87.7547 65.8448 89.0869 66.5275 90.8186C66.6607 91.1683 66.7772 91.4847 66.8605 91.7678C67.3434 93.3664 67.1103 94.149 66.0279 94.6652Z" fill="#55608F"/>
<g style="mix-blend-mode:multiply" opacity="0.26">
<path d="M72.7205 80.0859C71.8879 82.4505 68.7408 91.3425 68.058 92.4748C67.3587 93.6404 67.2588 94.3397 66.0265 94.6561C65.7102 94.806 65.3105 94.9392 64.8443 95.0724C62.4964 95.7052 59.6157 94.5729 57.7174 91.9086C55.8024 89.2443 56.0189 91.7421 52.0725 85.4811C51.3897 84.3987 57.9838 86.8465 62.7462 92.7079C63.6953 93.8735 66.3762 92.4415 66.8758 91.7754C67.4919 90.9428 67.8249 89.3109 68.5576 87.8789C69.8897 85.2479 71.1552 81.2016 72.3209 80.5189C72.504 80.419 72.6372 80.2858 72.7372 80.1192L72.7205 80.0859Z" fill="#55608F"/>
</g>
<path d="M37.465 66.4317L39.2468 65.4492C39.2468 65.4492 38.3975 66.2485 42.8435 66.8646C47.2895 67.4807 47.4227 68.8795 47.4227 68.8795L49.7539 71.6769C49.7539 71.6769 42.8435 70.7611 39.9628 69.379C37.0654 67.9969 37.4817 66.8646 37.4817 66.8646V66.4483L37.465 66.4317Z" fill="#55608F"/>
<path d="M63.1265 85.6726C63.1265 85.6726 62.5937 83.9908 65.8241 85.8558C69.0545 87.7207 69.5541 89.7855 69.9038 91.8836C70.2534 93.9818 65.0581 95.9966 65.208 95.4138C65.4911 94.2315 66.7899 91.4174 65.6742 90.3017L63.1265 85.6892V85.6726Z" fill="#647ABE"/>
<path d="M70.1921 74.629C70.1921 74.629 69.9757 73.863 70.9581 71.665C71.9239 69.467 72.7232 66.5363 72.7232 66.5363C72.7232 66.5363 74.1719 65.8869 73.7722 67.9184C73.3726 69.9499 72.9563 72.5309 72.9563 72.5309L74.788 70.3828C74.788 70.3828 75.4541 67.8351 75.4541 66.8527C75.4541 65.8702 73.6176 67.8543 74.5501 67.4879C75.0496 67.2881 76.986 66.9859 76.986 66.9859L76.936 69.1672C76.936 69.1672 77.1858 69.2671 77.1858 69.7833C77.1858 70.2995 77.2857 70.8157 77.2857 70.8157C77.2857 70.8157 77.5855 71.4152 77.6521 71.7815C77.7853 72.4976 77.6854 73.0138 77.6854 73.0138C77.6854 73.0138 78.0684 74.2959 77.752 75.1785C77.3357 76.3441 77.1858 77.0268 75.2209 77.9926C73.256 78.9584 71.9406 79.5745 71.6242 79.5745C71.3078 79.5745 70.1921 74.6456 70.1921 74.6456V74.629Z" fill="#F9D7CB"/>
<path d="M73.1115 64.8449L78.3872 67.8964L72.5784 76.2508L67.3026 72.6614L73.1115 64.8449Z" fill="#B2D9EF"/>
<path d="M67.3032 72.7311L67.4464 72.5879L72.8246 76.3166L72.7267 76.4379L72.6273 76.5713L67.3032 72.7311Z" fill="#003B71" stroke="#014E94" stroke-width="0.143419"/>
<path d="M78.5124 68.3511L78.3696 67.9607L72.6 76.2809L72.7222 76.4348L78.5124 68.3511Z" fill="#003B71" stroke="#014E94" stroke-width="0.143419"/>
<mask id="mask0_7665_4459" style="mask-type:alpha" maskUnits="userSpaceOnUse" x="69" y="66" width="6" height="12">
<rect x="69.9531" y="66.0547" width="4.73283" height="11.7604" fill="#D9D9D9"/>
</mask>
<g mask="url(#mask0_7665_4459)">
<path d="M70.114 74.6192C70.114 74.6192 69.8975 73.8532 70.88 71.6552C71.8458 69.4572 72.0338 69.4857 72.0338 69.4857C72.0338 69.4857 73.9394 68.3147 73.5397 70.3462C73.1401 72.3777 74.2568 73.5015 74.2568 73.5015L74.8305 74.075C74.8305 74.075 75.3759 67.8254 75.3759 66.8429C75.3759 65.8605 74.3283 67.9159 75.2608 67.5496C75.7603 67.3498 76.9079 66.9761 76.9079 66.9761L76.8579 69.1575C76.8579 69.1575 77.1077 69.2574 77.1077 69.7736C77.1077 70.2898 77.2076 70.806 77.2076 70.806C77.2076 70.806 77.5073 71.4055 77.5739 71.7718C77.7072 72.4878 77.6072 73.004 77.6072 73.004C77.6072 73.004 77.9902 74.2862 77.6739 75.1687C77.2576 76.3343 77.1077 77.0171 75.1428 77.9829C73.1779 78.9486 71.8624 79.5648 71.546 79.5648C71.2297 79.5648 70.114 74.6359 70.114 74.6359V74.6192Z" fill="#F9D7CB"/>
</g>
<path style="mix-blend-mode:multiply" d="M96.6074 21.9453C96.6074 21.9453 93.3937 30.0047 89.4139 34.8503C85.4175 39.696 85.2344 41.2612 85.2344 41.2612C85.2344 41.2612 95.1255 29.9714 96.3077 26.741C97.49 23.5106 96.6074 21.9453 96.6074 21.9453Z" fill="url(#paint0_linear_7665_4459)"/>
<path style="mix-blend-mode:multiply" d="M88.6835 19.4297C88.6835 19.4297 84.0044 27.4558 84.071 33.9333C84.1376 40.4108 85.2533 41.26 85.2533 41.26C85.2533 41.26 84.6372 28.5881 86.4855 26.4234C88.3172 24.2587 88.6835 19.4297 88.6835 19.4297Z" fill="url(#paint1_linear_7665_4459)"/>
<path d="M96.9043 20.8594C96.9043 20.8594 93.6906 28.9188 89.7108 33.7644C85.7144 38.61 85.5312 40.1753 85.5312 40.1753C85.5312 40.1753 95.4223 28.8855 96.6046 25.655C97.7869 22.4246 96.9043 20.8594 96.9043 20.8594Z" fill="#4D78CE"/>
<path d="M88.957 18.3438C88.957 18.3438 84.2778 26.3698 84.3445 32.8473C84.4111 39.3248 85.5267 40.1741 85.5267 40.1741C85.5267 40.1741 84.9106 27.5022 86.759 25.3374C88.5906 23.1727 88.957 18.3438 88.957 18.3438Z" fill="#4D78CE"/>
<path style="mix-blend-mode:multiply" d="M89.1121 53.6989L83.2841 50.3352L82.3516 48.7533L88.1796 41.4766L89.1121 43.0585V53.6989Z" fill="url(#paint2_linear_7665_4459)"/>
<path d="M88.1796 52.1251L82.3516 48.7615V38.1211L88.1796 41.4847V52.1251Z" fill="#E3652A"/>
<path d="M87.5391 44.97L82.9766 42.339V39.6914L87.5391 42.3224V44.97Z" fill="#FEFEFE"/>
<path d="M87.5391 45.517L82.9766 42.886V41.8203L87.5391 44.4513V45.517Z" fill="#FEFEFE"/>
<path d="M87.5313 47.6331L82.9688 45.0022V43.9531L87.5313 46.5841V47.6331Z" fill="#FEFEFE"/>
<path d="M87.5391 49.7659L82.9766 47.135V46.0859L87.5391 48.7169V49.7659Z" fill="#FEFEFE"/>
<path fill-rule="evenodd" clip-rule="evenodd" d="M71.0949 61.1391C78.7592 60.2252 84.7017 53.7027 84.7017 45.7923C84.7017 37.256 77.7817 30.3359 69.2454 30.3359C60.7091 30.3359 53.7891 37.256 53.7891 45.7923C53.7891 53.7022 59.7307 60.2243 67.3944 61.1389L68.5754 63.1845C68.8728 63.6997 69.6165 63.6997 69.9139 63.1845L71.0949 61.1391Z" fill="#FFB22D"/>
<rect x="61.0234" y="37.9648" width="16" height="16" rx="3.5" fill="white"/>
<path d="M64.625 42.861C64.625 43.0337 64.7652 43.174 64.938 43.174H65.5641C65.7369 43.174 65.8771 43.0337 65.8771 42.861V42.2349C65.8771 42.0621 65.7369 41.9219 65.5641 41.9219H64.938C64.7652 41.9219 64.625 42.0621 64.625 42.2349V42.861Z" fill="#555555"/>
<path d="M63.688 40.6641C63.5152 40.6641 63.375 40.8043 63.375 40.9771V44.1074C63.375 44.2802 63.5152 44.4204 63.688 44.4204H66.8183C66.9911 44.4204 67.1313 44.2802 67.1313 44.1074V40.9771C67.1313 40.8043 66.9911 40.6641 66.8183 40.6641H63.688ZM64.0011 41.2901H66.5053V43.7943H64.0011V41.2901Z" fill="#555555"/>
<path d="M65.8771 49.7388C65.8771 49.566 65.7369 49.4258 65.5641 49.4258H64.938C64.7652 49.4258 64.625 49.566 64.625 49.7388V50.3649C64.625 50.5377 64.7652 50.6779 64.938 50.6779H65.5641C65.7369 50.6779 65.8771 50.5377 65.8771 50.3649V49.7388Z" fill="#555555"/>
<path d="M67.1313 48.4771C67.1313 48.3043 66.9911 48.1641 66.8183 48.1641H63.688C63.5152 48.1641 63.375 48.3043 63.375 48.4771V51.6074C63.375 51.7802 63.5152 51.9204 63.688 51.9204H66.8183C66.9911 51.9204 67.1313 51.7802 67.1313 51.6074V48.4771ZM66.5053 51.2943H64.0011V48.7901H66.5053V51.2943Z" fill="#555555"/>
<path d="M72.1406 42.861C72.1406 43.0337 72.2809 43.174 72.4537 43.174H73.0797C73.2525 43.174 73.3927 43.0337 73.3927 42.861V42.2349C73.3927 42.0621 73.2525 41.9219 73.0797 41.9219H72.4537C72.2809 41.9219 72.1406 42.0621 72.1406 42.2349V42.861Z" fill="#555555"/>
<path d="M70.8828 44.1074C70.8828 44.2802 71.023 44.4204 71.1958 44.4204H74.3261C74.4989 44.4204 74.6391 44.2802 74.6391 44.1074V40.9771C74.6391 40.8043 74.4989 40.6641 74.3261 40.6641H71.1958C71.023 40.6641 70.8828 40.8043 70.8828 40.9771V44.1074ZM71.5089 41.2901H74.0131V43.7943H71.5089V41.2901Z" fill="#555555"/>
<path d="M65.5606 47.5476C65.6288 47.5476 68.1575 47.5476 68.0648 47.5476C68.4793 47.5476 68.4786 46.9216 68.0648 46.9216H67.1257V45.9825C67.1257 45.568 66.4997 45.5687 66.4997 45.9825V46.9216H65.5606C65.1462 46.9216 65.1468 47.5476 65.5606 47.5476Z" fill="#555555"/>
<path d="M68.3839 41.6046V40.9786C68.3839 40.5641 67.7578 40.5647 67.7578 40.9786V41.6046C67.7578 42.0191 68.3839 42.0184 68.3839 41.6046Z" fill="#555555"/>
<path d="M68.0606 43.1711H69.3127C69.4855 43.1711 69.6257 43.0309 69.6257 42.8581V41.919H69.9388C70.3532 41.919 70.3526 41.293 69.9388 41.293H69.3127C69.1399 41.293 68.9997 41.4332 68.9997 41.606V42.5451H68.0606C67.6462 42.5451 67.6468 43.1711 68.0606 43.1711Z" fill="#555555"/>
<path d="M68.0606 46.2894H69.3127C69.7272 46.2894 69.7265 45.6633 69.3127 45.6633H68.9997V44.4112H69.9388C70.3532 44.4112 70.3526 43.7852 69.9388 43.7852H68.6867C68.5139 43.7852 68.3736 43.9254 68.3736 44.0982V45.6633H68.0606C67.6462 45.6633 67.6468 46.2894 68.0606 46.2894Z" fill="#555555"/>
<path d="M70.2656 45.9796C70.2656 46.3941 70.8917 46.3934 70.8917 45.9796V45.3536C70.8917 44.9391 70.2656 44.9397 70.2656 45.3536V45.9796Z" fill="#555555"/>
<path d="M68.3761 49.4304H69.0021V49.7435C69.0021 50.1579 69.6282 50.1573 69.6282 49.7435V47.8653C69.6282 47.4508 69.0021 47.4515 69.0021 47.8653V48.8044H68.063C67.8902 48.8044 67.75 48.9446 67.75 49.1174V49.7435C67.75 50.1579 68.3761 50.1573 68.3761 49.7435V49.4304Z" fill="#555555"/>
<path d="M70.8924 49.7364V50.0494H70.5794C70.4066 50.0494 70.2664 50.1896 70.2664 50.3624V51.3015H68.7012C68.2868 51.3015 68.2874 51.9276 68.7012 51.9276H70.5794C70.7522 51.9276 70.8924 51.7873 70.8924 51.6145V50.6755H71.2054C71.3782 50.6755 71.5185 50.5352 71.5185 50.3624V49.7364C71.5185 49.3219 70.8924 49.3226 70.8924 49.7364Z" fill="#555555"/>
<path d="M72.7643 50.3653V51.3044H72.4512C72.0368 51.3044 72.0374 51.9304 72.4512 51.9304H74.3294C74.7438 51.9304 74.7432 51.3044 74.3294 51.3044H73.3903V50.3653C73.3903 49.9508 72.7643 49.9515 72.7643 50.3653Z" fill="#555555"/>
<path d="M74.6424 48.4771C74.6424 48.3043 74.5022 48.1641 74.3294 48.1641H72.4512C72.0368 48.1641 72.0374 48.7901 72.4512 48.7901H74.0164V49.7305C74.0164 50.1449 74.6424 50.1443 74.6424 49.7305V48.4771Z" fill="#555555"/>
<path d="M74.6403 45.9825C74.6403 45.568 74.0143 45.5687 74.0143 45.9825V46.9216H73.7012C73.2868 46.9216 73.2874 47.5476 73.7012 47.5476H74.3273C74.5001 47.5476 74.6403 47.4074 74.6403 47.2346V45.9825Z" fill="#555555"/>
<path d="M72.7674 47.2342V45.669H73.0804C73.4949 45.669 73.4943 45.043 73.0804 45.043H72.4544C72.2816 45.043 72.1414 45.1832 72.1414 45.356V46.9211H71.2023C71.0295 46.9211 70.8893 47.0614 70.8893 47.2342V48.1732H70.5762C70.1618 48.1732 70.1624 48.7993 70.5762 48.7993H71.2023C71.3751 48.7993 71.5153 48.6591 71.5153 48.4863V47.5472H72.4544C72.6272 47.5472 72.7674 47.407 72.7674 47.2342Z" fill="#555555"/>
<path d="M63.375 45.3536C63.375 45.4469 63.375 47.3225 63.375 47.2317C63.375 47.6462 64.0011 47.6456 64.0011 47.2317V46.2927H64.9401C65.3546 46.2927 65.354 45.6666 64.9401 45.6666H64.0011V45.3536C64.0011 44.9391 63.375 44.9397 63.375 45.3536Z" fill="#555555"/>
<defs>
<linearGradient id="paint0_linear_7665_4459" x1="91.7951" y1="32.3526" x2="92.661" y2="33.1019" gradientUnits="userSpaceOnUse">
<stop stop-color="#D3D2D2"/>
<stop offset="1" stop-color="white"/>
</linearGradient>
<linearGradient id="paint1_linear_7665_4459" x1="90.715" y1="33.6002" x2="91.5809" y2="34.3496" gradientUnits="userSpaceOnUse">
<stop stop-color="#D3D2D2"/>
<stop offset="1" stop-color="white"/>
</linearGradient>
<linearGradient id="paint2_linear_7665_4459" x1="85.6819" y1="45.756" x2="88.2795" y2="53.882" gradientUnits="userSpaceOnUse">
<stop stop-color="#AAA8A8"/>
<stop offset="1" stop-color="white"/>
</linearGradient>
</defs>
</svg>
