<svg width="160" height="161" viewBox="0 0 160 161" fill="none" xmlns="http://www.w3.org/2000/svg">
<ellipse cx="73.5078" cy="136.434" rx="31.5" ry="18.1132" fill="#BDEAFF"/>
<path d="M67.0229 135.556C67.0078 135.896 66.8563 136.233 66.5762 136.473C66.2137 136.784 65.7063 136.865 65.264 136.685L55.1328 132.584C53.9071 132.09 53.1268 130.875 53.1853 129.554L54.1761 127.431L56.617 122.195L60.4835 122.15L65.0385 122.101L60.5716 128.414L60.5499 128.446L66.7014 134.646C66.9335 134.906 67.0407 135.235 67.0266 135.556L67.0229 135.556Z" fill="#3F2001"/>
<path d="M81.8154 145.559C81.3305 145.672 80.7517 148.033 80.2869 147.944L81.3115 151.354L87.0319 147.034L85.547 145.392C84.2298 146.799 83.6168 145.139 81.8154 145.559Z" fill="#643750"/>
<path d="M84.5041 98.253L87.7578 61.7343L77.6509 51.2086L77.0451 51.3866C77.163 53.3499 77.283 55.3078 77.3157 57.2802C77.3862 61.2733 76.8316 65.2129 76.3117 69.1614C75.9751 71.721 75.6427 74.4339 75.1492 77.1194L75.2597 77.0819L75.1663 77.8159L72.5676 97.7467C72.5676 97.7467 70.9878 100.126 68.7734 103.455C63.5597 111.294 54.8166 124.448 54.8108 124.453C54.2611 125.281 54.5796 126.008 55.2954 126.597C55.6617 126.91 56.141 127.173 56.6571 127.395C57.7722 127.886 59.0719 128.167 59.9211 128.204C60.0592 128.21 60.181 128.21 60.2902 128.202C60.405 128.194 60.4963 128.174 60.5766 128.154C61.4159 127.912 62.1238 127.346 62.7542 126.739C64.2492 125.318 65.4842 123.643 66.7075 121.981C67.7304 120.594 69.7005 118.155 72.0001 115.361C74.7283 112.055 77.9305 108.254 80.5911 105.102C80.6474 105.038 80.6998 104.979 80.7503 104.923C83.8369 101.276 83.7387 100.493 83.7387 100.493C83.9626 99.8531 84.2253 99.0896 84.5041 98.253Z" fill="#55608F"/>
<path d="M81.1379 149.748C82.41 148.278 83.8269 146.995 85.6096 146.037C85.8213 145.925 86.0356 145.836 86.253 145.761C86.2116 145.32 86.1658 144.897 86.1396 144.529C85.7404 139.082 84.8531 127.275 83.747 121.913C81.8434 112.679 80.6366 103.339 79.2753 94.0272C78.5006 88.724 79.2678 74.3114 71.916 73.7958C68.7056 73.5707 65.9408 58.8614 63.5062 60.8704C59.5489 64.1352 61.6067 83.558 62.8956 87.3762C64.9432 93.4425 66.8858 99.543 68.7371 105.665C72.4399 117.904 74.0333 125.309 76.9693 137.735C77.4355 139.711 79.4538 148.105 81.1379 149.75L81.1379 149.748Z" fill="#647ABE"/>
<path d="M81.7472 148.837L81.3546 151.159C84.2777 152.457 92.0164 149.611 93.6945 149.347C94.2592 148.724 94.2258 147.977 93.859 147.258L85.5612 144.1C85.4649 144.065 85.2531 144.138 84.9792 144.281C83.2413 145.186 82.0709 146.904 81.7454 148.837L81.7472 148.837Z" fill="#3F2001"/>
<path d="M104.691 44.8799C105.09 44.0523 106.566 41.4638 107.67 41.4665C109.227 41.469 109.221 43.4416 108.323 44.308C108.088 43.9414 106.818 45.6993 106.558 45.3058C105.894 46.3043 105.992 45.8454 104.441 45.6015C104.334 44.5651 104.811 43.8369 105.774 43.6433L104.691 44.8799Z" fill="#F9D7CB"/>
<path d="M91.5275 53.5301C91.788 53.6911 92.0607 53.825 92.3494 53.9337C94.1812 54.6183 95.9204 51.1815 96.1488 49.9846C96.5932 47.6568 95.7803 45.6775 95.076 43.4945C94.0193 40.2236 93.1743 36.8846 91.9959 33.6545C91.2555 31.6212 90.5405 27.8856 88.8861 26.4467C87.5196 25.2567 85.3709 24.8515 83.6948 25.5691C81.4919 26.5142 80.4783 29.066 81.4235 31.2689C83.2577 35.5246 84.5419 39.9904 86.2973 44.2777C87.4381 47.0651 88.6454 51.7674 91.5293 53.532L91.5275 53.5301Z" fill="#B1BFDD"/>
<path d="M105.633 44.0137C105.635 43.9769 105.64 43.9439 105.642 43.907L104.831 44.1258L100.894 45.1862L95.5931 46.6161L95.5735 46.5174C93.4273 48.0151 90.6557 51.3841 91.6363 53.8303C91.7797 53.8847 91.9319 53.9486 92.0756 53.9956C96.3862 55.3398 101.781 51.6146 105.389 49.7036C105.646 49.5692 105.896 49.4253 106.145 49.2905C106.312 49.1982 106.471 49.1093 106.636 49.0169C105.971 47.3948 105.584 45.7998 105.634 44.01L105.633 44.0137Z" fill="#B1BFDD"/>
<path d="M109.657 47.2756C108.656 47.8735 107.455 48.5659 106.148 49.2887C105.138 48.253 104.55 46.8705 104.616 45.3638C104.635 44.9346 104.711 44.5154 104.834 44.1222L110.983 42.4622C111.882 44.1666 111.308 46.2765 109.657 47.2756Z" fill="#F9D7CB"/>
<path d="M112.687 42.183C112.516 42.0463 112.356 41.9063 112.205 41.7557C112.124 41.6728 112.002 41.6489 111.896 41.6996L105.831 44.6404L100.077 50.4647C99.9475 50.5955 99.9621 50.8066 100.101 50.9235C100.378 51.1572 100.683 51.3589 101.008 51.532L101.439 51.6674L105.131 48.6898L106.845 47.2727L109.906 44.9204L112.74 42.9273C112.975 42.7623 112.984 42.4177 112.76 42.2398C112.733 42.2183 112.708 42.1987 112.685 42.1793L112.687 42.183Z" fill="#014E94"/>
<path d="M113.227 42.6349C113.19 42.5926 113.137 42.5441 113.077 42.4935L107.338 45.2752L101.105 51.584C101.105 51.584 101.119 51.5921 101.125 51.5941L108.352 47.9094L113.303 42.7286C113.278 42.6962 113.254 42.6656 113.227 42.6349Z" fill="#B2D9EF"/>
<path d="M112.856 44.0503C112.96 43.5751 112.977 43.264 112.825 43.3292C111.659 43.8331 111.355 45.3569 110.18 45.8401C109.028 46.3114 107.792 45.5794 106.919 46.8399C106.154 47.9447 106.677 48.636 107.738 49.1812C109.497 50.0859 110.857 48.6402 111.78 47.3024C111.914 47.1072 112.616 45.1451 112.856 44.0503Z" fill="#F9D7CB"/>
<path d="M82.0213 28.4288C81.8898 33.2342 81.7606 43.281 82.7604 48.9171C83.0336 50.4591 84.3412 51.6464 85.9069 51.6715C87.0559 51.6891 89.068 51.4682 89.7473 49.2135C91.0109 45.0156 91.1135 36.4035 90.8148 30.4791C90.6737 27.664 88.2915 25.4879 85.4761 25.5939L84.8032 25.6195C83.28 25.6775 82.0648 26.9045 82.0213 28.4288Z" fill="#B1BFDD"/>
<path d="M73.4641 81.2618L74.1498 80.9471C78.3223 79.0335 81.8576 75.964 84.3391 72.1024L79.5011 63.1202L65.9121 67.5937L62.2359 72.3455L62.156 82.3206L73.4623 81.2599L73.4641 81.2618Z" fill="#647ABE"/>
<path d="M90.1243 30.0323L88.5102 66.4907C88.4212 68.5002 87.3581 70.3374 85.6612 71.3991C82.2277 73.5447 75.938 76.7598 69.0924 76.7317C67.7936 76.7222 66.6762 76.658 65.7143 76.5416C59.0885 75.761 59.9363 72.7849 59.9363 72.7849L61.5016 37.4279C61.6097 34.9874 62.6523 32.6953 64.3754 31.0424C64.8593 30.5766 65.3962 30.1611 65.9896 29.8054C68.1272 28.503 71.1842 27.3151 75.4317 26.9587C75.4317 26.9587 80.6932 23.6667 85.3838 24.8488C90.0748 26.0235 90.1244 30.0286 90.1244 30.0286L90.1243 30.0323Z" fill="#DADEF0"/>
<path d="M65.7076 76.5421C59.0818 75.7615 59.9296 72.7854 59.9296 72.7854L61.4949 37.4284C61.603 34.9879 62.6456 32.6958 64.3687 31.0429C65.9324 32.6143 67.1007 35.3623 67.2928 39.2778C67.907 51.6255 67.0811 64.2343 65.7076 76.5421Z" fill="#B1BFDD"/>
<path d="M59.4407 57.6531L59.4922 57.5742C59.2531 58.7651 59.156 58.9158 59.1223 58.7593L59.4389 57.6531L59.4407 57.6531Z" fill="#DADEF0"/>
<path d="M64.624 49.5915L59.4943 57.5751C59.5152 57.4782 59.5368 57.3666 59.5569 57.2456L59.441 57.6539L59.1101 58.1671C59.1009 58.2073 59.0827 58.6199 59.1245 58.7601L54.6619 74.2696L52.9905 80.092C52.611 81.3264 51.0878 80.8844 49.9133 80.443C48.9548 80.0831 48.3667 79.0679 48.5188 78.0098C48.6952 76.7755 48.8378 75.5546 48.9576 74.3511C49.8894 65.2239 49.7425 56.7871 53.8676 48.1907C54.055 47.793 61.3016 34.1785 61.3016 34.1785C62.4565 31.7695 66.6415 28.9485 69.0063 30.1826L71.3284 33.8823C71.5255 34.1826 71.7564 34.4697 72.0458 34.7261C72.2554 37.8709 65.5828 48.6522 64.622 49.5933L64.624 49.5915Z" fill="#DADEF0"/>
<path d="M81.0638 31.5943C80.6738 30.9403 80.0421 30.7019 79.4918 31.0024C79.0756 31.2313 78.7218 31.7619 78.5309 32.4067C78.5866 32.566 78.6422 32.7254 78.6998 32.8848C79.0504 33.1365 79.1831 33.9729 79.4081 34.6435C79.4969 34.7637 79.5744 34.9296 79.6473 35.0343C79.748 35.179 79.8375 35.3251 79.9194 35.4745C80.1064 35.5861 80.3426 35.5874 80.6606 35.4077C81.4551 34.2599 81.2605 32.8616 81.0639 31.5924L81.0638 31.5943Z" fill="#DA6566"/>
<path d="M82.4301 55.163C82.4526 54.1139 82.2806 53.0801 82.288 52.0378C82.2946 51.012 82.3021 50.1338 82.2013 49.118C82.0957 48.043 81.9157 46.9812 81.7544 45.9148C81.451 43.8897 81.3038 41.7959 81.1693 39.747C81.1063 38.7938 81.023 37.884 81.0361 36.9212C81.0397 36.5892 81.0456 36.2462 81.0386 35.9044C80.9627 35.6187 80.8887 35.3312 80.8165 35.0438C80.6879 34.5306 80.5667 34.0177 80.4565 33.5054C80.2681 33.3826 79.9898 33.4164 79.8587 33.6265C79.1456 34.7687 79.0165 35.8075 79.1151 37.1241C79.5339 42.7142 79.8991 48.2631 79.9757 53.8695C80.0207 56.1876 79.3624 59.5505 81.5334 60.9956C82.8801 59.422 82.3863 57.0711 82.43 55.1648L82.4301 55.163Z" fill="#DA6566"/>
<path d="M54.6628 74.2669L52.9914 80.0893C52.6119 81.3237 51.0887 80.8817 49.9142 80.4403C48.9557 80.0804 48.3676 79.0652 48.5196 78.007C48.6961 76.7728 49.0571 73.0794 49.175 71.8739C49.6676 72.2944 50.8098 73.8416 51.5226 73.8732C52.4877 73.9159 53.2613 74.7419 54.6628 74.2669Z" fill="#F9D7CB"/>
<path d="M46.309 79.0561C46.7217 78.9452 47.3192 79.5401 47.9427 80.7968C47.9444 80.8006 54.9987 95.039 54.9987 95.039C55.3374 95.7239 55.6437 96.5182 55.895 97.345C56.4223 99.0662 56.7206 100.916 56.6183 102.142L55.6362 113.404C55.576 114.138 55.3812 114.537 55.1029 114.611L49.9221 115.997C47.718 116.593 44.6621 104.499 44.1143 102.284L41.3036 86.8606C40.6415 84.183 39.3463 80.4236 42.0098 79.7037L46.3089 79.058L46.309 79.0561Z" fill="#6D6D6D"/>
<path d="M42.2364 81.6708C41.1912 79.5594 40.1225 79.979 39.9721 81.792L38.99 93.0541C38.8395 94.8689 39.5676 98.0588 40.6146 100.17L47.669 114.407C48.7142 116.518 49.6838 116.751 49.8325 114.936L50.8146 103.674C50.9651 101.859 50.2401 98.6845 49.193 96.573L42.2365 81.6689L42.2364 81.6708Z" fill="#858585"/>
<path d="M47.8789 84.7311C47.7132 83.2384 48.446 81.932 49.5157 81.8132C50.5854 81.6945 51.5869 82.8083 51.7527 84.3011C51.9184 85.7938 51.1856 87.1002 50.1159 87.2189C49.0461 87.3377 48.0446 86.2239 47.8789 84.7311Z" fill="#F9D7CB"/>
<path d="M52.1322 89.5492C52.2923 87.3509 51.581 84.7837 50.2751 82.8509L49.7071 82.0082C48.8707 80.766 47.7092 80.1979 46.6779 80.5232C45.7422 80.8158 45.1523 81.7179 45.0588 82.9964L44.9353 84.7017C44.906 85.1138 45.2177 85.4524 45.6327 85.456C46.0478 85.4597 46.4076 85.1286 46.4387 84.7166L46.5641 83.0114C46.6062 82.4356 46.7921 82.0286 47.0504 81.9478C47.3535 81.8541 47.9348 82.1456 48.4425 82.8934L49.0105 83.7361C50.1483 85.4234 50.7697 87.6452 50.6324 89.5363L50.4055 92.66C50.3762 93.072 50.6879 93.4107 51.103 93.4143C51.518 93.4179 51.8797 93.0869 51.9091 92.673L52.1359 89.5494L52.1322 89.5492Z" fill="#A1A1A1"/>
<path d="M48.9545 87.2079C49.252 87.1159 49.5723 87.0507 49.9097 87.0177C49.644 86.6829 49.3598 86.3492 49.341 86.2303C49.2789 85.8418 49.2739 85.4541 49.4047 85.0852C49.4954 84.829 49.9954 84.6223 50.4592 84.4841C50.8314 84.3733 51.2113 84.6282 51.2588 85.0141L52.0231 86.5096L53.206 84.2606C53.6183 83.4927 52.9854 80.0726 52.7513 79.2318L52.7573 79.0973L51.3177 78.3083C50.8488 77.8096 50.1956 77.5168 49.2762 77.5646C48.8952 77.5847 48.9249 77.2889 48.4941 77.5559L46.147 82.8832C45.8387 83.6779 45.9869 84.5814 46.5491 85.2227C47.236 86.0061 48.0973 86.6864 48.9545 87.2079Z" fill="#F9D7CB"/>
<path d="M74.5243 25.7567C75.1363 24.8961 76.2136 24.2813 76.2156 24.2795C76.4367 24.2025 76.6519 24.1364 76.865 24.0757C77.3021 23.7481 77.8087 23.5602 78.3779 23.5853C81.6196 23.7289 83.3302 27.2335 83.978 30.0692C84.1821 30.9604 83.4534 31.7882 82.5689 31.6752L80.6915 31.4352L78.4827 33.015C77.4345 33.764 75.9915 33.51 75.2678 32.4316C74.6912 31.5737 74.1464 30.4165 74.0078 29.0022C73.8742 27.6435 74.0776 26.3828 74.5262 25.7549L74.5243 25.7567Z" fill="white"/>
<path d="M76.7269 20.6158C77.9097 20.9542 79.0681 21.4669 80.0611 22.0885C80.7022 22.4896 81.2975 22.8833 81.9004 23.2292C81.7381 24.979 81.6928 29.5446 81.5465 29.7226C80.8212 30.5985 80.3278 30.7372 79.7464 30.8241C77.9313 31.0944 74.7902 28.4694 75.4508 24.97C75.4607 24.9133 76.1907 22.4302 76.7288 20.614L76.7269 20.6158Z" fill="#F4C5B5"/>
<path d="M75.6276 13.0981C75.9884 12.9517 76.375 12.8488 76.6507 12.5824C76.8493 12.39 76.9697 12.1314 77.1523 11.9236C77.737 11.2648 78.7055 11.315 79.5046 11.2323C80.3482 11.1442 81.4122 10.6634 82.1946 10.3308C83.1594 9.92324 84.0466 9.14312 85.1516 9.19573C85.8182 9.22709 86.4479 9.59454 86.8659 10.115C87.284 10.6355 87.5018 11.3003 87.5554 11.9671C87.6662 13.3819 86.9536 15.0962 85.6864 15.8318C84.2695 16.655 82.9032 17.6279 81.4588 18.448C80.7477 18.8779 79.9809 19.2315 79.2124 19.5407C78.4176 19.8617 78.2579 20.2994 77.8306 21.0722C77.7284 21.2559 77.607 21.4554 77.4053 21.5092C77.2558 21.5506 77.0975 21.4993 76.9524 21.4412C75.0159 20.6634 73.8751 18.5016 73.8567 16.4154C73.8463 15.1508 74.3015 13.7462 75.4355 13.1856C75.4997 13.1533 75.5637 13.1248 75.6313 13.0983L75.6276 13.0981Z" fill="#643750"/>
<path d="M85.2738 14.4536L83.7128 14.4897C82.4176 15.8146 80.3663 16.462 78.3703 16.4013L78.2416 19.3078C78.2281 19.6136 77.95 19.8504 77.6222 19.8359C77.4914 19.8301 77.3716 19.7842 77.277 19.7117L76.9403 21.773C76.9403 21.773 79.6661 27.1921 83.0683 25.8368C85.441 24.8918 86.1246 22.2073 85.2757 14.4537L85.2738 14.4536Z" fill="#F9D7CB"/>
<path d="M77.3358 15.9574C77.5219 15.6722 77.9151 15.6268 78.2562 15.6345C78.7743 15.6464 79.2917 15.7136 79.7938 15.8373L79.7468 16.0641C79.8391 15.939 79.9243 15.808 79.9896 15.6651C80.2265 15.1515 80.3272 14.5857 80.593 14.0844C81.1204 13.0927 82.2173 12.4935 83.3097 12.0805C83.9291 11.8459 84.5947 11.652 85.257 11.7404C85.9193 11.8288 86.5713 12.2748 86.6747 12.8994C86.8172 13.7657 85.9348 14.439 85.1555 14.9083C84.1734 15.4979 83.1784 16.0868 82.0875 16.4685C81.3695 16.7191 80.5191 16.9195 79.7294 16.8735C79.6979 17.71 79.578 18.5444 79.1176 19.229C78.8213 19.6698 78.2585 20.0435 77.7796 19.8138C77.3098 19.5881 77.2416 18.9595 77.2371 18.437C77.2314 17.8148 77.2277 17.1909 77.222 16.5687C77.2203 16.3564 77.2229 16.1314 77.3378 15.9537L77.3358 15.9574Z" fill="#643750"/>
<path d="M75.7094 18.6401C75.7146 18.5222 75.7605 18.4431 75.8286 18.4073L75.8909 18.375C75.9003 18.3699 75.9116 18.3649 75.921 18.3616C75.9304 18.3583 75.9378 18.3568 75.9471 18.3554C75.9545 18.3557 75.9619 18.3542 75.9694 18.3527C75.9749 18.3529 75.9823 18.3532 75.9878 18.3535C75.9933 18.3537 75.9989 18.354 76.0044 18.3542C76.0044 18.3542 76.0062 18.3543 76.0081 18.3544C76.0118 18.3545 76.0154 18.3547 76.0191 18.3549C76.0246 18.3551 76.0302 18.3554 76.0356 18.3574C76.0411 18.3577 76.0447 18.3597 76.0502 18.3618C76.0557 18.362 76.0593 18.364 76.0648 18.3661C76.0703 18.3664 76.0738 18.3702 76.0793 18.3723C76.0848 18.3725 76.0883 18.3764 76.0937 18.3785C76.0992 18.3806 76.1028 18.3826 76.1082 18.3846C76.1137 18.3867 76.1173 18.3887 76.1226 18.3927C76.1281 18.3948 76.1316 18.3986 76.1371 18.4007C76.1407 18.4027 76.1443 18.4047 76.1478 18.4085C76.1478 18.4085 76.1496 18.4086 76.1514 18.4105C76.1567 18.4145 76.1622 18.4166 76.1657 18.4204C76.1711 18.4243 76.1764 18.4283 76.1818 18.4322C76.1872 18.4361 76.1925 18.4401 76.1979 18.444L79.7555 20.8733L79.7553 20.877C79.7553 20.877 79.7591 20.8753 79.761 20.8735C79.7649 20.87 79.7706 20.8666 79.7744 20.8631C79.7801 20.8596 79.7877 20.8544 79.7934 20.851C79.8029 20.844 79.8142 20.839 79.8238 20.832C79.8427 20.8218 79.8635 20.8098 79.8862 20.7979C79.8956 20.7928 79.9051 20.7876 79.9164 20.7826C79.9391 20.7707 79.9617 20.7588 79.9844 20.7469C80.0089 20.735 80.0316 20.7231 80.0562 20.7094C80.1242 20.6737 80.1922 20.638 80.2512 20.5981C80.3101 20.5601 80.369 20.5221 80.4278 20.486C80.534 20.4206 80.6384 20.3569 80.7444 20.297C80.8542 20.2336 80.9621 20.1738 81.0679 20.1175C81.0925 20.1039 81.1189 20.0903 81.1434 20.0784C81.2284 20.0342 81.3152 19.9919 81.3983 19.9495C81.453 19.9224 81.5076 19.8989 81.5604 19.8736C81.5962 19.8567 81.6338 19.8399 81.6696 19.8231C81.6903 19.8147 81.7111 19.8027 81.7318 19.7944C81.8448 19.7441 81.9556 19.6992 82.0628 19.6559C82.0684 19.6543 82.0721 19.6526 82.0759 19.651C82.0947 19.6426 82.1134 19.6379 82.1322 19.6295C82.2167 19.5963 82.3012 19.565 82.3817 19.5372C82.4099 19.5273 82.4341 19.521 82.4604 19.5111C82.4979 19.498 82.5335 19.4867 82.5709 19.4754C82.6064 19.4641 82.6458 19.451 82.6795 19.4396C82.7525 19.417 82.8234 19.398 82.8907 19.3788C82.9001 19.3756 82.9094 19.3741 82.9168 19.3726C82.9205 19.3728 82.9243 19.3711 82.9262 19.3693C82.9897 19.3537 83.0549 19.3381 83.1241 19.319C83.1315 19.3175 83.1409 19.3142 83.1483 19.3127C83.2381 19.2853 83.3375 19.251 83.449 19.1913C83.4792 19.176 83.5095 19.1589 83.5398 19.14C83.5718 19.1266 83.602 19.1114 83.6304 19.096C83.7418 19.0382 83.8407 18.9724 83.9323 18.9045C83.9456 18.8959 83.9571 18.8853 83.9686 18.8766C84.0392 18.8244 84.1043 18.7719 84.1692 18.7212C84.1712 18.7195 84.175 18.7159 84.1788 18.7143C84.1864 18.7091 84.1941 18.702 84.2017 18.6968C84.2915 18.6288 84.385 18.5591 84.4822 18.4878C84.5013 18.4739 84.5241 18.4601 84.5431 18.4462C84.5889 18.4132 84.6346 18.382 84.6822 18.349C84.7335 18.3144 84.7813 18.2777 84.8345 18.2432C84.8688 18.2188 84.9067 18.1965 84.9428 18.1723C84.9903 18.1412 85.0397 18.1101 85.0891 18.0773C85.1252 18.0549 85.1594 18.0324 85.1955 18.0082C85.262 17.9668 85.3321 17.9256 85.4003 17.8862C85.4363 17.8638 85.4724 17.8414 85.5102 17.8209C85.5235 17.8123 85.5367 17.8055 85.55 17.7969C85.6618 17.7317 85.7753 17.6684 85.8906 17.6071C85.917 17.5935 85.9416 17.5798 85.9681 17.5662C86.0493 17.5237 86.1324 17.4812 86.2153 17.4424C86.3171 17.3934 86.4189 17.3463 86.5206 17.3009C86.6165 17.2591 86.7124 17.219 86.8082 17.1808C86.8233 17.1741 86.8383 17.1692 86.8533 17.1625C86.8589 17.1609 86.8666 17.1557 86.8722 17.1541L85.5014 16.143L85.4884 15.6441L87.3622 16.923L87.3641 16.923C87.3641 16.923 87.3641 16.923 87.3659 16.9231L87.3696 16.9233C87.3696 16.9233 87.3733 16.9235 87.3751 16.9235C87.3751 16.9235 87.3788 16.9237 87.3806 16.9238C87.3825 16.9239 87.3843 16.9239 87.3861 16.9259L87.5063 17.0032C87.4955 16.9971 87.4827 16.9947 87.4677 16.9996C87.6041 16.9614 87.5339 17.4233 87.5192 17.4614C87.4762 17.5573 87.263 17.7878 87.1718 18.1399C87.1184 18.3461 87.0283 19.2538 86.543 19.7528C85.9106 20.4058 85.2556 20.6536 84.7663 20.7002C84.6348 20.711 84.5257 20.6748 84.4324 20.6134C84.4324 20.6134 84.4342 20.6154 84.436 20.6173L84.3157 20.54C84.2494 20.4965 84.1929 20.4386 84.1422 20.3754C84.1265 20.3544 84.1126 20.3335 84.0988 20.3126C84.0814 20.2879 84.0622 20.2649 84.0467 20.2383C84.033 20.2137 84.023 20.1912 84.0111 20.1666C84.001 20.1459 83.9907 20.127 83.9806 20.1062C83.9756 20.0949 83.9669 20.0816 83.9619 20.0703C83.9435 20.0271 83.9304 19.9896 83.9174 19.9503C83.9124 19.9371 83.9074 19.9258 83.9043 19.9128C83.9043 19.9109 83.9027 19.9072 83.9009 19.9052C83.8832 19.8472 83.8687 19.7986 83.8609 19.7669C83.853 19.737 83.8351 19.7251 83.823 19.7062C83.7788 19.7042 83.7322 19.7151 83.6849 19.7406C83.6679 19.7491 83.6527 19.7595 83.6356 19.7698C83.6187 19.7765 83.6036 19.7832 83.5867 19.7917C83.4582 19.858 83.3245 20.0034 83.2671 20.2149C83.2006 20.4666 83.0088 21.4233 82.4366 21.9258C81.3785 22.8552 80.6935 22.7382 80.6567 22.7347C80.5886 22.7317 80.531 22.6996 80.4773 22.6603C80.4845 22.6643 80.4878 22.6737 80.4949 22.6796L80.3747 22.6023C80.3101 22.5606 80.2558 22.4955 80.2092 22.4233C80.2022 22.4138 80.1952 22.4061 80.1901 22.3948C80.1868 22.3872 80.1814 22.3833 80.1762 22.3757C80.1505 22.3303 80.1269 22.2812 80.1051 22.2305C80.0968 22.2098 80.0902 22.191 80.0838 22.1705C80.0772 22.1517 80.0705 22.1366 80.064 22.1179C80.0573 22.101 80.0507 22.0841 80.0459 22.0673C80.0313 22.0223 80.0219 21.9832 80.0108 21.9421C80.0045 21.9196 79.9997 21.901 79.9932 21.8822C79.9933 21.8804 79.9916 21.8766 79.9918 21.8729C79.9777 21.8151 79.9687 21.7686 79.9625 21.7425C79.9468 21.679 79.9228 21.6374 79.8969 21.5975C79.864 21.5499 79.8287 21.5132 79.7928 21.4895C79.7893 21.4857 79.7802 21.4834 79.7785 21.4796C79.7837 21.4873 79.7926 21.495 79.8034 21.501L79.6831 21.4237C79.6724 21.4159 79.6635 21.41 79.6583 21.4023C79.6583 21.4023 79.6583 21.4023 79.6583 21.4005C79.6583 21.4005 79.6584 21.3987 79.6585 21.3968C79.6586 21.395 79.6587 21.3913 79.657 21.3894L76.1488 18.8017C76.1488 18.8017 76.131 18.788 76.122 18.782C76.1022 18.7701 76.0889 18.7787 76.0724 18.7762C76.0606 18.7941 76.0453 18.8063 76.0457 18.8377L76.0669 19.3185C76.0669 19.3185 76.0667 19.3222 76.0666 19.3259C76.0664 19.3295 76.0663 19.3314 76.0662 19.3332L76.0659 19.3406C76.0659 19.3406 76.0657 19.3461 76.0656 19.348C76.0655 19.3498 76.0653 19.3535 76.0653 19.3553C76.0652 19.3572 76.065 19.3608 76.0649 19.3627C76.0649 19.3645 76.0647 19.3682 76.0646 19.3701C76.0645 19.3719 76.0644 19.3756 76.0643 19.3774C76.0641 19.3811 76.064 19.383 76.062 19.3866C76.0619 19.3902 76.0618 19.3921 76.0579 19.3956C76.0578 19.3993 76.0558 19.4029 76.0538 19.4046C76.0518 19.4082 76.0498 19.4119 76.0478 19.4155C76.0399 19.428 76.0284 19.4367 76.0171 19.4436L75.9547 19.4759L75.9549 19.4722C75.9227 19.4911 75.8803 19.4892 75.8337 19.4595C75.7439 19.402 75.6742 19.2679 75.6789 19.1611L75.7026 18.6269L75.7094 18.6401ZM84.2712 20.4624C84.2695 20.4586 84.266 20.4547 84.2642 20.4528C84.266 20.4547 84.2677 20.4585 84.2693 20.4623L84.2712 20.4624ZM84.254 19.5573C84.2534 19.6126 84.2547 19.6681 84.2666 19.7313C84.2666 19.7313 84.2666 19.7332 84.2665 19.735C84.2799 19.8076 84.3021 19.8879 84.3353 19.9724C84.3553 20.0213 84.3739 20.059 84.3943 20.0987C84.4079 20.1251 84.4195 20.1552 84.4333 20.1779C84.4419 20.1912 84.4489 20.2008 84.4557 20.214C84.4884 20.2671 84.5196 20.311 84.5512 20.3474C84.5618 20.359 84.5705 20.3704 84.5793 20.38C84.597 20.3974 84.6113 20.4091 84.6273 20.4209C84.6383 20.4232 84.6492 20.4274 84.6511 20.4275C84.7447 20.4372 84.8599 20.4201 84.9871 20.3815C84.9871 20.3815 84.9871 20.3815 84.989 20.3816C85.1162 20.3429 85.2534 20.2862 85.3951 20.2113C85.499 20.1568 85.607 20.0933 85.7098 20.0241C85.7136 20.0205 85.7174 20.0189 85.7212 20.0153C85.8239 19.9479 85.9231 19.8748 86.0169 19.7978C86.0226 19.7943 86.0284 19.789 86.0341 19.7856C86.126 19.7103 86.2145 19.6293 86.2936 19.5498C86.2995 19.5427 86.3072 19.5356 86.313 19.5285C86.3924 19.4453 86.4644 19.3617 86.5215 19.2794C86.5492 19.2381 86.5795 19.1786 86.6103 19.108C86.6105 19.1043 86.6143 19.1008 86.6145 19.0971C86.6453 19.0265 86.6748 18.9447 86.7025 18.8611C86.7026 18.8592 86.7027 18.8555 86.7046 18.8538C86.7324 18.7683 86.7584 18.6808 86.7806 18.5969C86.7808 18.5932 86.7809 18.5896 86.7829 18.586C86.8051 18.502 86.8233 18.4235 86.8355 18.3576C86.8523 18.2698 86.8653 18.1854 86.8762 18.1047C86.8766 18.0955 86.877 18.0863 86.8793 18.0772C86.8882 18.0001 86.897 17.9266 86.898 17.8621C86.901 17.7939 86.898 17.7366 86.891 17.6883C86.8867 17.6604 86.8763 17.6452 86.8679 17.6264C86.8605 17.626 86.8551 17.6221 86.8478 17.6218C86.8165 17.6204 86.7756 17.626 86.7348 17.6315C86.7069 17.6358 86.6829 17.6348 86.6512 17.6426C86.6009 17.6533 86.5372 17.6763 86.4754 17.6957C86.4417 17.7071 86.4137 17.7133 86.3761 17.7282C86.2747 17.768 86.1618 17.8184 86.0371 17.883C86.0333 17.8847 86.0296 17.8864 86.0258 17.8881C85.9483 17.9289 85.8651 17.9751 85.7798 18.0248C85.6453 18.1037 85.5295 18.1761 85.4213 18.2452C85.3662 18.2796 85.3168 18.3125 85.2674 18.3435C85.2048 18.3832 85.1439 18.4248 85.0906 18.4612C85.062 18.4821 85.0335 18.5011 85.0068 18.5202C84.9439 18.5654 84.8848 18.6071 84.8333 18.6454C84.8238 18.6524 84.8142 18.6594 84.8047 18.6663C84.7455 18.7117 84.6975 18.752 84.6553 18.7889C84.6495 18.7942 84.6419 18.7994 84.6361 18.8065C84.5977 18.8399 84.5668 18.8699 84.5398 18.8963C84.5341 18.9016 84.5301 18.907 84.5244 18.9123C84.5127 18.9247 84.503 18.9353 84.4952 18.946C84.4622 18.9833 84.4386 19.0155 84.4285 19.0354C84.4225 19.0462 84.4184 19.0552 84.4144 19.0624C84.4144 19.0624 84.4143 19.0643 84.4142 19.0661C84.4142 19.0661 84.4103 19.0715 84.4102 19.0733C84.4022 19.0859 84.3843 19.1165 84.3643 19.1506C84.3564 19.1632 84.3484 19.1758 84.3403 19.192C84.3281 19.2173 84.3156 19.25 84.3031 19.2826C84.2968 19.3008 84.2887 19.3171 84.2822 19.3389C84.2649 19.3954 84.2528 19.4613 84.2495 19.535C84.2491 19.5442 84.2523 19.5554 84.252 19.5627L84.254 19.5573ZM84.0351 19.9998C84.0351 19.9998 84.0401 20.0129 84.0417 20.0185C84.0367 20.0054 84.0335 19.9942 84.0286 19.981C84.0301 19.9885 84.0318 19.9922 84.0334 19.9978L84.0351 19.9998ZM82.8836 19.8307C82.8836 19.8307 82.8961 19.8404 82.8997 19.8443C82.8997 19.8443 82.8908 19.8365 82.8836 19.8307ZM80.2912 21.7367C80.2962 21.7905 80.2923 21.8383 80.2991 21.8921C80.3059 21.9478 80.3178 22.011 80.3335 22.0745C80.3335 22.0745 80.3334 22.0763 80.3333 22.0782C80.3475 22.1323 80.3636 22.1865 80.3816 22.239C80.3864 22.254 80.3914 22.2671 80.3963 22.2821C80.4146 22.3272 80.433 22.3705 80.4517 22.4064C80.4551 22.412 80.4567 22.4177 80.4583 22.4233C80.4686 22.4403 80.4794 22.4463 80.4898 22.4616C80.5335 22.4746 80.5754 22.4875 80.6288 22.4899C80.6307 22.4899 80.6344 22.4901 80.6362 22.4902C80.7136 22.4918 80.8009 22.4809 80.8959 22.4611C80.8995 22.4613 80.9014 22.4613 80.9051 22.4597C80.9983 22.4398 81.0956 22.409 81.1969 22.3729C81.2025 22.3713 81.2081 22.3697 81.2119 22.368C81.3151 22.3283 81.4206 22.2813 81.5245 22.2269C81.6643 22.1537 81.8028 22.0675 81.9325 21.9736C81.9343 21.9737 81.9363 21.9701 81.9401 21.9684C82.0679 21.8744 82.185 21.7707 82.284 21.6607C82.284 21.6607 82.3055 21.634 82.333 21.5964C82.333 21.5964 82.335 21.5928 82.337 21.5911C82.3645 21.5517 82.4041 21.4925 82.45 21.4134C82.458 21.399 82.4681 21.3809 82.4762 21.3647C82.4922 21.3359 82.5083 21.3052 82.5264 21.271C82.5487 21.2276 82.571 21.1807 82.5936 21.13C82.5976 21.1228 82.5997 21.1173 82.6038 21.1083C82.6303 21.0504 82.6572 20.9852 82.6843 20.9162C82.6906 20.898 82.6988 20.88 82.7052 20.8599C82.7322 20.791 82.7575 20.7202 82.7851 20.6402C82.8274 20.5166 82.8561 20.4108 82.8768 20.3194C82.8769 20.3176 82.8769 20.3157 82.877 20.3139C82.8957 20.2243 82.9065 20.1491 82.9091 20.0883C82.9114 20.0367 82.9077 19.996 82.9019 19.9607C82.896 19.9272 82.8862 19.8991 82.876 19.8783C82.876 19.8783 82.8743 19.8745 82.8744 19.8727C82.8693 19.8633 82.864 19.8575 82.8588 19.8499C82.8484 19.8346 82.8377 19.8268 82.8289 19.8172C82.8161 19.8148 82.8051 19.8124 82.7867 19.8116C82.783 19.8114 82.7756 19.8111 82.7701 19.8109C82.748 19.8099 82.7202 19.8124 82.6887 19.8165C82.6757 19.8178 82.6589 19.8226 82.644 19.8256C82.6142 19.8317 82.5807 19.8376 82.5434 19.847C82.5228 19.8516 82.4985 19.8598 82.4742 19.8661C82.4331 19.8772 82.3863 19.8917 82.3357 19.9098C82.3058 19.9195 82.2758 19.9292 82.2439 19.9408C82.1839 19.9621 82.1145 19.9885 82.0431 20.0168C82.0168 20.0267 81.9943 20.0349 81.9661 20.0466C81.921 20.0649 81.8646 20.0882 81.8157 20.11C81.7329 20.1451 81.6558 20.1768 81.5579 20.2204C81.4713 20.259 81.3902 20.2979 81.3128 20.3388C81.1843 20.4069 81.0668 20.4755 80.9604 20.5446C80.9547 20.5481 80.949 20.5515 80.9452 20.555C80.8425 20.6225 80.7491 20.6903 80.6705 20.7569C80.6686 20.7587 80.6648 20.7604 80.6629 20.7621C80.5843 20.8288 80.5169 20.8904 80.4645 20.949C80.4645 20.949 80.4625 20.9526 80.4607 20.9525C80.4082 21.0111 80.369 21.0647 80.3467 21.108C80.3326 21.1351 80.3236 21.1716 80.3147 21.2063C80.295 21.2774 80.2786 21.356 80.2744 21.4499C80.2705 21.5383 80.2825 21.6422 80.2891 21.7422L80.2912 21.7367ZM80.1257 21.9748C80.1257 21.9748 80.1273 21.9804 80.1272 21.9823C80.1257 21.973 80.1224 21.9655 80.1209 21.9562C80.1225 21.9636 80.1241 21.9674 80.1257 21.9748ZM80.0275 21.69C80.0275 21.69 80.0311 21.692 80.0311 21.6938C80.0259 21.6862 80.0226 21.6768 80.0174 21.6692C80.0208 21.6749 80.0223 21.6842 80.0258 21.6881L80.0275 21.69ZM75.9474 18.3904C75.9327 18.3898 75.9213 18.3967 75.9066 18.396C75.9213 18.3967 75.9328 18.388 75.9474 18.3904Z" fill="#3A396B"/>
<path d="M77.9248 21.6149C77.4176 22.2328 76.8994 22.2228 76.0695 21.5438C75.2395 20.8649 74.7766 19.9825 75.2838 19.3646C75.791 18.7466 76.0914 18.7563 76.9194 19.437C77.7474 20.1177 78.4319 20.997 77.9248 21.6149Z" fill="#F9D7CB"/>
<path fill-rule="evenodd" clip-rule="evenodd" d="M109.921 35.3789C116.281 34.9037 121.424 29.7365 121.713 23.2065C122.025 16.1592 116.565 10.1933 109.518 9.88133C102.471 9.56933 96.5049 15.0294 96.1929 22.0767C95.9038 28.6074 100.571 34.2094 106.866 35.2439L107.766 36.9758C107.993 37.4121 108.607 37.4392 108.871 37.0248L109.921 35.3789Z" fill="#FFB22D"/>
<path d="M113.213 20.2596C113.122 22.3097 109.208 26.7125 109.208 26.7125C109.208 26.7125 105.698 21.981 105.789 19.9309C105.832 18.9464 106.265 18.0195 106.992 17.3541C107.719 16.6888 108.681 16.3395 109.665 16.3831C110.65 16.4267 111.577 16.8596 112.242 17.5866C112.907 18.3135 113.256 19.275 113.213 20.2596Z" fill="white"/>
<path d="M111.209 20.0074C111.195 20.343 111.08 20.6667 110.882 20.9375C110.683 21.2083 110.408 21.4141 110.092 21.5288C109.777 21.6435 109.434 21.662 109.108 21.582C108.781 21.5019 108.486 21.3269 108.259 21.0791C108.033 20.8312 107.884 20.5217 107.833 20.1896C107.783 19.8576 107.831 19.5178 107.973 19.2134C108.116 18.909 108.345 18.6536 108.632 18.4795C108.919 18.3054 109.252 18.2204 109.588 18.2353C109.81 18.2451 110.029 18.2986 110.231 18.393C110.434 18.4874 110.615 18.6206 110.766 18.7852C110.916 18.9498 111.033 19.1424 111.109 19.3522C111.185 19.5619 111.219 19.7845 111.209 20.0074Z" fill="#FFB22D"/>
<path d="M109.092 29.3933C109.644 29.4177 110.112 28.9896 110.137 28.4369C110.161 27.8843 109.733 27.4164 109.18 27.392C108.628 27.3675 108.16 27.7957 108.135 28.3483C108.111 28.901 108.539 29.3688 109.092 29.3933Z" fill="white"/>
</svg>
