<svg width="160" height="161" viewBox="0 0 160 161" fill="none" xmlns="http://www.w3.org/2000/svg">
<ellipse cx="95" cy="125.93" rx="27.5" ry="16" fill="#BDEAFF"/>
<g clip-path="url(#clip0_7665_3744)">
<path d="M78.7671 86.7737L77.3047 85.9789L77.3087 84.2383L78.7711 85.0331L78.7671 86.7737Z" fill="#828282"/>
<path d="M77.1499 87.0018L75.6875 86.207L77.301 85.9805L78.7634 86.7753L77.1499 87.0018Z" fill="#B4B4B4"/>
<path d="M77.1499 87.0042L75.6875 86.2094L75.6915 84.4688L77.1539 85.2636L77.1499 87.0042Z" fill="black"/>
<path d="M77.1578 85.2596L75.6953 84.4648L77.3088 84.2383L78.7712 85.0331L77.1578 85.2596Z" fill="black"/>
<path d="M75.5406 88.973L74.0781 88.1782L74.0821 86.4336L75.5445 87.2284L75.5406 88.973Z" fill="#828282"/>
<path d="M73.9234 89.1971L72.4609 88.4023L74.0744 88.1758L75.5368 88.9706L73.9234 89.1971Z" fill="#B4B4B4"/>
<path d="M75.5406 87.2268L74.0781 86.432L74.0821 84.6914L75.5445 85.4862L75.5406 87.2268Z" fill="#828282"/>
<path d="M72.3062 89.4276L70.8438 88.6328L72.4612 88.4062L73.9236 89.2011L72.3062 89.4276Z" fill="#B4B4B4"/>
<path d="M77.1656 81.7738L75.7031 80.975V79.2344L77.1656 80.0292V81.7738Z" fill="#828282"/>
<path d="M73.9234 85.7127L72.4609 84.9179L74.0784 84.6914L75.5408 85.4862L73.9234 85.7127Z" fill="black"/>
<path d="M78.7828 78.0667L77.3203 77.2719L77.3243 75.5312L78.7867 76.3261L78.7828 78.0667Z" fill="#828282"/>
<path d="M75.5484 83.7465L74.0859 82.9477L74.0899 81.2031L75.5484 82.0019V83.7465Z" fill="#828282"/>
<path d="M75.5522 82.0019L74.0938 81.2031L75.7072 80.9766L77.1697 81.7753L75.5522 82.0019Z" fill="#B4B4B4"/>
<path d="M77.1656 78.2909L75.7031 77.496L77.3166 77.2695L78.779 78.0643L77.1656 78.2909Z" fill="#B4B4B4"/>
<path d="M73.9234 85.7151L72.4609 84.9203L72.4649 83.1797L73.9274 83.9745L73.9234 85.7151Z" fill="#828282"/>
<path d="M73.9312 83.9745L72.4688 83.1797L74.0862 82.9492L75.5486 83.748L73.9312 83.9745Z" fill="#B4B4B4"/>
<path d="M70.689 89.6541L69.2266 88.8593L70.84 88.6328L72.3025 89.4276L70.689 89.6541Z" fill="#B4B4B4"/>
<path d="M78.7906 76.3246L77.3281 75.5298L77.3321 73.7852L78.7945 74.58L78.7906 76.3246Z" fill="#828282"/>
<path d="M75.5562 80.2557L74.0938 79.4609L75.7072 79.2344L77.1697 80.0292L75.5562 80.2557Z" fill="black"/>
<path d="M77.1656 78.2893L75.7031 77.4945L75.7071 75.7539L77.1695 76.5487L77.1656 78.2893Z" fill="black"/>
<path d="M75.5562 80.2581L74.0938 79.4633L74.0977 77.7227L75.5602 78.5175L75.5562 80.2581Z" fill="#828282"/>
<path d="M72.314 85.9417L70.8516 85.1469L70.8555 83.4062L72.318 84.2011L72.314 85.9417Z" fill="black"/>
<path d="M69.0796 89.8808L67.6172 89.082L69.2306 88.8555L70.6931 89.6503L69.0796 89.8808Z" fill="#B4B4B4"/>
<path d="M77.1734 76.5511L75.7109 75.7563L75.7149 74.0117L77.1774 74.8065L77.1734 76.5511Z" fill="black"/>
<path d="M77.1812 74.8065L75.7188 74.0117L77.3322 73.7852L78.7947 74.58L77.1812 74.8065Z" fill="black"/>
<path d="M70.6968 86.1698L69.2344 85.375L70.8478 85.1484L72.3103 85.9432L70.6968 86.1698Z" fill="black"/>
<path d="M78.7984 72.8362L77.3359 72.0414L77.3399 70.3008L78.7984 71.0956V72.8362Z" fill="#828282"/>
<path d="M75.5562 78.5198L74.0938 77.725L74.0977 75.9844L75.5602 76.7792L75.5562 78.5198Z" fill="#828282"/>
<path d="M69.0796 89.8832L67.6172 89.0844L67.6212 87.3398L69.0796 88.1386V89.8832Z" fill="black"/>
<path d="M77.1812 73.0644L75.7188 72.2656L77.3322 72.0391L78.7947 72.8339L77.1812 73.0644Z" fill="#B4B4B4"/>
<path d="M70.7046 84.4276L69.2422 83.6328L70.8557 83.4062L72.3181 84.2011L70.7046 84.4276Z" fill="#B4B4B4"/>
<path d="M70.6968 86.1643L69.2344 85.3695L69.2383 83.6289L70.7008 84.4237L70.6968 86.1643Z" fill="#828282"/>
<path d="M77.1812 71.3221L75.7188 70.5273L77.3362 70.3008L78.7986 71.0956L77.1812 71.3221Z" fill="black"/>
<path d="M73.9468 77.0057L72.4844 76.2109L74.1018 75.9844L75.5643 76.7792L73.9468 77.0057Z" fill="black"/>
<path d="M70.7046 84.4261L69.2422 83.6313L69.2462 81.8867L70.7086 82.6815L70.7046 84.4261Z" fill="black"/>
<path d="M67.4624 88.3651L66 87.5703L67.6174 87.3398L69.0759 88.1386L67.4624 88.3651Z" fill="#B4B4B4"/>
<path d="M75.5718 73.2909L74.1094 72.4921L75.7228 72.2656L77.1853 73.0644L75.5718 73.2909Z" fill="#B4B4B4"/>
<path d="M72.3218 80.7152L70.8594 79.9164V78.1758L72.3218 78.9706V80.7152Z" fill="black"/>
<path d="M69.0874 84.6502L67.625 83.8554L69.2424 83.6289L70.7049 84.4237L69.0874 84.6502Z" fill="black"/>
<path d="M77.1812 71.3207L75.7188 70.5259L75.7227 68.7812L77.1852 69.5761L77.1812 71.3207Z" fill="#828282"/>
<path d="M70.7124 82.6839L69.25 81.8891V80.1484L70.7124 80.9432V82.6839Z" fill="black"/>
<path d="M70.7124 80.9394L69.25 80.1446L70.8674 79.9141L72.3299 80.7128L70.7124 80.9394Z" fill="black"/>
<path d="M75.5718 73.2894L74.1094 72.4906V70.75L75.5718 71.5448V73.2894Z" fill="black"/>
<path d="M72.3296 77.2284L70.8672 76.4335L72.4806 76.207L73.9431 77.0018L72.3296 77.2284Z" fill="black"/>
<path d="M72.3218 78.969L70.8594 78.1742L70.8633 76.4336L72.3258 77.2284L72.3218 78.969Z" fill="black"/>
<path d="M69.0874 84.6527L67.625 83.8579L67.629 82.1133L69.0914 82.9081L69.0874 84.6527Z" fill="#828282"/>
<path d="M65.8531 90.3363L64.3906 89.5415V87.7969L65.8531 88.5917V90.3363Z" fill="#828282"/>
<path d="M65.8531 88.5916L64.3906 87.7968L66.0041 87.5703L67.4665 88.3651L65.8531 88.5916Z" fill="#B4B4B4"/>
<path d="M70.7124 80.9418L69.25 80.1469L69.254 78.4023L70.7164 79.1972L70.7124 80.9418Z" fill="#828282"/>
<path d="M75.5718 71.5472L74.1094 70.7524L74.1133 69.0078L75.5758 69.8026L75.5718 71.5472Z" fill="black"/>
<path d="M75.5718 69.8026L74.1094 69.0078L75.7228 68.7812L77.1853 69.5761L75.5718 69.8026Z" fill="black"/>
<path d="M64.2319 90.5643L62.7734 89.7695L64.3869 89.543L65.8493 90.3378L64.2319 90.5643Z" fill="#B4B4B4"/>
<path d="M69.0953 81.1698L67.6328 80.375L69.2463 80.1484L70.7087 80.9432L69.0953 81.1698Z" fill="#B4B4B4"/>
<path d="M77.189 67.8362L75.7266 67.0414L75.7305 65.3008L77.193 66.0956L77.189 67.8362Z" fill="#828282"/>
<path d="M73.9468 73.5199L72.4844 72.7251L72.4883 70.9805L73.9508 71.7753L73.9468 73.5199Z" fill="#828282"/>
<path d="M78.8062 64.1254L77.3438 63.3266L77.3477 61.5859L78.8102 62.3807L78.8062 64.1254Z" fill="#828282"/>
<path d="M67.4781 83.1346L66.0156 82.3398L67.6291 82.1133L69.0915 82.9081L67.4781 83.1346Z" fill="black"/>
<path d="M75.5718 69.8011L74.1094 69.0063L74.1133 67.2656L75.5758 68.0604L75.5718 69.8011Z" fill="#828282"/>
<path d="M75.5718 68.0643L74.1094 67.2695L75.7228 67.043L77.1853 67.8378L75.5718 68.0643Z" fill="#B4B4B4"/>
<path d="M64.2319 90.5628L62.7734 89.768V88.0234L64.2359 88.8182L64.2319 90.5628Z" fill="black"/>
<path d="M72.3374 73.744L70.875 72.9492L72.4885 72.7227L73.9509 73.5175L72.3374 73.744Z" fill="#B4B4B4"/>
<path d="M69.0953 79.4276L67.6328 78.6289L69.2463 78.4023L70.7087 79.1972L69.0953 79.4276Z" fill="black"/>
<path d="M69.0953 81.1683L67.6328 80.3735L67.6368 78.6289L69.0992 79.4277L69.0953 81.1683Z" fill="black"/>
<path d="M77.1968 64.3495L75.7344 63.5547L77.3478 63.3242L78.8103 64.123L77.1968 64.3495Z" fill="#B4B4B4"/>
<path d="M65.8531 86.8479L64.3906 86.0531L64.3946 84.3125L65.857 85.1073L65.8531 86.8479Z" fill="black"/>
<path d="M65.8609 85.1073L64.3984 84.3125L66.0119 84.0859L67.4743 84.8807L65.8609 85.1073Z" fill="black"/>
<path d="M65.8531 86.8479L64.3906 86.0531L64.3946 84.3125L65.857 85.1073L65.8531 86.8479Z" fill="#828282"/>
<path d="M65.8609 85.1073L64.3984 84.3125L66.0119 84.0859L67.4743 84.8807L65.8609 85.1073Z" fill="#B4B4B4"/>
<path d="M73.9585 70.0291L72.5 69.2343L74.1135 69.0078L75.5759 69.8026L73.9585 70.0291Z" fill="#B4B4B4"/>
<path d="M73.9546 71.7738L72.4922 70.979L72.4962 69.2344L73.9546 70.0292V71.7738Z" fill="#828282"/>
<path d="M70.7124 77.4574L69.25 76.6626L69.254 74.918L70.7164 75.7128L70.7124 77.4574Z" fill="#828282"/>
<path d="M78.814 62.3792L77.3516 61.5844V59.8438L78.814 60.6386V62.3792Z" fill="#828282"/>
<path d="M67.4781 83.137L66.0156 82.3422L66.0196 80.6016L67.482 81.3964L67.4781 83.137Z" fill="#828282"/>
<path d="M77.1956 66.0938L77.1916 67.8344L75.5781 68.0609L75.5821 66.3203L77.1956 66.0938Z" fill="black"/>
<path d="M75.5718 68.0628L74.1094 67.268L74.1133 65.5273L75.5758 66.3222L75.5718 68.0628Z" fill="black"/>
<path d="M75.5796 66.3221L74.1172 65.5273L75.7306 65.3008L77.1931 66.0956L75.5796 66.3221Z" fill="black"/>
<path d="M72.3374 73.7464L70.875 72.9516L70.879 71.207L72.3414 72.0058L72.3374 73.7464Z" fill="black"/>
<path d="M69.0953 77.6815L67.6328 76.8867L69.2503 76.6602L70.7127 77.455L69.0953 77.6815Z" fill="#B4B4B4"/>
<path d="M73.9624 68.287L72.5 67.4921L74.1174 67.2656L75.5799 68.0604L73.9624 68.287Z" fill="black"/>
<path d="M62.6265 89.0448L61.1641 88.25L62.7775 88.0234L64.24 88.8182L62.6265 89.0448Z" fill="#B4B4B4"/>
<path d="M62.6187 90.7894L61.1562 89.9946L61.1602 88.25L62.6227 89.0448L62.6187 90.7894Z" fill="#828282"/>
<path d="M70.7203 75.7112L69.2578 74.9164L69.2618 73.1758L70.7242 73.9706L70.7203 75.7112Z" fill="#828282"/>
<path d="M78.814 60.637L77.3516 59.8422L77.3555 58.1016L78.818 58.8964L78.814 60.637Z" fill="#828282"/>
<path d="M75.5874 64.576L74.125 63.7812L75.7385 63.5547L77.2009 64.3495L75.5874 64.576Z" fill="#B4B4B4"/>
<path d="M64.2437 87.0785L62.7812 86.2797L62.7852 84.5391L64.2477 85.3339L64.2437 87.0785Z" fill="black"/>
<path d="M72.3374 72.0043L70.875 71.2055V69.4609L72.3374 70.2597V72.0043Z" fill="black"/>
<path d="M61.0093 91.0135L59.5469 90.2187L61.1603 89.9922L62.6228 90.787L61.0093 91.0135Z" fill="#B4B4B4"/>
<path d="M69.0953 77.6839L67.6328 76.8891L67.6368 75.1445L69.0992 75.9393L69.0953 77.6839Z" fill="black"/>
<path d="M65.8687 81.6229L64.4062 80.8281L66.0197 80.6016L67.4822 81.3964L65.8687 81.6229Z" fill="black"/>
<path d="M65.8609 83.3636L64.3984 82.5688L64.4024 80.8281L65.8649 81.6229L65.8609 83.3636Z" fill="black"/>
<path d="M73.9624 68.2893L72.5 67.4945L72.504 65.7539L73.9664 66.5487L73.9624 68.2893Z" fill="#828282"/>
<path d="M62.6265 87.3026L61.1641 86.5078L62.7815 86.2773L64.2439 87.0761L62.6265 87.3026Z" fill="black"/>
<path d="M70.7203 73.9691L69.2578 73.1743L69.2618 71.4297L70.7242 72.2285L70.7203 73.9691Z" fill="#828282"/>
<path d="M78.8218 58.8988L77.3594 58.104L77.3633 56.3594L78.8258 57.1542L78.8218 58.8988Z" fill="#828282"/>
<path d="M67.4859 79.6527L66.0234 78.8539V77.1133L67.4859 77.9081V79.6527Z" fill="#828282"/>
<path d="M64.2515 83.5877L62.7891 82.7929L64.4025 82.5664L65.865 83.3612L64.2515 83.5877Z" fill="black"/>
<path d="M72.3374 70.2582L70.875 69.4594L70.879 67.7188L72.3414 68.5136L72.3374 70.2582Z" fill="black"/>
<path d="M61.0093 91.016L59.5469 90.2212L59.5508 88.4766L61.0133 89.2714L61.0093 91.016Z" fill="black"/>
<path d="M69.1031 75.9378L67.6406 75.143L67.6446 73.4023L69.107 74.1971L69.1031 75.9378Z" fill="black"/>
<path d="M65.8687 79.8808L64.4062 79.086L66.0237 78.8555L67.4861 79.6543L65.8687 79.8808Z" fill="#B4B4B4"/>
<path d="M73.9624 64.8026L72.5 64.0078L74.1174 63.7812L75.5799 64.5761L73.9624 64.8026Z" fill="#B4B4B4"/>
<path d="M62.6265 85.5604L61.1641 84.7656L62.7815 84.5391L64.2439 85.3339L62.6265 85.5604Z" fill="#B4B4B4"/>
<path d="M70.7281 72.2309L69.2656 71.4321V69.6875L70.7281 70.4863V72.2309Z" fill="#828282"/>
<path d="M78.8218 57.1527L77.3594 56.3579L77.3633 54.6133L78.8258 55.4121L78.8218 57.1527Z" fill="#828282"/>
<path d="M64.2515 83.5862L62.7891 82.7914L62.793 81.0508L64.2555 81.8456L64.2515 83.5862Z" fill="#828282"/>
<path d="M72.3453 68.5159L70.8828 67.7211L70.8868 65.9805L72.3492 66.7753L72.3453 68.5159Z" fill="black"/>
<path d="M72.3531 66.7752L70.8906 65.9804L72.5041 65.7539L73.9665 66.5487L72.3531 66.7752Z" fill="black"/>
<path d="M61.0093 87.5291L59.5469 86.7343L61.1603 86.5078L62.6228 87.3026L61.0093 87.5291Z" fill="black"/>
<path d="M61.0093 89.2737L59.5469 88.4789V86.7383L61.0093 87.5331V89.2737Z" fill="black"/>
<path d="M67.4846 77.9102V79.6548L65.8672 79.8813L65.8712 78.1367L67.4846 77.9102Z" fill="black"/>
<path d="M65.8687 78.1346L64.4062 77.3398L66.0197 77.1133L67.4822 77.9081L65.8687 78.1346Z" fill="black"/>
<path d="M65.8687 79.8793L64.4062 79.0844L64.4102 77.3398L65.8727 78.1347L65.8687 79.8793Z" fill="black"/>
<path d="M70.7281 70.4847L69.2656 69.6859L69.2696 67.9453L70.732 68.7401L70.7281 70.4847Z" fill="#828282"/>
<path d="M59.3921 91.2425L57.9297 90.4477V88.7031L59.3921 89.4979V91.2425Z" fill="#828282"/>
<path d="M78.8218 55.4105L77.3594 54.6117L77.3633 52.8711L78.8258 53.6659L78.8218 55.4105Z" fill="#828282"/>
<path d="M67.4937 74.4237L66.0312 73.6289L67.6447 73.4023L69.1072 74.1971L67.4937 74.4237Z" fill="#B4B4B4"/>
<path d="M72.3531 65.0291L70.8906 64.2343L72.5041 64.0078L73.9665 64.8026L72.3531 65.0291Z" fill="#B4B4B4"/>
<path d="M61.0171 85.7909L59.5547 84.9921L61.1681 84.7656L62.6306 85.5604L61.0171 85.7909Z" fill="#B4B4B4"/>
<path d="M64.2465 87.0766L62.6291 87.3032L61.0156 87.5297L61.0196 85.789L62.6331 85.5586L64.2505 85.332L64.2465 87.0766Z" fill="white"/>
<path d="M61.0093 87.5277L59.5469 86.7329L59.5508 84.9883L61.0133 85.7871L61.0093 87.5277Z" fill="#828282"/>
<path d="M57.7749 91.4706L56.3125 90.6757L57.9299 90.4492L59.3924 91.244L57.7749 91.4706Z" fill="#B4B4B4"/>
<path d="M65.8687 78.1371L64.4062 77.3423L64.4102 75.5977L65.8727 76.3925L65.8687 78.1371Z" fill="#828282"/>
<path d="M62.6343 82.0721L61.1719 81.2773L62.7893 81.0508L64.2518 81.8456L62.6343 82.0721Z" fill="black"/>
<path d="M70.7281 68.7425L69.2656 67.9477L69.2696 66.207L70.732 67.0018L70.7281 68.7425Z" fill="#828282"/>
<path d="M59.3921 89.4964L57.9297 88.7016L57.9337 86.9609L59.3961 87.7557L59.3921 89.4964Z" fill="#828282"/>
<path d="M59.3999 87.7596L57.9375 86.9648L59.551 86.7383L61.0134 87.5331L59.3999 87.7596Z" fill="#B4B4B4"/>
<path d="M78.8296 53.6683L77.3672 52.8735V51.1289L78.8296 51.9237V53.6683Z" fill="#828282"/>
<path d="M64.2593 78.3612L62.7969 77.5664L64.4103 77.3398L65.8728 78.1347L64.2593 78.3612Z" fill="#B4B4B4"/>
<path d="M64.2593 80.1058L62.7969 79.311L62.8008 77.5664L64.2633 78.3612L64.2593 80.1058Z" fill="#828282"/>
<path d="M61.0171 85.7895L59.5547 84.9907L59.5587 83.2461L61.0211 84.0449L61.0171 85.7895Z" fill="black"/>
<path d="M57.7749 91.4691L56.3125 90.6743L56.3165 88.9297L57.7789 89.7245L57.7749 91.4691Z" fill="black"/>
<path d="M65.8843 74.6502L64.4219 73.8554L66.0353 73.6289L67.4978 74.4237L65.8843 74.6502Z" fill="#B4B4B4"/>
<path d="M65.8765 76.3909L64.4141 75.5961L64.418 73.8555L65.8805 74.6503L65.8765 76.3909Z" fill="#828282"/>
<path d="M62.6343 82.0745L61.1719 81.2797L61.1758 79.5391L62.6383 80.3339L62.6343 82.0745Z" fill="#828282"/>
<path d="M62.6421 80.3338L61.1797 79.539L62.7931 79.3125L64.2556 80.1073L62.6421 80.3338Z" fill="#B4B4B4"/>
<path d="M70.7359 65.2557L69.2734 64.4609L70.8869 64.2344L72.3493 65.0292L70.7359 65.2557Z" fill="#B4B4B4"/>
<path d="M59.3999 86.0136L57.9375 85.2148L59.551 84.9883L61.0134 85.7871L59.3999 86.0136Z" fill="black"/>
<path d="M64.2593 78.3636L62.7969 77.5688L62.8008 75.8242L64.2633 76.623L64.2593 78.3636Z" fill="black"/>
<path d="M69.1187 68.973L67.6562 68.1742L67.6602 66.4336L69.1227 67.2284L69.1187 68.973Z" fill="black"/>
<path d="M69.1187 67.2284L67.6562 66.4336L69.2737 66.207L70.7361 67.0018L69.1187 67.2284Z" fill="black"/>
<path d="M57.7749 89.7229L56.3125 88.9281L56.3165 87.1875L57.7789 87.9823L57.7749 89.7229Z" fill="black"/>
<path d="M77.2124 52.1502L75.75 51.3554L77.3635 51.1289L78.8259 51.9237L77.2124 52.1502Z" fill="black"/>
<path d="M62.6382 78.5917L61.1797 77.7929L62.7931 77.5664L64.2556 78.3612L62.6382 78.5917Z" fill="black"/>
<path d="M59.4078 84.2714L57.9453 83.4726L59.5588 83.2461L61.0212 84.0449L59.4078 84.2714Z" fill="#B4B4B4"/>
<path d="M59.3999 86.016L57.9375 85.2173L57.9415 83.4727L59.4039 84.2714L59.3999 86.016Z" fill="#828282"/>
<path d="M67.5015 69.1972L66.0391 68.3984L67.6525 68.1719L69.115 68.9707L67.5015 69.1972Z" fill="black"/>
<path d="M56.1656 91.6957L54.7031 90.9009L54.7071 89.1562L56.1695 89.9511L56.1656 91.6957Z" fill="#828282"/>
<path d="M75.6031 54.1229L74.1406 53.3281L75.7541 53.1016L77.2165 53.8964L75.6031 54.1229Z" fill="black"/>
<path d="M75.6031 54.1229L74.1406 53.3281L75.7541 53.1016L77.2165 53.8964L75.6031 54.1229Z" fill="#B4B4B4"/>
<path d="M64.2593 76.6214L62.7969 75.8227L62.8008 74.082L64.2633 74.8768L64.2593 76.6214Z" fill="black"/>
<path d="M69.1187 65.4823L67.6562 64.6875L69.2737 64.4609L70.7361 65.2557L69.1187 65.4823Z" fill="#B4B4B4"/>
<path d="M57.7828 87.9847L56.3203 87.1898V85.4492L57.7828 86.244V87.9847Z" fill="black"/>
<path d="M67.4963 72.6821L65.8828 72.9086L65.8868 71.164L67.5002 70.9375L67.4963 72.6821Z" fill="black"/>
<path d="M65.8843 71.1659L64.4219 70.3711L66.0353 70.1445L67.4978 70.9393L65.8843 71.1659Z" fill="black"/>
<path d="M65.8843 72.9105L64.4219 72.1157L64.4258 70.3711L65.8883 71.1659L65.8843 72.9105Z" fill="#828282"/>
<path d="M65.8843 71.1659L64.4219 70.3711L66.0353 70.1445L67.4978 70.9393L65.8843 71.1659Z" fill="#B4B4B4"/>
<path d="M65.8843 72.9105L64.4219 72.1157L64.4258 70.3711L65.8883 71.1659L65.8843 72.9105Z" fill="black"/>
<path d="M54.5484 91.9198L53.0859 91.125L54.6994 90.8984L56.1618 91.6932L54.5484 91.9198Z" fill="#B4B4B4"/>
<path d="M73.9781 56.0916L72.5156 55.2968L74.1331 55.0703L75.5955 55.8651L73.9781 56.0916Z" fill="black"/>
<path d="M73.9781 56.0916L72.5156 55.2968L74.1331 55.0703L75.5955 55.8651L73.9781 56.0916Z" fill="#B4B4B4"/>
<path d="M67.5015 69.1996L66.0391 68.4008L66.043 66.6602L67.5055 67.455L67.5015 69.1996Z" fill="#828282"/>
<path d="M56.1656 89.9534L54.7031 89.1586L54.7071 87.418L56.1695 88.2128L56.1656 89.9534Z" fill="#828282"/>
<path d="M75.6031 52.3768L74.1406 51.582L75.7541 51.3555L77.2165 52.1503L75.6031 52.3768Z" fill="black"/>
<path d="M61.0249 80.5589L59.5625 79.7641V78.0234L61.0249 78.8182V80.5589Z" fill="black"/>
<path d="M61.0249 78.8183L59.5625 78.0235L61.1799 77.793L62.6384 78.5918L61.0249 78.8183Z" fill="black"/>
<path d="M57.7828 86.2425L56.3203 85.4477L56.3243 83.7031L57.7867 84.4979L57.7828 86.2425Z" fill="black"/>
<path d="M73.9859 54.3495L72.5234 53.5507L74.1409 53.3242L75.6033 54.119L73.9859 54.3495Z" fill="#B4B4B4"/>
<path d="M73.9859 54.3495L72.5234 53.5507L74.1409 53.3242L75.6033 54.119L73.9859 54.3495Z" fill="black"/>
<path d="M62.6499 75.1034L61.1875 74.3085L62.8049 74.082L64.2674 74.8768L62.6499 75.1034Z" fill="#B4B4B4"/>
<path d="M62.6421 76.848L61.1797 76.0532L61.1837 74.3086L62.6461 75.1034L62.6421 76.848Z" fill="#828282"/>
<path d="M70.7437 61.7738L69.2812 60.975L69.2852 59.2344L70.7477 60.0292L70.7437 61.7738Z" fill="black"/>
<path d="M70.7437 61.7738L69.2812 60.975L69.2852 59.2344L70.7477 60.0292L70.7437 61.7738Z" fill="#828282"/>
<path d="M59.4156 80.787L57.9531 79.9921L59.5666 79.7656L61.029 80.5604L59.4156 80.787Z" fill="black"/>
<path d="M59.4078 82.5276L57.9453 81.7328L57.9493 79.9922L59.4117 80.787L59.4078 82.5276Z" fill="black"/>
<path d="M67.5093 65.7088L66.0469 64.914L67.6603 64.6875L69.1228 65.4823L67.5093 65.7088Z" fill="#B4B4B4"/>
<path d="M56.1734 88.2112L54.7109 87.4164V85.6758L56.1734 86.4706V88.2112Z" fill="#828282"/>
<path d="M64.2671 73.1371L62.8047 72.3423V70.5977L64.2671 71.3925V73.1371Z" fill="black"/>
<path d="M52.939 92.1502L51.4766 91.3554L53.09 91.1289L54.5525 91.9237L52.939 92.1502Z" fill="#B4B4B4"/>
<path d="M72.3687 56.3182L70.9062 55.5234L72.5197 55.2969L73.9822 56.0917L72.3687 56.3182Z" fill="black"/>
<path d="M72.3687 56.3182L70.9062 55.5234L72.5197 55.2969L73.9822 56.0917L72.3687 56.3182Z" fill="#B4B4B4"/>
<path d="M61.0328 77.076L59.5703 76.2812L61.1838 76.0547L62.6462 76.8495L61.0328 77.076Z" fill="#B4B4B4"/>
<path d="M69.1265 63.7425L67.6641 62.9477L67.668 61.207L69.1305 62.0018L69.1265 63.7425Z" fill="#828282"/>
<path d="M69.1265 63.7425L67.6641 62.9477L67.668 61.207L69.1305 62.0018L69.1265 63.7425Z" fill="black"/>
<path d="M57.7906 84.4964L56.3281 83.7016L56.3321 81.957L57.7945 82.7558L57.7906 84.4964Z" fill="black"/>
<path d="M57.7906 82.7597L56.3281 81.9609L57.9456 81.7344L59.408 82.5292L57.7906 82.7597Z" fill="black"/>
<path d="M75.5493 80.2586L77.1628 80.0321V81.7767L75.5453 82.0032V83.7478L73.9279 83.9743L73.9239 85.715L75.5414 85.4884L75.5374 87.2291L75.5334 88.9737L73.92 89.2002L72.3025 89.4267L70.6891 89.6532L69.0756 89.8837V88.1391L67.4622 88.3657L65.8487 88.5922V90.3368L64.2313 90.5633L64.2352 88.8187L62.6218 89.0452L62.6178 90.7898L61.0043 91.0163L61.0083 89.2717V87.5311L62.6218 87.3046L64.2392 87.0781L64.2432 85.3335L62.6257 85.56L61.0123 85.7905L61.0163 84.0459L59.4028 84.2724L59.3988 86.017L61.0123 85.7905L61.0083 87.5311L59.3948 87.7576L59.3909 89.4982V91.2429L57.7734 91.4694L57.7774 89.7248L57.7814 87.9841V86.2435L57.7854 84.4989L57.7893 82.7583L59.4068 82.5278L59.4107 80.7871L61.0242 80.5606V78.82L62.6377 78.5935L64.2551 78.363L64.2511 80.1076L62.6377 80.3341L62.6337 82.0747L64.2511 81.8482L64.2472 83.5889L65.8606 83.3623L65.8646 81.6217L67.478 81.3952L67.4741 83.1358L69.0875 82.9093L69.0836 84.6539L70.701 84.4274L70.697 86.168L72.3105 85.9415L72.3145 84.2009L70.701 84.4274L70.705 82.6828V80.9421L72.3224 80.7156V78.971L72.3264 77.2304L73.9398 77.0039L75.5573 76.7773L75.5533 78.518L75.5493 80.2586Z" fill="black"/>
<path d="M65.8921 67.6815L64.4297 66.8867L66.0432 66.6602L67.5056 67.455L65.8921 67.6815Z" fill="black"/>
<path d="M65.8843 69.4261L64.4219 68.6273L64.4258 66.8867L65.8883 67.6815L65.8843 69.4261Z" fill="black"/>
<path d="M73.9937 52.6073L72.5312 51.8086L74.1447 51.582L75.6072 52.3768L73.9937 52.6073Z" fill="black"/>
<path d="M62.6499 73.3651L61.1875 72.5703L62.8049 72.3438L64.2674 73.1386L62.6499 73.3651Z" fill="black"/>
<path d="M70.7437 60.0316L69.2812 59.2368L69.2852 57.4922L70.7477 58.287L70.7437 60.0316Z" fill="black"/>
<path d="M70.7437 60.0316L69.2812 59.2368L69.2852 57.4922L70.7477 58.287L70.7437 60.0316Z" fill="#828282"/>
<path d="M59.4156 80.7893L57.9531 79.9945V78.2539L59.4156 79.0487V80.7893Z" fill="#828282"/>
<path d="M67.5093 65.7112L66.0469 64.9164L66.0508 63.1758L67.5133 63.9706L67.5093 65.7112Z" fill="black"/>
<path d="M56.1734 86.4691L54.7109 85.6743L54.7149 83.9297L56.1774 84.7245L56.1734 86.4691Z" fill="#828282"/>
<path d="M64.2749 69.6503L62.8125 68.8555L64.426 68.625L65.8884 69.4238L64.2749 69.6503Z" fill="black"/>
<path d="M72.3765 54.5761L70.9141 53.7813L72.5275 53.5508L73.99 54.3496L72.3765 54.5761Z" fill="#B4B4B4"/>
<path d="M72.3765 54.5761L70.9141 53.7813L72.5275 53.5508L73.99 54.3496L72.3765 54.5761Z" fill="black"/>
<path d="M69.1343 62.0003L67.6719 61.2055L67.6758 59.4609L69.1383 60.2557L69.1343 62.0003Z" fill="black"/>
<path d="M69.1343 62.0003L67.6719 61.2055L67.6758 59.4609L69.1383 60.2557L69.1343 62.0003Z" fill="#828282"/>
<path d="M57.7984 81.0135L56.3359 80.2187L57.9534 79.9922L59.4158 80.787L57.7984 81.0135Z" fill="#B4B4B4"/>
<path d="M62.6499 73.3636L61.1875 72.5688L61.1915 70.8242L62.6539 71.619L62.6499 73.3636Z" fill="#828282"/>
<path d="M62.6578 71.619L61.1953 70.8242L62.8088 70.5977L64.2712 71.3925L62.6578 71.619Z" fill="#B4B4B4"/>
<path d="M51.3218 92.3808L49.8594 91.582L51.4768 91.3555L52.9393 92.1503L51.3218 92.3808Z" fill="#B4B4B4"/>
<path d="M75.5985 55.8672L75.5945 57.6078L75.5905 59.3524L75.5865 61.0931L73.9731 61.3196L72.3556 61.5461L70.7422 61.7766L70.7462 60.032L70.7501 58.2874L70.7541 56.5467L72.3676 56.3202L73.981 56.0937L75.5985 55.8672Z" fill="black"/>
<path d="M70.7593 56.5448L69.2969 55.75L70.9103 55.5234L72.3728 56.3182L70.7593 56.5448Z" fill="black"/>
<path d="M70.7515 58.2854L69.2891 57.4906L69.293 55.75L70.7555 56.5448L70.7515 58.2854Z" fill="black"/>
<path d="M70.7593 56.5448L69.2969 55.75L70.9103 55.5234L72.3728 56.3182L70.7593 56.5448Z" fill="#B4B4B4"/>
<path d="M70.7515 58.2854L69.2891 57.4906L69.293 55.75L70.7555 56.5448L70.7515 58.2854Z" fill="#828282"/>
<path d="M77.2122 55.6391L77.2082 57.3798L77.2042 59.1244L77.2003 60.865V62.6056L75.5828 62.8361L73.9694 63.0626L72.3559 63.2892L70.7424 63.5157L69.125 63.7422L69.129 62.0016L69.1329 60.257V58.5124L69.1369 56.7717L69.1409 55.0311L70.7583 54.8046L72.3718 54.5781L73.9853 54.3515L75.6027 54.1211L77.2161 53.8945L77.2122 55.6391Z" fill="black"/>
<path d="M73.9853 54.3515L75.6027 54.1211L77.2161 53.8945L77.2122 55.6391L77.2082 57.3798L77.2042 59.1244L77.2003 60.865V62.6056L75.5828 62.8361L73.9694 63.0626L72.3559 63.2892L70.7424 63.5157L69.125 63.7422L69.129 62.0016L69.1329 60.257V58.5124L69.1369 56.7717L69.1409 55.0311L70.7583 54.8046L72.3718 54.5781L73.9853 54.3515Z" fill="#DFDFDF"/>
<path d="M75.5945 57.6078L75.5905 59.3524L75.5865 61.0931L73.9731 61.3196L72.3556 61.5461L70.7422 61.7766L70.7462 60.032L70.7501 58.2874L70.7541 56.5467L72.3676 56.3202L73.981 56.0937L75.5985 55.8672L75.5945 57.6078Z" fill="#DFDFDF"/>
<path d="M59.4156 79.0433L57.9531 78.2485L57.9571 76.5039L59.4195 77.2987L59.4156 79.0433Z" fill="#828282"/>
<path d="M59.4156 77.3026L57.9531 76.5078L59.5666 76.2812L61.029 77.0761L59.4156 77.3026Z" fill="#B4B4B4"/>
<path d="M67.5093 63.969L66.0469 63.1742L66.0508 61.4336L67.5133 62.2284L67.5093 63.969Z" fill="black"/>
<path d="M56.1734 84.7269L54.7109 83.9321L54.7149 82.1875L56.1774 82.9863L56.1734 84.7269Z" fill="#828282"/>
<path d="M64.2749 69.6527L62.8125 68.8579L62.8165 67.1133L64.2789 67.9081L64.2749 69.6527Z" fill="#828282"/>
<path d="M72.3765 52.8339L70.9141 52.0391L72.5275 51.8086L73.99 52.6074L72.3765 52.8339Z" fill="black"/>
<path d="M69.1343 60.2582L67.6719 59.4634V57.7188L69.1343 58.5136V60.2582Z" fill="black"/>
<path d="M69.1343 60.2582L67.6719 59.4634V57.7188L69.1343 58.5136V60.2582Z" fill="#828282"/>
<path d="M57.7984 81.012L56.3359 80.2172L56.3399 78.4766L57.8024 79.2714L57.7984 81.012Z" fill="black"/>
<path d="M65.8921 65.9378L64.4297 65.143L64.4337 63.4023L65.8961 64.1972L65.8921 65.9378Z" fill="#828282"/>
<path d="M62.6578 71.6175L61.1953 70.8227L61.1993 69.082L62.6617 69.8768L62.6578 71.6175Z" fill="black"/>
<path d="M70.7593 54.8026L69.2969 54.0078L70.9103 53.7812L72.3728 54.5761L70.7593 54.8026Z" fill="#B4B4B4"/>
<path d="M70.7593 54.8026L69.2969 54.0078L70.9103 53.7812L72.3728 54.5761L70.7593 54.8026Z" fill="black"/>
<path d="M67.5171 62.2269L66.0547 61.4321V59.6875L67.5171 60.4863V62.2269Z" fill="black"/>
<path d="M56.1812 82.9847L54.7188 82.1859L54.7227 80.4453L56.1852 81.2401L56.1812 82.9847Z" fill="#828282"/>
<path d="M64.2828 66.162L62.8203 65.3671L64.4338 65.1406L65.8962 65.9354L64.2828 66.162Z" fill="#B4B4B4"/>
<path d="M61.0406 73.5902L59.5781 72.7954L59.5821 71.0508L61.0445 71.8456L61.0406 73.5902Z" fill="black"/>
<path d="M61.0406 71.8455L59.5781 71.0507L61.1916 70.8242L62.654 71.619L61.0406 71.8455Z" fill="black"/>
<path d="M49.7046 92.6034L48.2422 91.8086L49.8556 91.5781L51.3181 92.3769L49.7046 92.6034Z" fill="#B4B4B4"/>
<path d="M69.1343 58.512L67.6719 57.7172L67.6758 55.9766L69.1383 56.7714L69.1343 58.512Z" fill="black"/>
<path d="M69.1343 58.512L67.6719 57.7172L67.6758 55.9766L69.1383 56.7714L69.1343 58.512Z" fill="#828282"/>
<path d="M57.7984 79.2738L56.3359 78.479V76.7344L57.7984 77.5292V79.2738Z" fill="black"/>
<path d="M62.6656 69.8793L61.2031 69.0844V67.3398L62.6656 68.1386V69.8793Z" fill="black"/>
<path d="M62.6656 68.1386L61.2031 67.3398L62.8206 67.1133L64.283 67.9081L62.6656 68.1386Z" fill="black"/>
<path d="M70.7553 53.0604L69.2969 52.2656L70.9103 52.0391L72.3728 52.8339L70.7553 53.0604Z" fill="black"/>
<path d="M59.4234 75.5628L57.9609 74.7641L57.9649 73.0234L59.4274 73.8182L59.4234 75.5628Z" fill="black"/>
<path d="M59.4234 73.8143L57.9609 73.0195L59.5744 72.793L61.0368 73.5878L59.4234 73.8143Z" fill="black"/>
<path d="M67.5171 60.4887L66.0547 59.6899L66.0587 57.9453L67.5211 58.7441L67.5171 60.4887Z" fill="black"/>
<path d="M56.1812 81.2386L54.7188 80.4438L54.7227 78.7031L56.1852 79.4979L56.1812 81.2386Z" fill="#828282"/>
<path d="M64.2828 66.1604L62.8203 65.3656L62.8243 63.625L64.2867 64.4198L64.2828 66.1604Z" fill="black"/>
<path d="M64.2906 64.4237L62.8281 63.6289L64.4416 63.4023L65.904 64.1972L64.2906 64.4237Z" fill="black"/>
<path d="M69.1421 55.0291L67.6797 54.2343L69.2971 54.0078L70.7596 54.8026L69.1421 55.0291Z" fill="black"/>
<path d="M69.1343 56.7737L67.6719 55.9789L67.6758 54.2383L69.1383 55.0331L69.1343 56.7737Z" fill="black"/>
<path d="M69.1421 55.0291L67.6797 54.2343L69.2971 54.0078L70.7596 54.8026L69.1421 55.0291Z" fill="#B4B4B4"/>
<path d="M69.1343 56.7737L67.6719 55.9789L67.6758 54.2383L69.1383 55.0331L69.1343 56.7737Z" fill="#828282"/>
<path d="M57.8062 75.787L56.3438 74.9922L57.9612 74.7617L59.4236 75.5605L57.8062 75.787Z" fill="black"/>
<path d="M65.8999 62.4535L64.4375 61.6587V59.9141L65.8999 60.7128V62.4535Z" fill="#828282"/>
<path d="M59.4234 73.8168L57.9609 73.0219L57.9649 71.2773L59.4274 72.0722L59.4234 73.8168Z" fill="#828282"/>
<path d="M48.0874 92.8338L46.625 92.039L48.2385 91.8125L49.7009 92.6073L48.0874 92.8338Z" fill="#B4B4B4"/>
<path d="M67.5249 58.7425L66.0625 57.9438L66.0665 56.2031L67.5289 56.9979L67.5249 58.7425Z" fill="black"/>
<path d="M56.1812 77.7557L54.7188 76.9609L56.3322 76.7344L57.7947 77.5292L56.1812 77.7557Z" fill="#B4B4B4"/>
<path d="M64.2906 64.4222L62.8281 63.6274L62.8321 61.8867L64.2945 62.6815L64.2906 64.4222Z" fill="#828282"/>
<path d="M64.2906 62.6815L62.8281 61.8867L64.4416 61.6602L65.904 62.455L64.2906 62.6815Z" fill="#B4B4B4"/>
<path d="M69.1499 53.287L67.6875 52.4921L69.3049 52.2656L70.7634 53.0604L69.1499 53.287Z" fill="black"/>
<path d="M57.8062 74.0448L56.3438 73.25L57.9612 73.0234L59.4236 73.8182L57.8062 74.0448Z" fill="#B4B4B4"/>
<path d="M65.8999 60.7153L64.4375 59.9165L64.4415 58.1719L65.9039 58.9707L65.8999 60.7153Z" fill="#828282"/>
<path d="M54.5718 79.7245L53.1094 78.9296L54.7228 78.7031L56.1853 79.4979L54.5718 79.7245Z" fill="black"/>
<path d="M62.6656 66.391L61.2031 65.5922L61.2071 63.8516L62.6695 64.6464L62.6656 66.391Z" fill="#828282"/>
<path d="M62.6656 64.6463L61.2031 63.8515L62.8206 63.625L64.283 64.4198L62.6656 64.6463Z" fill="#B4B4B4"/>
<path d="M67.5249 57.0003L66.0625 56.2055L66.0665 54.4648L67.5289 55.2597L67.5249 57.0003Z" fill="black"/>
<path d="M56.189 76.0135L54.7266 75.2187L56.34 74.9922L57.8025 75.787L56.189 76.0135Z" fill="black"/>
<path d="M64.2906 62.68L62.8281 61.8852V60.1406L64.2906 60.9394V62.68Z" fill="black"/>
<path d="M52.9546 81.6932L51.4922 80.8984L53.1056 80.6719L54.5681 81.4667L52.9546 81.6932Z" fill="black"/>
<path d="M52.9546 81.6932L51.4922 80.8984L53.1056 80.6719L54.5681 81.4667L52.9546 81.6932Z" fill="#B4B4B4"/>
<path d="M61.0484 68.3636L59.5859 67.5648L59.5899 65.8242L61.0524 66.619L61.0484 68.3636Z" fill="#828282"/>
<path d="M61.0484 66.6191L59.5859 65.8242L61.1994 65.5938L62.6618 66.3925L61.0484 66.6191Z" fill="#B4B4B4"/>
<path d="M57.814 72.2987L56.3516 71.5039L57.969 71.2773L59.4314 72.0722L57.814 72.2987Z" fill="black"/>
<path d="M46.4781 93.0565L45.0156 92.2617L46.6331 92.0352L48.0955 92.83L46.4781 93.0565Z" fill="#B4B4B4"/>
<path d="M65.9078 58.9691L64.4453 58.1703L64.4493 56.4297L65.9117 57.2245L65.9078 58.9691Z" fill="#828282"/>
<path d="M54.5718 77.9823L53.1094 77.1875L54.7228 76.9609L56.1853 77.7557L54.5718 77.9823Z" fill="#B4B4B4"/>
<path d="M62.6734 62.908L61.2109 62.1132L62.8284 61.8867L64.2908 62.6815L62.6734 62.908Z" fill="black"/>
<path d="M62.6656 64.6487L61.2031 63.8539L61.2071 62.1133L62.6695 62.9081L62.6656 64.6487Z" fill="black"/>
<path d="M51.3374 83.662L49.875 82.8671L51.4924 82.6406L52.9549 83.4354L51.3374 83.662Z" fill="black"/>
<path d="M51.3374 83.662L49.875 82.8671L51.4924 82.6406L52.9549 83.4354L51.3374 83.662Z" fill="#B4B4B4"/>
<path d="M59.4312 70.3323L57.9688 69.5375L57.9727 67.7969L59.4352 68.5917L59.4312 70.3323Z" fill="#828282"/>
<path d="M59.4312 68.5878L57.9688 67.793L59.5822 67.5625L61.0447 68.3613L59.4312 68.5878Z" fill="#B4B4B4"/>
<path d="M67.5249 55.2582L66.0625 54.4634L66.0665 52.7188L67.5289 53.5136L67.5249 55.2582Z" fill="black"/>
<path d="M67.5328 53.5135L66.0703 52.7187L67.6838 52.4922L69.1462 53.287L67.5328 53.5135Z" fill="black"/>
<path d="M56.1968 74.2674L54.7344 73.4726L56.3478 73.2461L57.8103 74.0409L56.1968 74.2674Z" fill="#B4B4B4"/>
<path d="M64.2906 60.9378L62.8281 60.1391L62.8321 58.3984L64.2945 59.1932L64.2906 60.9378Z" fill="black"/>
<path d="M52.9546 79.951L51.4922 79.1562L53.1096 78.9297L54.5721 79.7245L52.9546 79.951Z" fill="black"/>
<path d="M61.0484 66.6214L59.5859 65.8266L59.5899 64.082L61.0524 64.8768L61.0484 66.6214Z" fill="black"/>
<path d="M61.0562 64.8729L59.5938 64.0781L61.2072 63.8516L62.6697 64.6464L61.0562 64.8729Z" fill="black"/>
<path d="M57.814 70.5565L56.3516 69.7617L57.965 69.5352L59.4275 70.33L57.814 70.5565Z" fill="#B4B4B4"/>
<path d="M65.9078 57.2229L64.4453 56.4281L64.4493 54.6875L65.9117 55.4823L65.9078 57.2229Z" fill="#828282"/>
<path d="M54.5796 76.2401L53.1172 75.4453L54.7306 75.2188L56.1931 76.0136L54.5796 76.2401Z" fill="black"/>
<path d="M54.5718 77.9808L53.1094 77.1859L53.1133 75.4453L54.5758 76.2401L54.5718 77.9808Z" fill="black"/>
<path d="M51.3374 81.9237L49.875 81.125L51.4924 80.8984L52.9549 81.6932L51.3374 81.9237Z" fill="black"/>
<path d="M51.3374 81.9237L49.875 81.125L51.4924 80.8984L52.9549 81.6932L51.3374 81.9237Z" fill="#B4B4B4"/>
<path d="M59.4312 68.5902L57.9688 67.7954L57.9727 66.0508L59.4352 66.8456L59.4312 68.5902Z" fill="black"/>
<path d="M61.0549 66.6211L61.051 68.3657L59.4375 68.5922L59.4415 66.8476L61.0549 66.6211Z" fill="black"/>
<path d="M59.439 66.8455L57.9766 66.0507L59.59 65.8242L61.0525 66.619L59.439 66.8455Z" fill="black"/>
<path d="M48.1031 89.348L46.6406 88.5492V86.8086L48.1031 87.6034V89.348Z" fill="black"/>
<path d="M48.1031 89.348L46.6406 88.5492V86.8086L48.1031 87.6034V89.348Z" fill="#828282"/>
<path d="M56.1968 72.5292L54.7344 71.7304L56.3478 71.5039L57.8103 72.2987L56.1968 72.5292Z" fill="black"/>
<path d="M44.8609 93.283L43.3984 92.4882L45.0119 92.2617L46.4743 93.0565L44.8609 93.283Z" fill="#B4B4B4"/>
<path d="M49.7203 83.8924L48.2578 83.0976L49.8713 82.8711L51.3337 83.6659L49.7203 83.8924Z" fill="black"/>
<path d="M49.7203 83.8924L48.2578 83.0976L49.8713 82.8711L51.3337 83.6659L49.7203 83.8924Z" fill="#B4B4B4"/>
<path d="M57.8218 68.8182L56.3594 68.0234L57.9728 67.7969L59.4353 68.5917L57.8218 68.8182Z" fill="black"/>
<path d="M46.4781 91.3128L45.0156 90.518L45.0196 88.7773L46.482 89.5722L46.4781 91.3128Z" fill="black"/>
<path d="M46.4781 91.3128L45.0156 90.518L45.0196 88.7773L46.482 89.5722L46.4781 91.3128Z" fill="#828282"/>
<path d="M65.9156 55.4847L64.4531 54.6899L64.4571 52.9453L65.9195 53.7401L65.9156 55.4847Z" fill="#828282"/>
<path d="M54.5796 74.498L53.1172 73.6992L54.7306 73.4727L56.1931 74.2675L54.5796 74.498Z" fill="#B4B4B4"/>
<path d="M62.6734 59.4198L61.2109 58.625L62.8284 58.3984L64.2908 59.1932L62.6734 59.4198Z" fill="#B4B4B4"/>
<path d="M51.3453 80.1776L49.8828 79.3828L51.4963 79.1562L52.9587 79.9511L51.3453 80.1776Z" fill="black"/>
<path d="M59.439 66.8441L57.9766 66.0493L57.9805 64.3047L59.443 65.0995L59.439 66.8441Z" fill="#828282"/>
<path d="M48.1031 87.6019L46.6406 86.8071L46.6446 85.0625L48.107 85.8573L48.1031 87.6019Z" fill="black"/>
<path d="M48.1031 87.6019L46.6406 86.8071L46.6446 85.0625L48.107 85.8573L48.1031 87.6019Z" fill="#828282"/>
<path d="M56.2046 70.783L54.7422 69.9882L56.3556 69.7617L57.8181 70.5565L56.2046 70.783Z" fill="#B4B4B4"/>
<path d="M44.8609 93.2855L43.3984 92.4907L43.4024 90.7461L44.8649 91.5409L44.8609 93.2855Z" fill="black"/>
<path d="M52.9624 78.2073L51.5 77.4125L51.504 75.6719L52.9664 76.4667L52.9624 78.2073Z" fill="#828282"/>
<path d="M61.0562 63.1331L59.5938 62.3383L59.5977 60.5977L61.0602 61.3925L61.0562 63.1331Z" fill="#828282"/>
<path d="M49.7281 82.1503L48.2656 81.3515L49.8791 81.125L51.3415 81.9238L49.7281 82.1503Z" fill="#B4B4B4"/>
<path d="M49.7281 82.1503L48.2656 81.3515L49.8791 81.125L51.3415 81.9238L49.7281 82.1503Z" fill="black"/>
<path d="M57.8218 67.0721L56.3594 66.2773L57.9768 66.0508L59.4393 66.8456L57.8218 67.0721Z" fill="#B4B4B4"/>
<path d="M46.4781 89.5746L45.0156 88.7798L45.0196 87.0352L46.482 87.83L46.4781 89.5746Z" fill="#828282"/>
<path d="M46.4781 89.5746L45.0156 88.7798L45.0196 87.0352L46.482 87.83L46.4781 89.5746Z" fill="black"/>
<path d="M54.5874 72.7558L53.125 71.957L54.7385 71.7305L56.2009 72.5292L54.5874 72.7558Z" fill="black"/>
<path d="M51.3453 78.4354L49.8828 77.6406L51.4963 77.4141L52.9587 78.2089L51.3453 78.4354Z" fill="#B4B4B4"/>
<path d="M59.439 65.0979L57.9766 64.3031L57.9805 62.5625L59.443 63.3573L59.439 65.0979Z" fill="#828282"/>
<path d="M59.4468 63.3612L57.9844 62.5664L59.5978 62.3398L61.0603 63.1347L59.4468 63.3612Z" fill="#B4B4B4"/>
<path d="M48.1031 85.8558L46.6406 85.0609L46.6446 83.3203L48.107 84.1151L48.1031 85.8558Z" fill="black"/>
<path d="M48.1031 84.1151L46.6406 83.3203L48.2541 83.0938L49.7165 83.8886L48.1031 84.1151Z" fill="#B4B4B4"/>
<path d="M48.1031 85.8558L46.6406 85.0609L46.6446 83.3203L48.107 84.1151L48.1031 85.8558Z" fill="#828282"/>
<path d="M46.4859 87.8285L45.0234 87.0337V85.2891L46.4859 86.0839V87.8285Z" fill="black"/>
<path d="M46.4859 87.8285L45.0234 87.0337V85.2891L46.4859 86.0839V87.8285Z" fill="#828282"/>
<path d="M48.1109 82.3769L46.6484 81.5821L48.2619 81.3516L49.7243 82.1503L48.1109 82.3769Z" fill="#B4B4B4"/>
<path d="M48.1109 82.3769L46.6484 81.5821L48.2619 81.3516L49.7243 82.1503L48.1109 82.3769Z" fill="black"/>
<path d="M46.4859 86.0862L45.0234 85.2914L45.0274 83.5508L46.4899 84.3456L46.4859 86.0862Z" fill="black"/>
<path d="M46.4859 86.0862L45.0234 85.2914L45.0274 83.5508L46.4899 84.3456L46.4859 86.0862Z" fill="#828282"/>
<path d="M46.4937 82.6034L45.0312 81.8086L46.6487 81.582L48.1111 82.3768L46.4937 82.6034Z" fill="black"/>
<path d="M46.4937 82.6034L45.0312 81.8086L46.6487 81.582L48.1111 82.3768L46.4937 82.6034Z" fill="#B4B4B4"/>
<path d="M46.4937 84.344L45.0312 83.5492L45.0352 81.8086L46.4977 82.6034L46.4937 84.344Z" fill="#828282"/>
<path d="M46.4937 84.344L45.0312 83.5492L45.0352 81.8086L46.4977 82.6034L46.4937 84.344Z" fill="black"/>
<path d="M54.5719 79.7265L56.1854 79.5L56.1814 81.2406L56.1774 82.9852L56.1735 84.7259L56.1695 86.4705V88.2111L56.1655 89.9517L56.1615 91.6963L54.5481 91.9229L52.9346 92.1494L51.3172 92.3799L49.7037 92.6064L48.0903 92.8329L46.4728 93.0594L44.8594 93.2859L44.8633 91.5413L44.8673 89.8007L44.8713 88.0561V86.3155L44.8753 84.5709L44.8792 82.8302L44.8832 81.0896L46.4967 80.8631L48.1141 80.6326L49.7276 80.4061L51.341 80.1796L52.9545 79.953L54.5719 79.7265Z" fill="black"/>
<path d="M54.5637 83.2094L54.5598 84.9501L54.5558 86.6947L54.5518 88.4353V90.1759L52.9384 90.4064L51.3209 90.633L49.7075 90.8595L48.094 91.086L46.4766 91.3125L46.4805 89.5719L46.4845 87.8273V86.0827L46.4885 84.342L46.4925 82.6014L48.1099 82.3749L49.7234 82.1484L51.3368 81.9219L52.9543 81.6914L54.5677 81.4648L54.5637 83.2094Z" fill="black"/>
<path d="M51.3368 81.9219L52.9543 81.6914L54.5677 81.4648L54.5637 83.2094L54.5598 84.9501L54.5558 86.6947L54.5518 88.4353V90.1759L52.9384 90.4064L51.3209 90.633L49.7075 90.8595L48.094 91.086L46.4766 91.3125L46.4805 89.5719L46.4845 87.8273V86.0827L46.4885 84.342L46.4925 82.6014L48.1099 82.3749L49.7234 82.1484L51.3368 81.9219Z" fill="white"/>
<path d="M52.9499 85.1781L52.9459 86.9227L52.9419 88.6634L51.3285 88.8899L49.715 89.1164L48.1016 89.3469V87.6023L48.1055 85.8577L48.1095 84.1171L49.723 83.8905L51.3364 83.664L52.9539 83.4375L52.9499 85.1781Z" fill="#DFDFDF"/>
<path d="M56.2007 69.0448L54.7422 68.25L56.3556 68.0234L57.8181 68.8182L56.2007 69.0448Z" fill="black"/>
<path d="M44.8687 91.5393L43.4062 90.7445L43.4102 89.0039L44.8727 89.7987L44.8687 91.5393Z" fill="black"/>
<path d="M64.3062 53.9666L62.8438 53.1718L64.4572 52.9453L65.9197 53.7401L64.3062 53.9666Z" fill="black"/>
<path d="M52.9703 74.7245L51.5078 73.9257L53.1213 73.6992L54.5837 74.498L52.9703 74.7245Z" fill="#B4B4B4"/>
<path d="M52.9624 76.4691L51.5 75.6743L51.504 73.9297L52.9664 74.7285L52.9624 76.4691Z" fill="#828282"/>
<path d="M61.064 61.3949L59.6016 60.6001V58.8555L61.064 59.6503V61.3949Z" fill="#828282"/>
<path d="M61.064 59.6463L59.6016 58.8515L61.215 58.625L62.6775 59.4198L61.064 59.6463Z" fill="#B4B4B4"/>
<path d="M49.7281 80.4041L48.2656 79.6093L49.8791 79.3828L51.3415 80.1776L49.7281 80.4041Z" fill="black"/>
<path d="M57.8218 67.0707L56.3594 66.2759L56.3633 64.5312L57.8258 65.33L57.8218 67.0707Z" fill="black"/>
<path d="M54.5874 71.0096L53.125 70.2148L54.7385 69.9883L56.2009 70.7831L54.5874 71.0096Z" fill="#B4B4B4"/>
<path d="M54.5874 72.7543L53.125 71.9555L53.129 70.2148L54.5914 71.0097L54.5874 72.7543Z" fill="#828282"/>
<path d="M62.6812 57.68L61.2188 56.8813L61.2227 55.1406L62.6852 55.9354L62.6812 57.68Z" fill="#828282"/>
<path d="M62.6812 55.9393L61.2188 55.1445L62.8362 54.918L64.2986 55.7128L62.6812 55.9393Z" fill="#B4B4B4"/>
<path d="M62.6812 55.9393L61.2188 55.1445L62.8362 54.918L64.2986 55.7128L62.6812 55.9393Z" fill="black"/>
<path d="M62.6812 57.68L61.2188 56.8813L61.2227 55.1406L62.6852 55.9354L62.6812 57.68Z" fill="black"/>
<path d="M51.3453 78.4339L49.8828 77.6391V75.8984L51.3453 76.6932V78.4339Z" fill="black"/>
<path d="M59.4468 63.3597L57.9844 62.5648L57.9883 60.8242L59.4508 61.619L59.4468 63.3597Z" fill="black"/>
<path d="M44.8687 89.7972L43.4062 89.0024L43.4102 87.2578L44.8727 88.0526L44.8687 89.7972Z" fill="black"/>
<path d="M52.9703 74.727L51.5078 73.9282L51.5118 72.1836L52.9742 72.9824L52.9703 74.727Z" fill="black"/>
<path d="M61.064 59.6488L59.6016 58.854L59.6055 57.1094L61.068 57.9082L61.064 59.6488Z" fill="black"/>
<path d="M57.8296 63.5838L56.3672 62.789L57.9846 62.5625L59.4471 63.3573L57.8296 63.5838Z" fill="black"/>
<path d="M57.8218 65.3324L56.3594 64.5336L56.3633 62.793L57.8258 63.5878L57.8218 65.3324Z" fill="black"/>
<path d="M54.5874 71.012L53.125 70.2172V68.4766L54.5874 69.2714V71.012Z" fill="black"/>
<path d="M54.5874 69.2713L53.125 68.4765L54.7424 68.25L56.2009 69.0448L54.5874 69.2713Z" fill="black"/>
<path d="M62.689 54.1932L61.2266 53.3984L62.844 53.1719L64.3064 53.9667L62.689 54.1932Z" fill="black"/>
<path d="M51.3531 74.955L49.8906 74.1602L51.5081 73.9297L52.9705 74.7285L51.3531 74.955Z" fill="black"/>
<path d="M59.4468 59.8768L57.9844 59.082L59.5978 58.8555L61.0603 59.6503L59.4468 59.8768Z" fill="black"/>
<path d="M48.1187 80.6346L46.6562 79.8398L48.2697 79.6133L49.7322 80.4081L48.1187 80.6346Z" fill="black"/>
<path d="M56.2046 67.2972L54.7422 66.5024L54.7462 64.7617L56.2086 65.5565L56.2046 67.2972Z" fill="#828282"/>
<path d="M44.8687 88.055L43.4062 87.2602V85.5156L44.8687 86.3144V88.055Z" fill="black"/>
<path d="M52.9781 71.2362L51.5156 70.4414L53.1291 70.2148L54.5915 71.0097L52.9781 71.2362Z" fill="black"/>
<path d="M49.7281 76.9198L48.2656 76.125L49.8791 75.8984L51.3415 76.6932L49.7281 76.9198Z" fill="#B4B4B4"/>
<path d="M49.7281 78.6604L48.2656 77.8656V76.125L49.7281 76.9198V78.6604Z" fill="#828282"/>
<path d="M57.8374 61.8455L56.375 61.0507L57.9924 60.8242L59.4509 61.619L57.8374 61.8455Z" fill="#B4B4B4"/>
<path d="M54.5874 67.5252L53.125 66.7304L54.7385 66.5039L56.2009 67.2987L54.5874 67.5252Z" fill="#B4B4B4"/>
<path d="M51.3531 74.9535L49.8906 74.1587L49.8946 72.4141L51.357 73.2089L51.3531 74.9535Z" fill="#828282"/>
<path d="M51.3531 73.2089L49.8906 72.4141L51.5081 72.1836L52.9705 72.9824L51.3531 73.2089Z" fill="#B4B4B4"/>
<path d="M51.3531 73.2074L49.8906 72.4126L49.8946 70.668L51.357 71.4668L51.3531 73.2074Z" fill="black"/>
<path d="M51.3555 73.207L52.973 72.9805L52.969 74.7251L51.3516 74.9516L51.3555 73.207Z" fill="#DFDFDF"/>
<path d="M59.4546 58.1347L57.9922 57.3399L59.6056 57.1094L61.0681 57.9082L59.4546 58.1347Z" fill="#B4B4B4"/>
<path d="M48.1187 78.8885L46.6562 78.0937L48.2737 77.8672L49.7361 78.662L48.1187 78.8885Z" fill="#B4B4B4"/>
<path d="M56.2124 65.5589L54.75 64.7641L54.754 63.0195L56.2164 63.8143L56.2124 65.5589Z" fill="#828282"/>
<path d="M44.8687 86.3128L43.4062 85.5141L43.4102 83.7734L44.8727 84.5682L44.8687 86.3128Z" fill="black"/>
<path d="M52.9781 71.2347L51.5156 70.4398V68.6992L52.9781 69.494V71.2347Z" fill="#828282"/>
<path d="M61.0718 56.1605L59.6094 55.3657L59.6133 53.6211L61.0758 54.4159L61.0718 56.1605Z" fill="black"/>
<path d="M61.0718 54.4198L59.6094 53.625L61.2228 53.3984L62.6853 54.1932L61.0718 54.4198Z" fill="black"/>
<path d="M57.8374 61.848L56.375 61.0532L56.379 59.3086L57.8414 60.1034L57.8374 61.848Z" fill="black"/>
<path d="M57.8374 60.1034L56.375 59.3086L57.9885 59.082L59.4509 59.8768L57.8374 60.1034Z" fill="black"/>
<path d="M46.4937 80.8612L45.0312 80.0625L46.6487 79.8359L48.1111 80.6307L46.4937 80.8612Z" fill="black"/>
<path d="M59.4624 56.3924L58 55.5976L59.6135 55.3711L61.0759 56.1659L59.4624 56.3924Z" fill="black"/>
<path d="M56.2124 63.8128L54.75 63.018L54.754 61.2773L56.2164 62.0722L56.2124 63.8128Z" fill="#828282"/>
<path d="M44.8765 84.5706L43.4141 83.7758L43.418 82.0352L44.8805 82.83L44.8765 84.5706Z" fill="black"/>
<path d="M52.9781 67.7518L51.5156 66.957L53.1291 66.7305L54.5915 67.5253L52.9781 67.7518Z" fill="#B4B4B4"/>
<path d="M49.7437 73.4354L48.2812 72.6406L49.8947 72.4141L51.3572 73.2089L49.7437 73.4354Z" fill="black"/>
<path d="M57.8374 58.3612L56.375 57.5664L57.9924 57.3398L59.4549 58.1347L57.8374 58.3612Z" fill="#B4B4B4"/>
<path d="M46.5015 79.1151L45.0391 78.3164L46.6525 78.0898L48.115 78.8847L46.5015 79.1151Z" fill="#B4B4B4"/>
<path d="M51.3609 69.7205L49.8984 68.9257L51.5119 68.6992L52.9743 69.494L51.3609 69.7205Z" fill="black"/>
<path d="M56.2203 62.0746L54.7578 61.2798L54.7618 59.5352L56.2242 60.33L56.2203 62.0746Z" fill="#828282"/>
<path d="M44.8843 81.0878L43.4219 80.293L45.0353 80.0625L46.4978 80.8613L44.8843 81.0878Z" fill="black"/>
<path d="M44.8843 82.8284L43.4219 82.0336L43.4258 80.293L44.8883 81.0878L44.8843 82.8284Z" fill="black"/>
<path d="M49.7437 71.6933L48.2812 70.8945L49.8947 70.668L51.3572 71.4668L49.7437 71.6933Z" fill="#B4B4B4"/>
<path d="M49.7437 73.4339L48.2812 72.6391L48.2852 70.8945L49.7477 71.6933L49.7437 73.4339Z" fill="#828282"/>
<path d="M57.8374 56.6191L56.375 55.8203L57.9924 55.5938L59.4549 56.3886L57.8374 56.6191Z" fill="black"/>
<path d="M57.8374 58.3597L56.375 57.5649L56.379 55.8203L57.8414 56.6191L57.8374 58.3597Z" fill="black"/>
<path d="M46.5015 79.1175L45.0391 78.3188L45.043 76.5781L46.5055 77.3729L46.5015 79.1175Z" fill="black"/>
<path d="M51.3609 67.9784L49.8984 67.1836L51.5159 66.957L52.9783 67.7518L51.3609 67.9784Z" fill="#B4B4B4"/>
<path d="M56.2203 60.3284L54.7578 59.5336V57.793L56.2203 58.5878V60.3284Z" fill="#828282"/>
<path d="M49.7515 69.951L48.2891 69.1562L49.9025 68.9297L51.365 69.7245L49.7515 69.951Z" fill="black"/>
<path d="M48.1265 73.6604L46.6641 72.8656L46.668 71.125L48.1305 71.9198L48.1265 73.6604Z" fill="black"/>
<path d="M56.2203 58.5863L54.7578 57.7915L54.7618 56.0469L56.2242 56.8457L56.2203 58.5863Z" fill="#828282"/>
<path d="M44.8882 77.5995L43.4297 76.8046L45.0431 76.5781L46.5056 77.3729L44.8882 77.5995Z" fill="#B4B4B4"/>
<path d="M49.7515 68.2049L48.2891 67.4101L49.9025 67.1836L51.365 67.9784L49.7515 68.2049Z" fill="#B4B4B4"/>
<path d="M46.5093 73.8885L45.0469 73.0937L46.6643 72.8672L48.1268 73.662L46.5093 73.8885Z" fill="black"/>
<path d="M48.1343 70.1737L46.6719 69.3789L48.2853 69.1523L49.7478 69.9472L48.1343 70.1737Z" fill="black"/>
<path d="M56.2281 56.8481L54.7656 56.0493L54.7696 54.3047L56.232 55.1035L56.2281 56.8481Z" fill="#828282"/>
<path d="M44.8882 77.6018L43.4297 76.807V75.0664L44.8921 75.8612L44.8882 77.6018Z" fill="black"/>
<path d="M46.5171 72.1463L45.0547 71.3515L46.6721 71.125L48.1346 71.9198L46.5171 72.1463Z" fill="#B4B4B4"/>
<path d="M48.1343 68.4315L46.6719 67.6367L48.2853 67.4102L49.7478 68.205L48.1343 68.4315Z" fill="#B4B4B4"/>
<path d="M44.8999 74.1151L43.4375 73.3203L45.051 73.0938L46.5134 73.8886L44.8999 74.1151Z" fill="black"/>
<path d="M44.8921 75.8597L43.4297 75.0649L43.4337 73.3203L44.8961 74.1151L44.8921 75.8597Z" fill="black"/>
<path d="M46.5171 70.4081L45.0547 69.6093L46.6721 69.3828L48.1346 70.1776L46.5171 70.4081Z" fill="black"/>
<path d="M54.6187 55.33L53.1562 54.5352L54.7697 54.3047L56.2322 55.1035L54.6187 55.33Z" fill="black"/>
<path d="M44.8999 72.3729L43.4375 71.5781L45.051 71.3516L46.5134 72.1464L44.8999 72.3729Z" fill="#B4B4B4"/>
<path d="M53.0015 57.2987L51.5391 56.5039L53.1525 56.2773L54.615 57.0722L53.0015 57.2987Z" fill="black"/>
<path d="M53.0015 57.2987L51.5391 56.5039L53.1525 56.2773L54.615 57.0722L53.0015 57.2987Z" fill="#B4B4B4"/>
<path d="M46.5249 68.662L45.0625 67.8632L46.676 67.6367L48.1384 68.4315L46.5249 68.662Z" fill="#B4B4B4"/>
<path d="M51.3843 59.2674L49.9219 58.4726L51.5353 58.2461L52.9978 59.0409L51.3843 59.2674Z" fill="black"/>
<path d="M51.3843 59.2674L49.9219 58.4726L51.5353 58.2461L52.9978 59.0409L51.3843 59.2674Z" fill="#B4B4B4"/>
<path d="M44.8999 72.3714L43.4375 71.5766L43.4415 69.832L44.9039 70.6308L44.8999 72.3714Z" fill="black"/>
<path d="M44.8999 70.6347L43.4375 69.8359L45.051 69.6094L46.5134 70.4082L44.8999 70.6347Z" fill="black"/>
<path d="M53.0015 55.5565L51.5391 54.7617L53.1525 54.5352L54.615 55.33L53.0015 55.5565Z" fill="black"/>
<path d="M51.3843 57.5252L49.9219 56.7304L51.5393 56.5039L53.0018 57.2987L51.3843 57.5252Z" fill="black"/>
<path d="M51.3843 57.5252L49.9219 56.7304L51.5393 56.5039L53.0018 57.2987L51.3843 57.5252Z" fill="#B4B4B4"/>
<path d="M48.1421 64.9496L46.6797 64.1548L46.6837 62.4102L48.1461 63.2089L48.1421 64.9496Z" fill="black"/>
<path d="M48.1421 64.9496L46.6797 64.1548L46.6837 62.4102L48.1461 63.2089L48.1421 64.9496Z" fill="#828282"/>
<path d="M44.9078 68.8886L43.4453 68.0898L45.0588 67.8633L46.5212 68.6621L44.9078 68.8886Z" fill="#B4B4B4"/>
<path d="M49.7593 59.494L48.2969 58.6992L49.9143 58.4727L51.3768 59.2675L49.7593 59.494Z" fill="black"/>
<path d="M49.7593 59.494L48.2969 58.6992L49.9143 58.4727L51.3768 59.2675L49.7593 59.494Z" fill="#B4B4B4"/>
<path d="M46.5249 66.9183L45.0625 66.1234L45.0665 64.3828L46.5289 65.1776L46.5249 66.9183Z" fill="black"/>
<path d="M46.5249 66.9183L45.0625 66.1234L45.0665 64.3828L46.5289 65.1776L46.5249 66.9183Z" fill="#828282"/>
<path d="M51.3843 55.783L49.9219 54.9882L51.5393 54.7617L53.0018 55.5565L51.3843 55.783Z" fill="black"/>
<path d="M48.1499 63.2114L46.6875 62.4126L46.6915 60.668L48.1539 61.4668L48.1499 63.2114Z" fill="black"/>
<path d="M48.1499 63.2114L46.6875 62.4126L46.6915 60.668L48.1539 61.4668L48.1499 63.2114Z" fill="#828282"/>
<path d="M44.9078 68.8871L43.4453 68.0883V66.3477L44.9078 67.1425V68.8871Z" fill="black"/>
<path d="M49.7671 57.7518L48.3047 56.957L49.9181 56.7305L51.3806 57.5253L49.7671 57.7518Z" fill="#B4B4B4"/>
<path d="M49.7671 57.7518L48.3047 56.957L49.9181 56.7305L51.3806 57.5253L49.7671 57.7518Z" fill="black"/>
<path d="M46.5249 65.1761L45.0625 64.3813L45.0665 62.6406L46.5289 63.4354L46.5249 65.1761Z" fill="#828282"/>
<path d="M46.5249 65.1761L45.0625 64.3813L45.0665 62.6406L46.5289 63.4354L46.5249 65.1761Z" fill="black"/>
<path d="M48.1499 61.4652L46.6875 60.6664V58.9258L48.1499 59.7206V61.4652Z" fill="black"/>
<path d="M48.1499 59.7166L46.6875 58.9218L48.301 58.6953L49.7634 59.4901L48.1499 59.7166Z" fill="black"/>
<path d="M52.9929 59.043L52.989 60.7836V62.5282L52.985 64.2728L51.3675 64.4993L49.7541 64.7258L48.1406 64.9524L48.1446 63.2117L48.1486 61.4671V59.7225L49.762 59.496L51.3795 59.2695L52.9929 59.043Z" fill="black"/>
<path d="M48.1499 59.7166L46.6875 58.9218L48.301 58.6953L49.7634 59.4901L48.1499 59.7166Z" fill="#B4B4B4"/>
<path d="M48.1499 61.4652L46.6875 60.6664V58.9258L48.1499 59.7206V61.4652Z" fill="#828282"/>
<path d="M44.9078 67.1448L43.4453 66.35L43.4493 64.6094L44.9117 65.4042L44.9078 67.1448Z" fill="black"/>
<path d="M49.7749 56.0096L48.3125 55.2148L49.926 54.9883L51.3884 55.7831L49.7749 56.0096Z" fill="black"/>
<path d="M46.5249 63.4378L45.0625 62.643L45.0665 60.8984L46.5289 61.6932L46.5249 63.4378Z" fill="black"/>
<path d="M46.5249 63.4378L45.0625 62.643L45.0665 60.8984L46.5289 61.6932L46.5249 63.4378Z" fill="#828282"/>
<path d="M48.1499 57.9784L46.6875 57.1836L48.301 56.957L49.7634 57.7518L48.1499 57.9784Z" fill="black"/>
<path d="M48.1499 57.9784L46.6875 57.1836L48.301 56.957L49.7634 57.7518L48.1499 57.9784Z" fill="#B4B4B4"/>
<path d="M44.9156 65.4026L43.4531 64.6078L43.4571 62.8672L44.9195 63.662L44.9156 65.4026Z" fill="black"/>
<path d="M46.5328 61.6918L45.0703 60.8969L45.0743 59.1523L46.5367 59.9511L46.5328 61.6918Z" fill="#828282"/>
<path d="M46.5328 61.6918L45.0703 60.8969L45.0743 59.1523L46.5367 59.9511L46.5328 61.6918Z" fill="black"/>
<path d="M48.1578 56.2362L46.6953 55.4414L48.3088 55.2148L49.7712 56.0097L48.1578 56.2362Z" fill="black"/>
<path d="M44.9156 63.6644L43.4531 62.8696L43.4571 61.125L44.9195 61.9198L44.9156 63.6644Z" fill="black"/>
<path d="M46.5406 59.9496L45.0781 59.1508L45.0821 57.4102L46.5445 58.205L46.5406 59.9496Z" fill="black"/>
<path d="M46.5406 58.2088L45.0781 57.414L46.6916 57.1875L48.154 57.9823L46.5406 58.2088Z" fill="black"/>
<path d="M46.5406 59.9496L45.0781 59.1508L45.0821 57.4102L46.5445 58.205L46.5406 59.9496Z" fill="#828282"/>
<path d="M46.5406 58.2088L45.0781 57.414L46.6916 57.1875L48.154 57.9823L46.5406 58.2088Z" fill="#B4B4B4"/>
<path d="M44.9156 61.9183L43.4531 61.1235L43.4571 59.3789L44.9195 60.1777L44.9156 61.9183Z" fill="black"/>
<path d="M46.5406 56.4627L45.0781 55.6679L46.6956 55.4414L48.158 56.2362L46.5406 56.4627Z" fill="black"/>
<path d="M44.9234 60.18L43.4609 59.3813V57.6406L44.9234 58.4354V60.18Z" fill="black"/>
<path d="M44.9312 56.6893L43.4688 55.8945L45.0822 55.668L46.5447 56.4628L44.9312 56.6893Z" fill="black"/>
<path d="M44.9234 58.4339L43.4609 57.6391L43.4649 55.8945L44.9274 56.6893L44.9234 58.4339Z" fill="black"/>
<path d="M38.486 50.6279L38.3906 101.162L85.2088 94.5808L85.3042 44.0469L38.486 50.6279ZM44.912 67.144V65.4034L44.92 63.6627V61.9181L44.9279 60.1775V58.4369L44.9359 56.6923L46.5493 56.4658L48.1668 56.2392L49.7802 56.0127L51.3937 55.7862L53.0111 55.5597L54.6246 55.3332L56.238 55.1066V56.8512L56.2301 58.5919V60.3325L56.2221 62.0771V63.8177L56.2142 65.5584V67.299L54.5968 67.5255L52.9833 67.752L51.3659 67.9785L49.7524 68.2051L48.1389 68.4316L46.5215 68.6581L44.9081 68.8846V67.144M56.1824 81.2399V82.9806L56.1745 84.7212V86.4658L56.1665 88.2064V89.947L56.1586 91.6917L54.5451 91.9182L52.9316 92.1447L51.3142 92.3712L49.7007 92.5977L48.0873 92.8243L46.4699 93.0508L44.8564 93.2773V91.5327L44.8643 89.7921V88.0514L44.8723 86.3068V84.5662L44.8802 82.8256V81.0849L46.4977 80.8584L48.1151 80.6319L49.7286 80.4054L51.342 80.1789L52.9595 79.9523L54.5729 79.7258L56.1864 79.4993V81.2399M75.5479 83.7436L73.9305 83.9701V85.7107L75.5439 85.4842V87.2248L75.536 88.9694L73.9186 89.196L72.3051 89.4225L70.6916 89.649L69.0742 89.8755V88.1309L67.4647 88.3574L65.8512 88.584V90.3286L64.2338 90.5551V88.8105L62.6204 89.037V90.7816L61.0029 91.0081V89.2635L61.0109 87.5229L59.3974 87.7494V89.49L59.3895 91.2346L57.772 91.4612V89.7166L57.78 87.9759V86.2353L57.7879 84.4907V82.7501L59.4093 82.5235V80.7829L57.7959 81.0094V79.2688L57.8038 77.5242L56.1904 77.7507L54.5769 77.9772V76.2366L56.1943 76.0101L57.8078 75.7836L59.4252 75.557V73.8164L57.8118 74.0429L56.1983 74.2695L54.5848 74.496L52.9714 74.7225V76.4631L52.9634 78.2038L51.346 78.4303V76.6896L49.7365 76.9162V78.6568L48.1191 78.8833L46.5016 79.1098V77.3692L44.8922 77.5957V75.8551L44.9001 74.1105L46.5136 73.884L48.131 73.6575V71.9168L46.5175 72.1433L44.9041 72.3699V70.6292L46.5215 70.4027L48.1389 70.1762L49.7524 69.9497L51.3659 69.7232L52.9833 69.4966V71.2373L54.5928 71.0107V69.2701L56.2102 69.0436L57.8237 68.8171L59.4411 68.5906V66.8459L57.8277 67.0725V65.3318L57.8356 63.5912L59.453 63.3647V61.6241L57.8396 61.8506V60.106L59.461 59.8795L61.0745 59.6529V57.9123L59.465 58.1388L57.8475 58.3653V56.6247L59.4689 56.3982L61.0824 56.1717V54.4271L62.6998 54.2006L64.3173 53.974L65.9307 53.7475V55.4921L65.9228 57.2327V58.9734L65.9148 60.718V62.4586L64.2974 62.6851V64.4258L65.9069 64.1992V65.9399L64.2895 66.1664V64.4258L62.676 64.6523V66.3929L61.0586 66.6194V68.364L59.4411 68.5906V70.3312L57.8197 70.5577L56.2063 70.7842L54.5928 71.0107V72.7514L56.2023 72.5249L57.8157 72.2983L59.4332 72.0718V73.8164L61.0427 73.5899V71.8453L62.6601 71.6188V69.8781L62.668 68.1375L64.2855 67.911V69.6516L65.895 69.4251V67.6845L67.5124 67.458V69.1986L69.1219 68.9721V67.2314L70.7433 67.0049V68.7455L70.7353 70.4862V72.2308L70.7274 73.9714V75.712L70.7195 77.4566L69.102 77.6832V75.9386L69.11 74.1979L67.4965 74.4244L65.883 74.651V76.3916L65.8751 78.1362L67.4886 77.9097V79.6503L65.8711 79.8768V78.1362L64.2616 78.3627V80.1033L62.6402 80.3299V82.0705L64.2537 81.844V83.5846L65.8632 83.3581V81.6175L67.4806 81.3909V83.1316L69.0901 82.905V84.6497L70.7036 84.4231V82.6785L70.7115 80.9379L69.0941 81.1644V79.4238L70.7155 79.1973V80.9379L72.325 80.7114V78.9707L72.3329 77.2301L73.9464 77.0036L75.5638 76.7771V78.5177L75.5559 80.2583L77.1693 80.0318V81.7724L75.5519 81.999V83.7436M78.7709 86.7718L77.1574 86.9983V85.2577L78.7748 85.0312V86.7718M78.7907 76.3201V78.0607L77.1733 78.2872V76.5466L77.1812 74.802L78.7947 74.5755V76.3201M78.7947 72.8348L77.1812 73.0613L75.5678 73.2879V71.5472L75.5757 69.8026L73.9583 70.0292V71.7738L73.9503 73.5144L72.3369 73.7409V72.0003L72.3448 70.2557V68.515L72.3528 66.7744L73.9662 66.5479V68.2885L75.5797 68.062V66.3214L77.1971 66.0949V67.8355L75.5797 68.062V69.8026L77.1892 69.5761V71.3207L78.7987 71.0942V72.8348M78.8305 53.668V55.4087L78.8225 57.1493V58.8939L78.8146 60.6345V62.3752L78.8066 64.1158L77.1932 64.3423L75.5797 64.5688L73.9623 64.7953L72.3488 65.0219L70.7353 65.2484L69.1179 65.4749L67.5045 65.7014V63.9608L67.5124 62.2202V60.4795L67.5203 58.7349V56.9943L67.5283 55.2537V53.5091L69.1457 53.2825L70.7632 53.056L72.3766 52.8295L73.9901 52.603L75.6075 52.3765L77.221 52.1499L78.8344 51.9234V53.668" fill="white"/>
<path d="M78.7737 85.0352L78.7697 86.7758L77.1562 87.0023L77.1602 85.2617L78.7737 85.0352Z" fill="black"/>
<path d="M78.7933 74.5781L78.7893 76.3227L78.7853 78.0634L77.1719 78.2899L77.1758 76.5492L77.1798 74.8046L78.7933 74.5781Z" fill="black"/>
<path d="M72.3166 85.9399L70.7031 86.1664L70.7071 84.4257L72.3206 84.1992L72.3166 85.9399Z" fill="#DFDFDF"/>
<path d="M77.1877 69.5742L77.1838 71.3188L78.8012 71.0923L78.7972 72.8329L77.1838 73.0634L75.5703 73.2899V71.5453L75.5743 69.8007L77.1877 69.5742Z" fill="black"/>
<path d="M70.7112 79.1953L70.7072 80.9399L69.0938 81.1664L69.0977 79.4258L70.7112 79.1953Z" fill="black"/>
<path d="M65.8594 86.8461L65.8633 85.1054L67.4768 84.8789L67.4728 86.6195L65.8594 86.8461Z" fill="#DFDFDF"/>
<path d="M67.4728 86.6195L65.8594 86.8461L65.8633 85.1054L67.4768 84.8789L67.4728 86.6195Z" fill="black"/>
<path d="M73.9613 66.5469L73.9573 68.2875L75.5748 68.061L75.5708 69.8016L73.9534 70.0321V71.7727L73.9494 73.5173L72.3359 73.7439L72.3399 72.0032V70.2586L72.3439 68.514L72.3479 66.7734L73.9613 66.5469Z" fill="black"/>
<path d="M59.4024 84.2734L61.0159 84.0469L61.0119 85.7915L59.3984 86.018L59.4024 84.2734Z" fill="white"/>
<path d="M67.5002 70.9375L67.4963 72.6821L65.8828 72.9086L65.8868 71.164L67.5002 70.9375Z" fill="#DFDFDF"/>
<path d="M64.2737 73.1352L62.6562 73.3618L62.6602 71.6171L64.2737 71.3906V73.1352Z" fill="white"/>
<path d="M61.0275 78.8172V80.5579L59.4141 80.7844V79.0438L59.418 77.2992L61.0315 77.0726L62.645 76.8461L62.6489 75.1015L64.2664 74.875L64.2624 76.6196L64.2584 78.3602L62.641 78.5907L61.0275 78.8172Z" fill="white"/>
<path d="M65.8987 64.1953L65.8947 65.9359L64.2812 66.1625L64.2852 64.4218L65.8987 64.1953Z" fill="black"/>
<path d="M64.2933 62.6836L64.2893 64.4242L62.6719 64.6507L62.6758 62.9101L64.2933 62.6836Z" fill="black"/>
<path d="M77.2164 52.1484L78.8299 51.9219V53.6665L78.8259 55.4111L78.8219 57.1517L78.8179 58.8963L78.814 60.6369V62.3776L78.81 64.1222L77.1965 64.3487L75.5831 64.5752L73.9656 64.8017L72.3522 65.0283L70.7387 65.2548L69.1213 65.4813L67.5078 65.7078L67.5118 63.9672L67.5158 62.2266V60.4859L67.5197 58.7413L67.5237 56.9967L67.5277 55.2561L67.5317 53.5115L69.1451 53.285L70.7586 53.0585L72.376 52.8319L73.9895 52.6054L75.6029 52.3749L77.2164 52.1484Z" fill="black"/>
<path d="M62.6643 64.6484L62.6603 66.393L61.0469 66.6196L61.0508 64.875L62.6643 64.6484Z" fill="black"/>
<path d="M52.9778 69.4961V71.2367L54.5913 71.0102L54.5873 72.7548L56.2007 72.5283L57.8142 72.2978L59.4316 72.0713L59.4277 73.8159L57.8102 74.0424L56.1968 74.2729L54.5833 74.4994L52.9699 74.7259L52.9738 72.9813L51.3564 73.2078L51.3604 71.4672L49.7469 71.6937L49.7429 73.4344L51.3564 73.2078L51.3524 74.9525L52.9699 74.7259L52.9659 76.4666L52.9619 78.2072L51.3484 78.4337V76.6931L49.735 76.9196V78.6602L48.1175 78.8868L46.5041 79.1172L46.5081 77.3726L44.8906 77.5992L44.8946 75.8585L44.8986 74.1139L46.512 73.8874L48.1295 73.6609L48.1334 71.9203L46.516 72.1468L44.9025 72.3733L44.9065 70.6327L46.52 70.4061L48.1374 70.1757L49.7509 69.9491L51.3643 69.7226L52.9778 69.4961Z" fill="black"/>
<path d="M69.1153 67.2265L70.7327 67L70.7288 68.7406L70.7248 70.4852V72.2298L70.7208 73.9705L70.7168 75.7111L70.7129 77.4557L69.0954 77.6822L69.0994 75.9376L69.1034 74.197L67.4899 74.4235L65.8765 74.65L65.8725 76.3907L65.8685 78.1353L64.255 78.3618L64.259 76.6212L64.263 74.8765L62.6456 75.1031L62.6416 76.8477L61.0281 77.0742L59.4147 77.3007L59.4107 79.0453V80.7859L57.7933 81.0125L57.7972 79.2718V77.5272L56.1838 77.7538L54.5703 77.9803L54.5743 76.2396L56.1877 76.0131L57.8012 75.7866L59.4186 75.5601L59.4226 73.8155L61.0361 73.589L61.0401 71.8444L62.6535 71.6178L62.6495 73.3624L64.267 73.1359V71.3913L62.6535 71.6178L62.6575 69.8772V68.1366L64.2749 67.9061L64.2709 69.6507L65.8844 69.4242L65.8884 67.6796L67.5018 67.453L67.4979 69.1976L69.1113 68.9711L69.1153 67.2265Z" fill="black"/>
<path d="M52.9539 83.4375L52.9499 85.1781L52.9459 86.9227L52.9419 88.6634L51.3285 88.8899L49.715 89.1164L48.1016 89.3469V87.6023L48.1055 85.8577L48.1095 84.1171L49.723 83.8905L51.3364 83.664L52.9539 83.4375Z" fill="black"/>
<path d="M61.0549 64.8742L61.051 66.6188L59.4375 66.8453L59.4415 65.1007L59.4454 63.3601L61.0589 63.1336L61.0629 61.393V59.6484L62.6763 59.4218L64.2938 59.1953L64.2898 60.9399V62.6805L62.6724 62.9071L62.6684 64.6477L61.0549 64.8742Z" fill="white"/>
<path d="M64.3011 55.7109L64.2971 57.4516L62.6797 57.6821L62.6837 55.9375L64.3011 55.7109Z" fill="#DFDFDF"/>
<path d="M64.2971 57.4516L62.6797 57.6821L62.6837 55.9375L64.3011 55.7109L64.2971 57.4516Z" fill="black"/>
<path d="M59.4457 63.3594L59.4417 65.1L59.4377 66.8446L57.8203 67.0711L57.8243 65.3305L57.8283 63.5859L59.4457 63.3594Z" fill="black"/>
<path d="M59.4381 68.5898L59.4341 70.3305L57.8207 70.557L56.2072 70.7835L54.5938 71.01V69.2694L56.2072 69.0429L57.8246 68.8164L59.4381 68.5898Z" fill="black"/>
<path d="M61.059 59.6484V61.393L61.055 63.1337L59.4416 63.3602L59.4456 61.6196L57.8281 61.8461L57.8321 60.1015L59.4456 59.875L61.059 59.6484Z" fill="black"/>
<path d="M49.7462 71.6914L51.3596 71.4648L51.3556 73.2055L49.7422 73.432L49.7462 71.6914Z" fill="#DFDFDF"/>
<path d="M64.3057 53.9687L65.9191 53.7422L65.9152 55.4868L65.9112 57.2274L65.9072 58.972L65.9032 60.7166V62.4573L64.2898 62.6838V60.9432L64.2938 59.1985L62.6763 59.4251L61.0629 59.6516L61.0668 57.911L59.4534 58.1375L57.8359 58.364L57.8399 56.6234L59.4573 56.3929L61.0708 56.1664L61.0748 54.4217L62.6882 54.1952L64.3057 53.9687Z" fill="black"/>
<path d="M54.6106 58.8149L54.6066 60.5555V62.3001L54.6027 64.0447L54.5987 65.7853L52.9852 66.0118L51.3678 66.2384L49.7543 66.4649L48.1409 66.6914L46.5234 66.9179L46.5274 65.1773L46.5314 63.4367L46.5354 61.6921L46.5393 59.9514L46.5433 58.2068L48.1568 57.9803L49.7702 57.7538L51.3837 57.5273L53.0011 57.3007L54.6146 57.0742L54.6106 58.8149Z" fill="black"/>
<path d="M49.7543 66.4649L48.1409 66.6914L46.5234 66.9179L46.5274 65.1773L46.5314 63.4367L46.5354 61.6921L46.5393 59.9514L46.5433 58.2068L48.1568 57.9803L49.7702 57.7538L51.3837 57.5273L53.0011 57.3007L54.6146 57.0742L54.6106 58.8149L54.6066 60.5555V62.3001L54.6027 64.0447L54.5987 65.7853L52.9852 66.0118L51.3678 66.2384L49.7543 66.4649Z" fill="#DFDFDF"/>
<path d="M48.1446 63.2117L48.1486 61.4671V59.7225L49.762 59.496L51.3795 59.2695L52.9929 59.043L52.989 60.7836V62.5282L52.985 64.2728L51.3675 64.4993L49.7541 64.7258L48.1406 64.9524L48.1446 63.2117Z" fill="#DFDFDF"/>
<path d="M54.6148 55.3281L56.2283 55.1016L56.2243 56.8462L56.2203 58.5868V60.3274L56.2164 62.072L56.2124 63.8127L56.2084 65.5573L56.2045 67.2979L54.591 67.5244L52.9775 67.7509L51.3601 67.9775L49.7466 68.204L48.1332 68.4305L46.5197 68.661L44.9062 68.8875V67.1429L44.9102 65.4023L44.9142 63.6616L44.9182 61.917L44.9221 60.1764V58.4318L44.9261 56.6872L46.5396 56.4607L48.157 56.2342L49.7705 56.0076L51.3839 55.7811L53.0014 55.5546L54.6148 55.3281Z" fill="black"/>
<mask id="mask0_7665_3744" style="mask-type:luminance" maskUnits="userSpaceOnUse" x="113" y="117" width="8" height="8">
<path d="M115.755 124.212L113.656 123.072C116.466 122.65 118.739 119.952 118.731 117.047L120.829 118.187C120.833 121.092 118.564 123.791 115.755 124.212Z" fill="white"/>
</mask>
<g mask="url(#mask0_7665_3744)">
<path d="M115.755 124.211L113.656 123.07C114.181 122.991 114.686 122.836 115.158 122.609L117.257 123.75C116.784 123.972 116.279 124.131 115.755 124.211Z" fill="#14022B"/>
<path d="M117.262 123.75L115.164 122.61C115.458 122.471 115.744 122.308 116.015 122.121L118.113 123.262C117.843 123.448 117.56 123.611 117.262 123.75Z" fill="#13022A"/>
<path d="M118.114 123.262L116.016 122.122C116.234 121.971 116.441 121.804 116.64 121.629L118.738 122.769C118.539 122.948 118.332 123.111 118.114 123.262Z" fill="#120228"/>
<path d="M118.739 122.767L116.641 121.626C116.823 121.463 116.994 121.288 117.157 121.105L119.256 122.246C119.093 122.429 118.922 122.604 118.739 122.767Z" fill="#120227"/>
<path d="M119.255 122.244L117.156 121.104C117.315 120.921 117.466 120.73 117.605 120.531L119.704 121.672C119.565 121.87 119.414 122.061 119.255 122.244Z" fill="#110226"/>
<path d="M119.7 121.671L117.602 120.531C117.749 120.324 117.88 120.105 118.003 119.883L120.101 121.023C119.982 121.246 119.847 121.464 119.7 121.671Z" fill="#100224"/>
<path d="M120.106 121.026L118.008 119.885C118.147 119.623 118.27 119.352 118.373 119.07L120.472 120.211C120.368 120.489 120.245 120.763 120.106 121.026Z" fill="#100223"/>
<path d="M120.465 120.21L118.367 119.07C118.602 118.426 118.733 117.742 118.733 117.047L120.831 118.187C120.831 118.883 120.704 119.566 120.465 120.21Z" fill="#0F0222"/>
</g>
<path d="M76.5358 130.116L74.4375 128.976L113.665 123.07L115.76 124.211L76.5358 130.116Z" fill="#13022E"/>
<mask id="mask1_7665_3744" style="mask-type:luminance" maskUnits="userSpaceOnUse" x="71" y="128" width="6" height="3">
<path d="M73.7389 129.644L71.6406 128.504C72.4394 128.937 73.3971 129.124 74.4304 128.977L76.5287 130.117C75.4954 130.26 74.5377 130.078 73.7389 129.644Z" fill="white"/>
</mask>
<g mask="url(#mask1_7665_3744)">
<path d="M73.7389 129.644L71.6406 128.504C71.6923 128.532 71.74 128.56 71.7916 128.583L73.8899 129.724C73.8383 129.7 73.7866 129.672 73.7389 129.644Z" fill="#120228"/>
<path d="M73.8874 129.723L71.7891 128.582C72.0474 128.709 72.3216 128.809 72.6077 128.884L74.706 130.025C74.4199 129.949 74.1457 129.85 73.8874 129.723Z" fill="#13022A"/>
<path d="M74.7077 130.027L72.6094 128.887C73.1737 129.034 73.7857 129.07 74.4295 128.978L76.5278 130.119C75.888 130.21 75.272 130.17 74.7077 130.027Z" fill="#14022B"/>
</g>
<mask id="mask2_7665_3744" style="mask-type:luminance" maskUnits="userSpaceOnUse" x="69" y="124" width="5" height="6">
<path d="M73.7384 129.631L71.6401 128.49C70.277 127.747 69.3868 126.285 69.3828 124.473L71.4811 125.613C71.4851 127.425 72.3753 128.888 73.7384 129.631Z" fill="white"/>
</mask>
<g mask="url(#mask2_7665_3744)">
<path d="M73.7384 129.631L71.6401 128.49C70.277 127.747 69.3868 126.285 69.3828 124.473L71.4811 125.613C71.4851 127.425 72.3753 128.888 73.7384 129.631Z" fill="#858585"/>
</g>
<mask id="mask3_7665_3744" style="mask-type:luminance" maskUnits="userSpaceOnUse" x="67" y="124" width="6" height="8">
<path d="M72.8021 131.228L70.7038 130.087C68.8837 129.098 67.6954 127.147 67.6875 124.734L69.7858 125.875C69.7937 128.283 70.982 130.238 72.8021 131.228Z" fill="white"/>
</mask>
<g mask="url(#mask3_7665_3744)">
<path d="M72.8021 131.228L70.7038 130.087C68.8837 129.098 67.6954 127.147 67.6875 124.734L69.7858 125.875C69.7937 128.283 70.982 130.238 72.8021 131.228Z" fill="#0F0222"/>
</g>
<path d="M120.838 118.185L118.739 117.045L118.453 29.2422L120.547 30.3827L120.838 118.185Z" fill="#0F0221"/>
<mask id="mask4_7665_3744" style="mask-type:luminance" maskUnits="userSpaceOnUse" x="116" y="25" width="5" height="6">
<path d="M116.188 25.2188L118.286 26.3593C119.645 27.0985 120.543 28.5689 120.551 30.389L118.453 29.2484C118.449 27.4283 117.551 25.9579 116.188 25.2188Z" fill="white"/>
</mask>
<g mask="url(#mask4_7665_3744)">
<path d="M120.551 30.389L118.453 29.2484C118.449 27.4283 117.551 25.9579 116.188 25.2188L118.286 26.3593C119.645 27.0985 120.543 28.5689 120.551 30.389Z" fill="#0F0222"/>
</g>
<mask id="mask5_7665_3744" style="mask-type:luminance" maskUnits="userSpaceOnUse" x="113" y="24" width="6" height="3">
<path d="M113.352 24.7492C114.409 24.6022 115.386 24.785 116.197 25.2261L118.295 26.3666C117.485 25.9255 116.507 25.7427 115.45 25.8898C114.822 25.548 113.983 25.091 113.352 24.7492Z" fill="white"/>
</mask>
<g mask="url(#mask5_7665_3744)">
<path d="M115.45 25.8898L113.352 24.7493C114.011 24.6579 114.643 24.6936 115.219 24.8407L117.318 25.9812C116.741 25.8342 116.114 25.7944 115.45 25.8898Z" fill="#A8A8A8"/>
<path d="M117.317 25.9804L115.219 24.8398C115.509 24.9154 115.783 25.0187 116.045 25.1458L118.144 26.2864C117.881 26.1592 117.607 26.0559 117.317 25.9804Z" fill="#A3A3A3"/>
<path d="M118.145 26.289L116.047 25.1484C116.099 25.1723 116.15 25.2001 116.198 25.2279L118.296 26.3685C118.245 26.3406 118.197 26.3168 118.145 26.289Z" fill="#9E9E9E"/>
</g>
<mask id="mask6_7665_3744" style="mask-type:luminance" maskUnits="userSpaceOnUse" x="113" y="22" width="7" height="3">
<path d="M117.131 23.6328L119.229 24.7733C118.148 24.1852 116.849 23.9388 115.442 24.1375L113.344 22.9969C114.751 22.7982 116.05 23.0486 117.131 23.6328Z" fill="white"/>
</mask>
<g mask="url(#mask6_7665_3744)">
<path d="M115.442 24.1368L113.344 22.9962C114.222 22.8731 115.057 22.9247 115.824 23.1194L117.922 24.26C117.155 24.0613 116.32 24.0136 115.442 24.1368Z" fill="#14022B"/>
<path d="M117.926 24.2616L115.828 23.1211C116.214 23.2204 116.583 23.3556 116.929 23.5304L119.027 24.671C118.681 24.5001 118.312 24.365 117.926 24.2616Z" fill="#13022A"/>
<path d="M119.02 24.6679L116.922 23.5273C116.989 23.5631 117.057 23.5949 117.125 23.6346L119.223 24.7752C119.155 24.7394 119.088 24.7037 119.02 24.6679Z" fill="#120228"/>
</g>
<path d="M107.364 27.1066L105.266 25.9661L113.353 24.75L115.447 25.8905L107.364 27.1066Z" fill="#B4B4B4"/>
<mask id="mask7_7665_3744" style="mask-type:luminance" maskUnits="userSpaceOnUse" x="103" y="25" width="5" height="4">
<path d="M103.789 27.8089C103.789 26.867 104.449 26.0841 105.263 25.9609L107.362 27.1015C106.547 27.2247 105.887 28.0076 105.887 28.9494C105.887 28.9613 105.887 28.9733 105.887 28.9852C105.188 28.6037 104.488 28.2261 103.789 27.8446C103.789 27.8327 103.789 27.8208 103.789 27.8089Z" fill="white"/>
</mask>
<g mask="url(#mask7_7665_3744)">
<path d="M105.715 29.883L103.617 28.7424C103.724 28.4444 103.784 28.1304 103.784 27.8085C103.784 27.5661 103.828 27.3356 103.903 27.125L106.002 28.2655C105.922 28.4762 105.882 28.7067 105.882 28.9491C105.882 29.271 105.823 29.5889 105.715 29.883Z" fill="#858585"/>
<path d="M106.005 28.2659L103.906 27.1254C103.938 27.0379 103.974 26.9545 104.018 26.875L106.116 28.0156C106.072 28.095 106.036 28.1785 106.005 28.2659Z" fill="#8A8A8A"/>
<path d="M106.114 28.015L104.016 26.8744C104.051 26.8069 104.091 26.7433 104.135 26.6797L106.233 27.8202C106.189 27.8798 106.15 27.9474 106.114 28.015Z" fill="#8F8F8F"/>
<path d="M106.239 27.8191L104.141 26.6786C104.18 26.6229 104.224 26.5673 104.272 26.5156L106.37 27.6562C106.322 27.7078 106.283 27.7635 106.239 27.8191Z" fill="#949494"/>
<path d="M106.364 27.6587L104.266 26.5181C104.313 26.4665 104.361 26.4148 104.413 26.3711L106.511 27.5116C106.459 27.5593 106.412 27.607 106.364 27.6587Z" fill="#999999"/>
<path d="M106.512 27.5062L104.414 26.3657C104.47 26.314 104.529 26.2703 104.589 26.2266L106.687 27.3671C106.628 27.4108 106.568 27.4545 106.512 27.5062Z" fill="#9E9E9E"/>
<path d="M106.692 27.3695L104.594 26.2289C104.669 26.1773 104.749 26.1296 104.832 26.0898L106.93 27.2304C106.847 27.2701 106.768 27.3138 106.692 27.3695Z" fill="#A3A3A3"/>
<path d="M106.926 27.2326L104.828 26.0921C104.963 26.0285 105.106 25.9848 105.257 25.9609L107.356 27.1015C107.205 27.1253 107.062 27.169 106.926 27.2326Z" fill="#A8A8A8"/>
</g>
<mask id="mask8_7665_3744" style="mask-type:luminance" maskUnits="userSpaceOnUse" x="101" y="27" width="5" height="5">
<path d="M103.794 27.8438C104.493 28.2253 105.193 28.6028 105.892 28.9843C105.876 30.3077 104.839 31.5277 103.559 31.7184L101.461 30.5779C102.741 30.3871 103.778 29.1671 103.794 27.8438Z" fill="white"/>
</mask>
<g mask="url(#mask8_7665_3744)">
<path d="M103.559 31.7223L101.461 30.5817C101.703 30.546 101.934 30.4744 102.152 30.3711L104.251 31.5116C104.032 31.615 103.798 31.6865 103.559 31.7223Z" fill="#A8A8A8"/>
<path d="M104.255 31.5116L102.156 30.3711C102.291 30.3075 102.423 30.232 102.546 30.1445L104.644 31.2851C104.521 31.3725 104.39 31.448 104.255 31.5116Z" fill="#A3A3A3"/>
<path d="M104.645 31.285L102.547 30.1445C102.646 30.0769 102.742 29.9974 102.833 29.918L104.931 31.0585C104.84 31.142 104.745 31.2175 104.645 31.285Z" fill="#9E9E9E"/>
<path d="M104.926 31.0587L102.828 29.9181C102.912 29.8426 102.991 29.7631 103.067 29.6797L105.165 30.8202C105.089 30.9037 105.01 30.9832 104.926 31.0587Z" fill="#999999"/>
<path d="M105.169 30.8208L103.07 29.6803C103.146 29.5968 103.213 29.5094 103.277 29.418L105.375 30.5585C105.312 30.6499 105.244 30.7374 105.169 30.8208Z" fill="#949494"/>
<path d="M105.38 30.5597L103.281 29.4191C103.349 29.3238 103.408 29.2244 103.464 29.1211L105.562 30.2616C105.507 30.365 105.447 30.4643 105.38 30.5597Z" fill="#8F8F8F"/>
<path d="M105.559 30.2602L103.461 29.1197C103.525 29.0004 103.58 28.8733 103.628 28.7461L105.726 29.8866C105.678 30.0138 105.623 30.141 105.559 30.2602Z" fill="#8A8A8A"/>
<path d="M105.723 29.883L103.625 28.7424C103.732 28.4444 103.792 28.1304 103.792 27.8085C103.792 27.5661 103.836 27.3356 103.911 27.125L106.009 28.2655C105.93 28.4762 105.89 28.7067 105.89 28.9491C105.89 29.271 105.831 29.5889 105.723 29.883Z" fill="#858585"/>
</g>
<path d="M89.0983 33.9003L87 32.7597L101.466 30.5859L103.56 31.7265L89.0983 33.9003Z" fill="#B4B4B4"/>
<mask id="mask9_7665_3744" style="mask-type:luminance" maskUnits="userSpaceOnUse" x="86" y="32" width="4" height="2">
<path d="M86.9844 32.7695H86.9963L89.0946 33.9101C89.0906 33.9101 89.0866 33.9101 89.0827 33.9101C88.3832 33.5286 87.6838 33.151 86.9844 32.7695Z" fill="white"/>
</mask>
<g mask="url(#mask9_7665_3744)">
<path d="M88.2702 33.8632L86.1719 32.7227C86.4302 32.7902 86.7084 32.8061 86.9985 32.7624L89.0968 33.9029C88.8067 33.9427 88.5285 33.9268 88.2702 33.8632Z" fill="#A8A8A8"/>
</g>
<mask id="mask10_7665_3744" style="mask-type:luminance" maskUnits="userSpaceOnUse" x="85" y="32" width="5" height="2">
<path d="M85.7266 32.5508C86.0882 32.7455 86.5174 32.829 86.9784 32.7654C87.6778 33.1469 88.3772 33.5244 89.0767 33.9059C88.6157 33.9695 88.1865 33.8861 87.8249 33.6913C87.197 33.3496 86.3584 32.8925 85.7266 32.5508Z" fill="white"/>
</mask>
<g mask="url(#mask10_7665_3744)">
<path d="M87.8249 33.6913L85.7266 32.5508C85.7504 32.5627 85.7743 32.5746 85.7941 32.5865L87.8924 33.7271C87.8686 33.7152 87.8447 33.7033 87.8249 33.6913Z" fill="#9E9E9E"/>
<path d="M87.8952 33.7265L85.7969 32.5859C85.9121 32.6416 86.0353 32.6893 86.1625 32.7211L88.2608 33.8616C88.1336 33.8298 88.0104 33.7821 87.8952 33.7265Z" fill="#A3A3A3"/>
<path d="M88.2624 33.8593L86.1641 32.7188C86.4224 32.7863 86.7006 32.8022 86.9907 32.7585L89.089 33.899C88.7989 33.9388 88.5207 33.9229 88.2624 33.8593Z" fill="#A8A8A8"/>
</g>
<mask id="mask11_7665_3744" style="mask-type:luminance" maskUnits="userSpaceOnUse" x="84" y="30" width="4" height="4">
<path d="M87.8074 33.6798L85.7091 32.5393C85.0812 32.1975 84.6758 31.5259 84.6719 30.6953L86.7702 31.8359C86.7702 32.6664 87.1795 33.338 87.8074 33.6798Z" fill="white"/>
</mask>
<g mask="url(#mask11_7665_3744)">
<path d="M87.8074 33.6798L85.7091 32.5393C85.0812 32.1975 84.6758 31.5259 84.6719 30.6953L86.7702 31.8359C86.7702 32.6664 87.1795 33.338 87.8074 33.6798Z" fill="#0F0222"/>
</g>
<mask id="mask12_7665_3744" style="mask-type:luminance" maskUnits="userSpaceOnUse" x="84" y="29" width="3" height="3">
<path d="M84 29.418L86.0983 30.5585C86.5036 30.7771 86.7699 31.2341 86.7699 31.8342L84.6716 30.6936C84.6716 30.0936 84.4014 29.6365 84 29.418Z" fill="white"/>
</mask>
<g mask="url(#mask12_7665_3744)">
<path d="M86.7699 31.8342L84.6716 30.6936C84.6716 30.0936 84.4014 29.6365 84 29.418L86.0983 30.5585C86.5036 30.7771 86.7699 31.2341 86.7699 31.8342Z" fill="#0F0222"/>
</g>
<mask id="mask13_7665_3744" style="mask-type:luminance" maskUnits="userSpaceOnUse" x="83" y="29" width="4" height="2">
<path d="M83.1875 29.2843C83.4935 29.2406 83.7796 29.2962 84.0141 29.4234L86.1124 30.5639C85.8779 30.4367 85.5918 30.3811 85.2858 30.4248C84.6579 30.0831 83.8194 29.626 83.1875 29.2843Z" fill="white"/>
</mask>
<g mask="url(#mask13_7665_3744)">
<path d="M85.2858 30.425L83.1875 29.2845C83.3783 29.2567 83.565 29.2686 83.7319 29.3123L85.8302 30.4529C85.6633 30.4091 85.4805 30.3972 85.2858 30.425Z" fill="#A8A8A8"/>
<path d="M85.8327 30.4531L83.7344 29.3125C83.8178 29.3324 83.8973 29.3642 83.9728 29.3999L86.0711 30.5405C85.9956 30.5047 85.9161 30.4729 85.8327 30.4531Z" fill="#A3A3A3"/>
<path d="M86.067 30.539L83.9688 29.3984C83.9688 29.3984 83.9966 29.4143 84.0125 29.4223L86.1108 30.5628C86.1108 30.5628 86.0829 30.5469 86.067 30.539Z" fill="#9E9E9E"/>
</g>
<path d="M76.2662 31.7927L74.1719 30.6522L83.1929 29.2891L85.2912 30.4296L76.2662 31.7927Z" fill="#B4B4B4"/>
<path d="M76.2584 30.0341L74.1641 28.8936L113.34 22.9961L115.438 24.1366L76.2584 30.0341Z" fill="#13022E"/>
<path d="M71.4782 125.615L69.3839 124.474L69.0938 36.6719L71.192 37.8124L71.4782 125.615Z" fill="#828282"/>
<path d="M69.7907 125.873L67.6924 124.732L67.4062 36.9258L69.5006 38.0663L69.7907 125.873Z" fill="#0F0221"/>
<mask id="mask14_7665_3744" style="mask-type:luminance" maskUnits="userSpaceOnUse" x="69" y="30" width="8" height="8">
<path d="M71.1921 37.8136L69.0938 36.6731C69.0858 33.7681 71.355 31.0737 74.1646 30.6484L76.2629 31.789C73.4533 32.2102 71.1801 34.9086 71.1921 37.8136Z" fill="white"/>
</mask>
<g mask="url(#mask14_7665_3744)">
<path d="M71.192 37.8118L69.0938 36.6713C69.0938 35.9758 69.2209 35.2883 69.4554 34.6445L71.5537 35.7851C71.3192 36.4289 71.1881 37.1164 71.192 37.8118Z" fill="#858585"/>
<path d="M71.5514 35.7873L69.4531 34.6467C69.5565 34.3685 69.6796 34.0943 69.8187 33.832L71.917 34.9726C71.7779 35.2349 71.6547 35.5051 71.5514 35.7873Z" fill="#8A8A8A"/>
<path d="M71.9186 34.9758L69.8203 33.8353C69.9395 33.6127 70.0747 33.3942 70.2217 33.1875L72.32 34.3281C72.1729 34.5347 72.0418 34.7533 71.9186 34.9758Z" fill="#8F8F8F"/>
<path d="M72.317 34.33L70.2188 33.1894C70.3578 32.9907 70.5089 32.8 70.6678 32.6172L72.7661 33.7577C72.6072 33.9405 72.4561 34.1313 72.317 34.33Z" fill="#949494"/>
<path d="M72.7702 33.7549L70.6719 32.6143C70.8348 32.4315 71.0057 32.2567 71.1885 32.0938L73.2868 33.2343C73.104 33.3972 72.9331 33.5721 72.7702 33.7549Z" fill="#999999"/>
<path d="M73.2858 33.2349L71.1875 32.0943C71.3862 31.9155 71.5929 31.7526 71.8114 31.6016L73.9097 32.7421C73.6911 32.8931 73.4845 33.0561 73.2858 33.2349Z" fill="#9E9E9E"/>
<path d="M73.9108 32.7387L71.8125 31.5982C72.0827 31.4114 72.3649 31.2485 72.6629 31.1094L74.7612 32.2499C74.4672 32.389 74.181 32.552 73.9108 32.7387Z" fill="#A3A3A3"/>
<path d="M74.7624 32.25L72.6641 31.1094C73.137 30.8869 73.6417 30.7279 74.1662 30.6484L76.2645 31.789C75.74 31.8685 75.2353 32.0235 74.7624 32.25Z" fill="#A8A8A8"/>
</g>
<path d="M122.247 30.1305L122.534 117.933C122.546 121.8 119.509 125.404 115.766 125.965L76.5897 131.862C72.8144 132.395 69.7981 129.712 69.7862 125.873L69.5 38.0667C69.4881 34.2 72.5243 30.5955 76.2639 30.0352L115.444 24.1377C119.219 23.6052 122.236 26.2876 122.247 30.1305ZM115.762 124.212C118.571 123.791 120.845 121.092 120.837 118.187L120.551 30.3849C120.543 27.4957 118.285 25.4928 115.496 25.8823L107.361 27.1063C106.546 27.2295 105.886 28.0124 105.886 28.8588C105.89 30.2935 104.845 31.5334 103.554 31.7281L89.1199 33.9019C87.8124 34.0847 86.7752 33.1627 86.7712 31.8394C86.7712 30.8975 86.1155 30.3173 85.3048 30.4326L76.2678 31.7957C73.4582 32.2169 71.185 34.9153 71.197 37.8203L71.4831 125.623C71.491 128.512 73.7483 130.515 76.5381 130.125L115.762 124.22" fill="#1A0339"/>
<path d="M115.446 25.8901C118.284 25.4927 120.541 27.4956 120.549 30.3847L120.835 118.187C120.839 121.092 118.57 123.791 115.76 124.212L76.5841 130.109C73.7467 130.507 71.4894 128.504 71.4815 125.615L71.1953 37.8122C71.1874 34.9072 73.4566 32.2128 76.2662 31.7876L85.2873 30.4284C86.1139 30.3132 86.7656 30.8934 86.7696 31.7359C86.7736 33.1626 87.8108 34.0806 89.0904 33.9018L103.556 31.724C104.848 31.5292 105.893 30.2893 105.889 28.9501C105.889 28.0082 106.548 27.2254 107.363 27.1022L115.446 25.8861V25.8901Z" fill="white"/>
<mask id="mask15_7665_3744" style="mask-type:luminance" maskUnits="userSpaceOnUse" x="67" y="28" width="10" height="11">
<path d="M69.4968 38.0705L67.3985 36.93C67.3866 33.0632 70.4227 29.4588 74.1623 28.8984L76.2606 30.039C72.521 30.5993 69.4848 34.2038 69.4968 38.0705Z" fill="white"/>
</mask>
<g mask="url(#mask15_7665_3744)">
<path d="M69.4967 38.0693L67.3984 36.9288C67.3984 36.0028 67.5693 35.0928 67.8833 34.2344L69.9816 35.3749C69.6676 36.2333 69.4967 37.1434 69.4967 38.0693Z" fill="#0F0222"/>
<path d="M69.9811 35.3739L67.8828 34.2334C68.0179 33.8598 68.1848 33.4982 68.3716 33.1484L70.4699 34.289C70.2831 34.6387 70.1202 35.0003 69.9811 35.3739Z" fill="#100223"/>
<path d="M70.4733 34.292L68.375 33.1515C68.5379 32.8534 68.7168 32.5633 68.9115 32.2852L71.0098 33.4257C70.8151 33.7039 70.6362 33.994 70.4733 34.292Z" fill="#100224"/>
<path d="M71.0045 33.4231L68.9062 32.2825C69.093 32.0163 69.2917 31.7619 69.5063 31.5195L71.6046 32.6601C71.39 32.9025 71.1913 33.1568 71.0045 33.4231Z" fill="#110226"/>
<path d="M71.6061 32.6642L69.5078 31.5237C69.7264 31.2773 69.9569 31.0428 70.1993 30.8242L72.2976 31.9648C72.0552 32.1833 71.8247 32.4178 71.6061 32.6642Z" fill="#120227"/>
<path d="M72.3014 31.9643L70.2031 30.8238C70.4654 30.5853 70.7436 30.3667 71.0377 30.1641L73.136 31.3046C72.8459 31.5073 72.5677 31.7259 72.3014 31.9643Z" fill="#120228"/>
<path d="M73.1374 31.3079L71.0391 30.1674C71.4007 29.917 71.7782 29.6984 72.1717 29.5156L74.27 30.6562C73.8765 30.843 73.495 31.0615 73.1374 31.3079Z" fill="#13022A"/>
<path d="M74.2624 30.651L72.1641 29.5104C72.7959 29.2124 73.4675 29.0057 74.159 28.8984L76.2573 30.039C75.5619 30.1423 74.8903 30.3529 74.2624 30.651Z" fill="#14022B"/>
</g>
<path d="M78.3672 61.5227L84.7177 60.3822L107.521 56.2849L113.832 55.1523V63.4382V90.6167L78.3672 96.9871V61.5227Z" stroke="black" stroke-width="1.98702" stroke-miterlimit="10"/>
<path fill-rule="evenodd" clip-rule="evenodd" d="M81.9766 73.9005L83.3238 73.6581L84.671 73.4157L86.0182 73.1733L87.3654 72.9309L88.7086 72.6885L90.0558 72.446L91.399 72.2036V62.7852L90.0558 63.0276L88.7086 63.27L87.3654 63.5124L86.0182 63.7548L84.671 63.9972L83.3238 64.2397L81.9766 64.4821V73.9005ZM83.3238 72.3149L84.671 72.0725L86.0182 71.8301L87.3654 71.5877L88.7086 71.3452L90.0558 71.1028V64.3748L88.7086 64.6172L87.3654 64.8596L86.0182 65.102L84.671 65.3444L83.3238 65.5869V72.3149Z" fill="black"/>
<path fill-rule="evenodd" clip-rule="evenodd" d="M98.1192 68.3064L99.4624 68.064V61.3359L98.1192 61.5784L96.772 61.8208L95.4248 62.0632V63.4104L94.0816 63.6528L92.7344 63.8952V65.2424L94.0816 65L95.4248 64.7576V66.1048L96.772 65.8624L98.1192 65.62V68.3104M96.772 64.5152L98.1192 64.2728V62.9256L96.772 63.168V64.5152Z" fill="black"/>
<path fill-rule="evenodd" clip-rule="evenodd" d="M100.812 70.5177L102.156 70.2753L103.503 70.0329L104.846 69.7905L106.193 69.5481L107.541 69.3057L108.888 69.0632L110.231 68.8208V59.4023L108.888 59.6448L107.541 59.8872L106.193 60.1296L104.846 60.372L103.503 60.6144L102.156 60.8568L100.812 61.0993V70.5177ZM102.156 68.9321L103.503 68.6897L104.846 68.4473L106.193 68.2048L107.541 67.9624L108.888 67.72V60.992L107.541 61.2344L106.193 61.4768L104.846 61.7192L103.503 61.9616L102.156 62.204V68.9321Z" fill="black"/>
<path fill-rule="evenodd" clip-rule="evenodd" d="M84.6719 70.7296L86.0151 70.4872L87.3623 70.2448L88.7055 70.0024V68.6592V67.312V65.9688L87.3623 66.2112L86.0151 66.4496L84.6719 66.692V68.0392V69.3824V70.7296Z" fill="black"/>
<path fill-rule="evenodd" clip-rule="evenodd" d="M103.5 67.3429L104.843 67.1005L106.19 66.8581L107.534 66.6197V65.2725V63.9292V62.582L106.19 62.8244L104.843 63.0669L103.5 63.3093V64.6525V65.9997V67.3429Z" fill="black"/>
<path fill-rule="evenodd" clip-rule="evenodd" d="M94.0776 69.0344L95.4248 68.792V67.4488V66.1016L94.0776 66.344L92.7344 66.5864V67.9296L94.0776 67.6872V69.0344Z" fill="black"/>
<path fill-rule="evenodd" clip-rule="evenodd" d="M92.7344 71.968L94.0776 71.7256V70.3784V69.0352L92.7344 69.2776V70.6208V71.968Z" fill="black"/>
<path fill-rule="evenodd" clip-rule="evenodd" d="M96.7734 69.8982L98.1206 69.6558V68.3086L96.7734 68.551" fill="black"/>
<path fill-rule="evenodd" clip-rule="evenodd" d="M95.4297 71.4841L96.7729 71.2417V69.8984L95.4297 70.1409" fill="black"/>
<path fill-rule="evenodd" clip-rule="evenodd" d="M98.1172 70.9997L99.4604 70.7613V69.4141L98.1172 69.6565" fill="black"/>
<path fill-rule="evenodd" clip-rule="evenodd" d="M94.0781 73.07L95.4253 72.8316V71.4844L94.0781 71.7268" fill="black"/>
<path fill-rule="evenodd" clip-rule="evenodd" d="M83.3198 81.7328L84.667 81.4904L86.0102 81.248V79.9008L87.3574 79.6623V81.0056L88.7006 80.7631V79.4199V78.0727L87.3574 78.3151V76.9719L86.0102 77.2103V75.8671L87.3574 75.6247V76.9719L88.7006 76.7295V78.0727L90.0478 77.8303L91.3911 77.5918L92.7383 77.3494L94.0815 77.107V75.7598L92.7383 76.0022L91.3911 76.2447L90.0478 76.4871V75.1399L88.7006 75.3823V74.0391L87.3574 74.2815L86.0102 74.5199L84.667 74.7623L83.3198 75.0048L81.9766 75.2472V76.5904L83.3198 76.352L84.667 76.1095V77.4528L83.3198 77.6952L81.9766 77.9376V79.2808V80.628L83.3198 80.3856V81.7328Z" fill="black"/>
<path fill-rule="evenodd" clip-rule="evenodd" d="M90.0469 75.1408L91.3901 74.9023L92.7373 74.6599L94.0805 74.4175V73.0703L92.7373 73.3127L91.3901 73.5551L90.0469 73.7976V75.1408Z" fill="black"/>
<path fill-rule="evenodd" clip-rule="evenodd" d="M92.7373 82.7289L94.0845 82.4865V79.7961L95.4277 79.5536L96.7749 79.3112V77.964L98.1221 77.7216V80.412L99.4654 80.1696V77.4792L100.813 77.2368L102.156 76.9944V79.6848L103.503 79.4424V71.3711L102.156 71.6135V72.9567L100.813 73.1992V71.852L99.4654 72.0944V73.4416L98.1221 73.684V72.3368L96.7749 72.5792V75.2696L98.1221 75.0272V76.3744L96.7749 76.6168V75.2696L95.4277 75.512V76.8592L94.0845 77.1017V78.4449L92.7373 78.6873L91.3901 78.9297L90.0469 79.1721V80.5193L91.3901 80.2769L92.7373 80.0345V82.7249M99.4654 76.136L100.813 75.8936V74.5464L99.4654 74.7888V76.136Z" fill="black"/>
<path fill-rule="evenodd" clip-rule="evenodd" d="M104.844 76.5178L106.191 76.2754V74.9322V73.585L107.534 73.3425V71.9993L106.191 72.2417V70.8945L104.844 71.1369V72.4802V73.8274V75.1706V76.5178Z" fill="black"/>
<path fill-rule="evenodd" clip-rule="evenodd" d="M107.531 71.9998L108.878 71.7574V70.4102L107.531 70.6526" fill="black"/>
<path fill-rule="evenodd" clip-rule="evenodd" d="M107.531 76.0344L108.878 75.792L110.222 75.5535V74.2063L108.878 74.4488V73.1016L107.531 73.344V74.6912V76.0344Z" fill="black"/>
<path fill-rule="evenodd" clip-rule="evenodd" d="M108.883 79.8313L110.226 79.5889V78.2456V76.8984L108.883 77.1409V78.4841V79.8313Z" fill="black"/>
<path fill-rule="evenodd" clip-rule="evenodd" d="M81.9766 92.7326L83.3238 92.4902L84.671 92.2477L86.0182 92.0053L87.3654 91.7629L88.7086 91.5205L90.0558 91.2781L91.399 91.0357V81.6172L90.0558 81.8596L88.7086 82.102L87.3654 82.3444L86.0182 82.5869L84.671 82.8293L83.3238 83.0717L81.9766 83.3141V92.7326ZM83.3238 91.1469L84.671 90.9045L86.0182 90.6621L87.3654 90.4197L88.7086 90.1773L90.0558 89.9349V83.2068L88.7086 83.4492L87.3654 83.6916L86.0182 83.9341L84.671 84.1765L83.3238 84.4189V91.1469Z" fill="black"/>
<path fill-rule="evenodd" clip-rule="evenodd" d="M92.7344 90.8L94.0816 90.5576V87.8671L95.4248 87.6247V86.2775L94.0816 86.5199V85.1727L95.4248 84.9303V86.2775L96.772 86.0351L98.1192 85.7927V87.1399L96.772 87.3823L95.4248 87.6247V90.3151L96.772 90.0727V88.7255L98.1192 88.4831V89.8303L99.4624 89.5879V88.2407L100.81 87.9983L102.153 87.7559V89.1031L103.5 88.8606L104.843 88.6182L106.19 88.3758L107.538 88.1334V85.443L106.19 85.6854V84.3382L107.538 84.0958V82.7486L108.885 82.5061V81.1589L107.538 81.4014V78.7109L106.19 78.9534L104.843 79.1958V81.8862L103.5 82.1286V84.819L104.843 84.5766V85.9238L103.5 86.1662V84.819L102.153 85.0615V83.7143L100.81 83.9567V82.6095L99.4624 82.8519V84.1991L98.1192 84.4415V83.0943L96.772 83.3367V81.9895L98.1192 81.7471V80.3999L96.772 80.6423L95.4248 80.8847V82.2319L94.0816 82.4744V83.8216L92.7344 84.064V90.792M99.4624 86.8935L100.81 86.6511V85.3039L99.4624 85.5463V86.8935Z" fill="black"/>
<path fill-rule="evenodd" clip-rule="evenodd" d="M99.4609 81.5232L100.808 81.2808V79.9336L99.4609 80.176" fill="black"/>
<path fill-rule="evenodd" clip-rule="evenodd" d="M102.156 82.3826L103.503 82.1402V80.793L102.156 81.0354" fill="black"/>
<path fill-rule="evenodd" clip-rule="evenodd" d="M84.6719 89.5617L86.0151 89.3193L87.3623 89.0769L88.7055 88.8344V87.4912V86.144V84.8008L87.3623 85.0432L86.0151 85.2816L84.6719 85.5241V86.8713V88.2145V89.5617Z" fill="black"/>
<path fill-rule="evenodd" clip-rule="evenodd" d="M108.883 86.5544L110.226 86.3159V84.9688L108.883 85.2112" fill="black"/>
<path d="M120.721 73.888L71.3361 82.1262L71.3281 79.3007L120.714 71.0625L120.721 73.888Z" fill="#FFB22D"/>
</g>
<defs>
<clipPath id="clip0_7665_3744">
<rect width="84.1384" height="109" fill="white" transform="translate(38.3906 22.9297)"/>
</clipPath>
</defs>
</svg>
