<?xml version="1.0" encoding="UTF-8"?>
<svg id="Layer_1" xmlns="http://www.w3.org/2000/svg" version="1.1" viewBox="0 0 512 512">
  <!-- Generator: Adobe Illustrator 29.1.0, SVG Export Plug-In . SVG Version: 2.1.0 Build 142)  -->
  <defs>
    <style>
      .st0 {
        fill: #003b71;
      }
    </style>
  </defs>
  <path class="st0" d="M271.9,4.2c-9.8-5.6-21.9-5.6-31.8,0L16.1,132.2c-9.9,5.7-16.1,16.3-16.1,27.8v320c0,17.7,14.3,32,32,32s32-14.3,32-32V178.6l192-109.7,192,109.7v301.4c0,17.7,14.3,32,32,32s32-14.3,32-32V160c0-11.5-6.2-22.1-16.1-27.8,0,0-224-128-224-128ZM256,208c22.1,0,40-17.9,40-40s-17.9-40-40-40-40,17.9-40,40,17.9,40,40,40ZM248,488v-88h16v88c0,13.3,10.7,24,24,24s24-10.7,24-24v-174.5l26.9,49.9c6.3,11.7,20.8,16,32.5,9.8s16-20.8,9.8-32.5l-37.9-70.3c-15.3-28.5-45.1-46.3-77.5-46.3h-19.5c-32.4,0-62.1,17.8-77.5,46.3l-37.9,70.3c-6.3,11.7-1.9,26.2,9.8,32.5s26.2,1.9,32.5-9.8l26.8-49.9v174.5c0,13.3,10.7,24,24,24s24-10.7,24-24Z"/>
</svg>