<?xml version="1.0" encoding="UTF-8"?>
<svg id="Layer_1" xmlns="http://www.w3.org/2000/svg" version="1.1" viewBox="0 0 576 512">
  <!-- Generator: Adobe Illustrator 29.1.0, SVG Export Plug-In . SVG Version: 2.1.0 Build 142)  -->
  <defs>
    <style>
      .st0 {
        fill: #003b71;
      }
    </style>
  </defs>
  <path class="st0" d="M112,48c0-26.5,21.5-48,48-48s48,21.5,48,48-21.5,48-48,48-48-21.5-48-48ZM152,352v128c0,17.7-14.3,32-32,32s-32-14.3-32-32v-223.1l-28.6,47.6c-9.1,15.1-28.8,20-43.9,10.9s-20-28.8-10.9-43.9l58.3-97c17.4-28.9,48.6-46.6,82.3-46.6h29.7c33.7,0,64.9,17.7,82.3,46.6l44.9,74.7c-16.1,17.6-28.6,38.5-36.6,61.5-1.9-1.8-3.5-3.9-4.9-6.3l-28.6-47.5v223.1c0,17.7-14.3,32-32,32s-32-14.3-32-32v-128h-16ZM288,368c0-79.5,64.5-144,144-144s144,64.5,144,144-64.5,144-144,144-144-64.5-144-144ZM499.3,324.7c-6.2-6.2-16.4-6.2-22.6,0l-60.7,60.7-28.7-28.7c-6.2-6.2-16.4-6.2-22.6,0s-6.2,16.4,0,22.6l40,40c6.2,6.2,16.4,6.2,22.6,0l72-72c6.2-6.2,6.2-16.4,0-22.6h0Z"/>
</svg>