<?xml version="1.0" encoding="utf-8"?>
<!-- Generator: Adobe Illustrator 27.9.0, SVG Export Plug-In . SVG Version: 6.00 Build 0)  -->
<svg version="1.1" id="レイヤー_1" xmlns="http://www.w3.org/2000/svg" xmlns:xlink="http://www.w3.org/1999/xlink" x="0px"
	 y="0px" viewBox="0 0 603 639" style="enable-background:new 0 0 603 639;" xml:space="preserve">
<style type="text/css">
	.st0{fill:#221714;}
	.st1{fill:url(#SVGID_1_);}
	.st2{fill:url(#SVGID_00000108306422222254524370000006143502087744580022_);}
	.st3{fill:url(#SVGID_00000067232876475242266510000001440520677087767466_);}
	.st4{fill:url(#SVGID_00000086664515744605674190000001246646143153829010_);}
	.st5{fill:url(#SVGID_00000070835290532355908590000015632403299523199390_);}
	.st6{fill:url(#SVGID_00000049923951527094454410000007934865665192859305_);}
</style>
<g>
	<g>
		<g>
			<path class="st0" d="M197.7,602.6v-23.7h7.3v58.8h-7.3v-28.2h-28v28.2h-7.3v-58.8h7.3v23.7H197.7z"/>
			<path class="st0" d="M247,632.1c-12.7,0-23.5-10.3-23.5-23.8c0-12.9,9.7-23.8,23.5-23.8c13.8,0,23.5,10.8,23.5,23.8
				C270.5,621.8,259.7,632.1,247,632.1z M247,577.7c-16.8,0-30.8,13.8-30.8,30.6c0,17.5,13.8,30.7,30.8,30.7
				c17,0,30.8-13.2,30.8-30.7C277.8,591.5,263.9,577.7,247,577.7z"/>
			<path class="st0" d="M303.9,637.7h-7.3v-52.1h-14v-6.7h35.3v6.7h-14V637.7z"/>
			<path class="st0" d="M328.3,578.9h31.6v6.7h-24.2v16.4h23.5v6.7h-23.5V631h24.2v6.7h-31.6V578.9z"/>
			<path class="st0" d="M379.4,631h17.9v6.7H372v-58.8h7.3V631z"/>
			<path class="st0" d="M432.9,590.1c-2.2-3.7-5-5.6-9.4-5.6c-4.7,0-9.8,3.2-9.8,8.3c0,4.6,4.5,7,8.2,8.4l4.2,1.7
				c8.3,3.3,14.6,7.9,14.6,17.7c0,10.7-8.2,18.3-18.8,18.3c-9.5,0-16.9-7-18.2-16.5l7.4-1.6c-0.1,6.5,5.1,11.2,11.4,11.2
				c6.3,0,10.9-5.3,10.9-11.5c0-6.3-5.1-9-10.1-11.1l-4.1-1.7c-6.7-2.9-12.8-6.7-12.8-14.9c0-9.5,8.4-15.2,17.3-15.2
				c6.6,0,11.9,3.2,15.1,8.9L432.9,590.1z"/>
		</g>
		<g>
			<path class="st0" d="M101.6,404.2h12.5l-55,152.5h-0.4L0,404.2h27.3L66,505.7L101.6,404.2z"/>
			<path class="st0" d="M125.4,552.8V404.2h82.7v12.2h-56.5V470h50.1v12.2h-50.1v58.4h56.5v12.1H125.4z"/>
			<path class="st0" d="M422.1,552.8V404.2h82.7v12.2h-56.5V470h50.1v12.2h-50.1v58.4h56.5v12.1H422.1z"/>
			<path class="st0" d="M227.4,523.7c8,11.2,18,17.3,30.2,17.3c12,0,26-7.8,26-22.9c0-39-66.4-24.1-66.4-74
				c0-22.4,19.9-40.6,45.9-40.6c17.2,0,35.8,9.4,43.1,24.9l-9,5.8c-6.6-11.2-15.8-18.4-30.6-18.4c-14.4,0-24.4,9.4-24.4,22.7
				c0,31,66.6,21.7,66.6,72c0,25.6-23.8,43.4-47.3,43.4c-18.9,0-32.9-7.1-43.8-23.1L227.4,523.7z"/>
			<path class="st0" d="M326.1,523.7c8.1,11.2,18,17.3,30.2,17.3c12,0,26-7.8,26-22.9c0-39-66.4-24.1-66.4-74
				c0-22.4,19.9-40.6,45.9-40.6c17.2,0,35.8,9.4,43.1,24.9l-9,5.8c-6.6-11.2-15.7-18.4-30.6-18.4c-14.4,0-24.4,9.4-24.4,22.7
				c0,31,66.6,21.7,66.6,72c0,25.6-23.8,43.4-47.3,43.4c-18.9,0-32.9-7.1-43.8-23.1L326.1,523.7z"/>
			<path class="st0" d="M519.4,552.8V404.2h26.2v136.5H603v12.1H519.4z"/>
		</g>
	</g>
</g>
<g>
	<linearGradient id="SVGID_1_" gradientUnits="userSpaceOnUse" x1="402.3908" y1="241.5408" x2="311.0581" y2="295.7318">
		<stop  offset="0" style="stop-color:#FFFFFF"/>
		<stop  offset="7.339449e-02" style="stop-color:#FFFBF8"/>
		<stop  offset="0.4954" style="stop-color:#E9911A"/>
		<stop  offset="0.9404" style="stop-color:#D80C18"/>
	</linearGradient>
	<path class="st1" d="M318.7,290.6c-27.2-47-11-107.2-11-107.2s60.2,16.1,87.4,63.1c27.1,47.1,11,107.2,11,107.2
		S345.8,337.7,318.7,290.6z"/>
	
		<linearGradient id="SVGID_00000183229478351991208430000001361553291806590136_" gradientUnits="userSpaceOnUse" x1="405.9786" y1="131.8729" x2="405.9786" y2="238.2077">
		<stop  offset="0" style="stop-color:#FFFFFF"/>
		<stop  offset="7.339449e-02" style="stop-color:#FFFBF8"/>
		<stop  offset="0.4954" style="stop-color:#E9911A"/>
		<stop  offset="0.9404" style="stop-color:#D80C18"/>
	</linearGradient>
	<path style="fill:url(#SVGID_00000183229478351991208430000001361553291806590136_);" d="M406,227.5c-54.3,0-98.4-44.1-98.4-44.1
		s44-44.1,98.4-44.1c54.3,0,98.3,44.1,98.3,44.1S460.3,227.5,406,227.5z"/>
	
		<linearGradient id="SVGID_00000148620641928395541740000014558920064689222035_" gradientUnits="userSpaceOnUse" x1="300.7788" y1="56.1544" x2="392.4936" y2="111.0626">
		<stop  offset="0" style="stop-color:#FFFFFF"/>
		<stop  offset="7.339449e-02" style="stop-color:#FFFBF8"/>
		<stop  offset="0.4954" style="stop-color:#E9911A"/>
		<stop  offset="0.9404" style="stop-color:#D80C18"/>
	</linearGradient>
	<path style="fill:url(#SVGID_00000148620641928395541740000014558920064689222035_);" d="M387.5,107.2
		c-27.2,47-87.4,63.1-87.4,63.1s-16.2-60.2,11-107.2C338.3,16.1,398.4,0,398.4,0S414.6,60.2,387.5,107.2z"/>
	
		<linearGradient id="SVGID_00000067198055999150266440000015671020931626933950_" gradientUnits="userSpaceOnUse" x1="209.3521" y1="111.1614" x2="296.2398" y2="56.8566">
		<stop  offset="0" style="stop-color:#FFFFFF"/>
		<stop  offset="7.339449e-02" style="stop-color:#FFFBF8"/>
		<stop  offset="0.4954" style="stop-color:#E9911A"/>
		<stop  offset="0.9404" style="stop-color:#D80C18"/>
	</linearGradient>
	<path style="fill:url(#SVGID_00000067198055999150266440000015671020931626933950_);" d="M289.1,63.1c27.2,47,11,107.2,11,107.2
		s-60.2-16.1-87.4-63.1c-27.1-47-11-107.2-11-107.2S261.9,16.1,289.1,63.1z"/>
	
		<linearGradient id="SVGID_00000092441695345190909950000009127623947142923678_" gradientUnits="userSpaceOnUse" x1="194.2089" y1="239.5774" x2="194.2089" y2="129.1506">
		<stop  offset="0" style="stop-color:#FFFFFF"/>
		<stop  offset="7.339449e-02" style="stop-color:#FFFBF8"/>
		<stop  offset="0.4954" style="stop-color:#E9911A"/>
		<stop  offset="0.9404" style="stop-color:#D80C18"/>
	</linearGradient>
	<path style="fill:url(#SVGID_00000092441695345190909950000009127623947142923678_);" d="M194.2,139.3c54.3,0,98.4,44.1,98.4,44.1
		s-44,44.1-98.4,44.1c-54.3,0-98.3-44.1-98.3-44.1S139.9,139.3,194.2,139.3z"/>
	<g>
		<g>
			
				<linearGradient id="SVGID_00000021810740885009866700000011871018460555516597_" gradientUnits="userSpaceOnUse" x1="290.5068" y1="296.0339" x2="197.2836" y2="241.7291">
				<stop  offset="0" style="stop-color:#FFFFFF"/>
				<stop  offset="7.339449e-02" style="stop-color:#FFFBF8"/>
				<stop  offset="0.4954" style="stop-color:#E9911A"/>
				<stop  offset="0.9404" style="stop-color:#D80C18"/>
			</linearGradient>
			<path style="fill:url(#SVGID_00000021810740885009866700000011871018460555516597_);" d="M205.2,246.5
				c27.2-47,87.3-63.1,87.3-63.1s16.2,60.2-11,107.2c-27.2,47.1-87.3,63.1-87.3,63.1S178,293.6,205.2,246.5z"/>
		</g>
	</g>
</g>
</svg>
